<?xml version="1.0" encoding="utf-8" standalone="no"?>
<!DOCTYPE svg PUBLIC "-//W3C//DTD SVG 1.1//EN"
  "http://www.w3.org/Graphics/SVG/1.1/DTD/svg11.dtd">
<svg xmlns:xlink="http://www.w3.org/1999/xlink" width="710.107813pt" height="545.314191pt" viewBox="0 0 710.107813 545.314191" xmlns="http://www.w3.org/2000/svg" version="1.1">
 <metadata>
  <rdf:RDF xmlns:dc="http://purl.org/dc/elements/1.1/" xmlns:cc="http://creativecommons.org/ns#" xmlns:rdf="http://www.w3.org/1999/02/22-rdf-syntax-ns#">
   <cc:Work>
    <dc:type rdf:resource="http://purl.org/dc/dcmitype/StillImage"/>
    <dc:date>2022-05-08T19:38:01.773621</dc:date>
    <dc:format>image/svg+xml</dc:format>
    <dc:creator>
     <cc:Agent>
      <dc:title>Matplotlib v3.5.1, https://matplotlib.org/</dc:title>
     </cc:Agent>
    </dc:creator>
   </cc:Work>
  </rdf:RDF>
 </metadata>
 <defs>
  <style type="text/css">*{stroke-linejoin: round; stroke-linecap: butt}</style>
 </defs>
 <g id="figure_1">
  <g id="patch_1">
   <path d="M 0 545.314191 
L 710.107813 545.314191 
L 710.107813 0 
L 0 0 
z
" style="fill: #212946"/>
  </g>
  <g id="axes_1">
   <g id="patch_2">
    <path d="M 40.507812 159.012243 
L 710.107813 159.012243 
L 710.107813 15.118125 
L 40.507812 15.118125 
z
" style="fill: #212946"/>
   </g>
   <g id="matplotlib.axis_1">
    <g id="xtick_1">
     <g id="line2d_1">
      <path d="M 70.944176 159.012243 
L 70.944176 15.118125 
" clip-path="url(#p46e585ca26)" style="fill: none; stroke: #2a3459; stroke-width: 0.8; stroke-linecap: round"/>
     </g>
     <g id="line2d_2"/>
    </g>
    <g id="xtick_2">
     <g id="line2d_3">
      <path d="M 150.343386 159.012243 
L 150.343386 15.118125 
" clip-path="url(#p46e585ca26)" style="fill: none; stroke: #2a3459; stroke-width: 0.8; stroke-linecap: round"/>
     </g>
     <g id="line2d_4"/>
    </g>
    <g id="xtick_3">
     <g id="line2d_5">
      <path d="M 229.742595 159.012243 
L 229.742595 15.118125 
" clip-path="url(#p46e585ca26)" style="fill: none; stroke: #2a3459; stroke-width: 0.8; stroke-linecap: round"/>
     </g>
     <g id="line2d_6"/>
    </g>
    <g id="xtick_4">
     <g id="line2d_7">
      <path d="M 309.141805 159.012243 
L 309.141805 15.118125 
" clip-path="url(#p46e585ca26)" style="fill: none; stroke: #2a3459; stroke-width: 0.8; stroke-linecap: round"/>
     </g>
     <g id="line2d_8"/>
    </g>
    <g id="xtick_5">
     <g id="line2d_9">
      <path d="M 388.541014 159.012243 
L 388.541014 15.118125 
" clip-path="url(#p46e585ca26)" style="fill: none; stroke: #2a3459; stroke-width: 0.8; stroke-linecap: round"/>
     </g>
     <g id="line2d_10"/>
    </g>
    <g id="xtick_6">
     <g id="line2d_11">
      <path d="M 467.940224 159.012243 
L 467.940224 15.118125 
" clip-path="url(#p46e585ca26)" style="fill: none; stroke: #2a3459; stroke-width: 0.8; stroke-linecap: round"/>
     </g>
     <g id="line2d_12"/>
    </g>
    <g id="xtick_7">
     <g id="line2d_13">
      <path d="M 547.339433 159.012243 
L 547.339433 15.118125 
" clip-path="url(#p46e585ca26)" style="fill: none; stroke: #2a3459; stroke-width: 0.8; stroke-linecap: round"/>
     </g>
     <g id="line2d_14"/>
    </g>
    <g id="xtick_8">
     <g id="line2d_15">
      <path d="M 626.738643 159.012243 
L 626.738643 15.118125 
" clip-path="url(#p46e585ca26)" style="fill: none; stroke: #2a3459; stroke-width: 0.8; stroke-linecap: round"/>
     </g>
     <g id="line2d_16"/>
    </g>
   </g>
   <g id="matplotlib.axis_2">
    <g id="ytick_1">
     <g id="line2d_17">
      <path d="M 40.507812 137.588958 
L 710.107813 137.588958 
" clip-path="url(#p46e585ca26)" style="fill: none; stroke: #2a3459; stroke-width: 0.8; stroke-linecap: round"/>
     </g>
     <g id="line2d_18"/>
     <g id="text_1">
      <!-- 300 -->
      <g style="fill: #e6e6e6" transform="translate(17.920312 141.388177)scale(0.1 -0.1)">
       <defs>
        <path id="DejaVuSans-33" d="M 2597 2516 
Q 3050 2419 3304 2112 
Q 3559 1806 3559 1356 
Q 3559 666 3084 287 
Q 2609 -91 1734 -91 
Q 1441 -91 1130 -33 
Q 819 25 488 141 
L 488 750 
Q 750 597 1062 519 
Q 1375 441 1716 441 
Q 2309 441 2620 675 
Q 2931 909 2931 1356 
Q 2931 1769 2642 2001 
Q 2353 2234 1838 2234 
L 1294 2234 
L 1294 2753 
L 1863 2753 
Q 2328 2753 2575 2939 
Q 2822 3125 2822 3475 
Q 2822 3834 2567 4026 
Q 2313 4219 1838 4219 
Q 1578 4219 1281 4162 
Q 984 4106 628 3988 
L 628 4550 
Q 988 4650 1302 4700 
Q 1616 4750 1894 4750 
Q 2613 4750 3031 4423 
Q 3450 4097 3450 3541 
Q 3450 3153 3228 2886 
Q 3006 2619 2597 2516 
z
" transform="scale(0.015625)"/>
        <path id="DejaVuSans-30" d="M 2034 4250 
Q 1547 4250 1301 3770 
Q 1056 3291 1056 2328 
Q 1056 1369 1301 889 
Q 1547 409 2034 409 
Q 2525 409 2770 889 
Q 3016 1369 3016 2328 
Q 3016 3291 2770 3770 
Q 2525 4250 2034 4250 
z
M 2034 4750 
Q 2819 4750 3233 4129 
Q 3647 3509 3647 2328 
Q 3647 1150 3233 529 
Q 2819 -91 2034 -91 
Q 1250 -91 836 529 
Q 422 1150 422 2328 
Q 422 3509 836 4129 
Q 1250 4750 2034 4750 
z
" transform="scale(0.015625)"/>
       </defs>
       <use xlink:href="#DejaVuSans-33"/>
       <use xlink:href="#DejaVuSans-30" x="63.623047"/>
       <use xlink:href="#DejaVuSans-30" x="127.246094"/>
      </g>
     </g>
    </g>
    <g id="ytick_2">
     <g id="line2d_19">
      <path d="M 40.507812 112.168882 
L 710.107813 112.168882 
" clip-path="url(#p46e585ca26)" style="fill: none; stroke: #2a3459; stroke-width: 0.8; stroke-linecap: round"/>
     </g>
     <g id="line2d_20"/>
     <g id="text_2">
      <!-- 400 -->
      <g style="fill: #e6e6e6" transform="translate(17.920312 115.968101)scale(0.1 -0.1)">
       <defs>
        <path id="DejaVuSans-34" d="M 2419 4116 
L 825 1625 
L 2419 1625 
L 2419 4116 
z
M 2253 4666 
L 3047 4666 
L 3047 1625 
L 3713 1625 
L 3713 1100 
L 3047 1100 
L 3047 0 
L 2419 0 
L 2419 1100 
L 313 1100 
L 313 1709 
L 2253 4666 
z
" transform="scale(0.015625)"/>
       </defs>
       <use xlink:href="#DejaVuSans-34"/>
       <use xlink:href="#DejaVuSans-30" x="63.623047"/>
       <use xlink:href="#DejaVuSans-30" x="127.246094"/>
      </g>
     </g>
    </g>
    <g id="ytick_3">
     <g id="line2d_21">
      <path d="M 40.507812 86.748805 
L 710.107813 86.748805 
" clip-path="url(#p46e585ca26)" style="fill: none; stroke: #2a3459; stroke-width: 0.8; stroke-linecap: round"/>
     </g>
     <g id="line2d_22"/>
     <g id="text_3">
      <!-- 500 -->
      <g style="fill: #e6e6e6" transform="translate(17.920312 90.548024)scale(0.1 -0.1)">
       <defs>
        <path id="DejaVuSans-35" d="M 691 4666 
L 3169 4666 
L 3169 4134 
L 1269 4134 
L 1269 2991 
Q 1406 3038 1543 3061 
Q 1681 3084 1819 3084 
Q 2600 3084 3056 2656 
Q 3513 2228 3513 1497 
Q 3513 744 3044 326 
Q 2575 -91 1722 -91 
Q 1428 -91 1123 -41 
Q 819 9 494 109 
L 494 744 
Q 775 591 1075 516 
Q 1375 441 1709 441 
Q 2250 441 2565 725 
Q 2881 1009 2881 1497 
Q 2881 1984 2565 2268 
Q 2250 2553 1709 2553 
Q 1456 2553 1204 2497 
Q 953 2441 691 2322 
L 691 4666 
z
" transform="scale(0.015625)"/>
       </defs>
       <use xlink:href="#DejaVuSans-35"/>
       <use xlink:href="#DejaVuSans-30" x="63.623047"/>
       <use xlink:href="#DejaVuSans-30" x="127.246094"/>
      </g>
     </g>
    </g>
    <g id="ytick_4">
     <g id="line2d_23">
      <path d="M 40.507812 61.328729 
L 710.107813 61.328729 
" clip-path="url(#p46e585ca26)" style="fill: none; stroke: #2a3459; stroke-width: 0.8; stroke-linecap: round"/>
     </g>
     <g id="line2d_24"/>
     <g id="text_4">
      <!-- 600 -->
      <g style="fill: #e6e6e6" transform="translate(17.920312 65.127948)scale(0.1 -0.1)">
       <defs>
        <path id="DejaVuSans-36" d="M 2113 2584 
Q 1688 2584 1439 2293 
Q 1191 2003 1191 1497 
Q 1191 994 1439 701 
Q 1688 409 2113 409 
Q 2538 409 2786 701 
Q 3034 994 3034 1497 
Q 3034 2003 2786 2293 
Q 2538 2584 2113 2584 
z
M 3366 4563 
L 3366 3988 
Q 3128 4100 2886 4159 
Q 2644 4219 2406 4219 
Q 1781 4219 1451 3797 
Q 1122 3375 1075 2522 
Q 1259 2794 1537 2939 
Q 1816 3084 2150 3084 
Q 2853 3084 3261 2657 
Q 3669 2231 3669 1497 
Q 3669 778 3244 343 
Q 2819 -91 2113 -91 
Q 1303 -91 875 529 
Q 447 1150 447 2328 
Q 447 3434 972 4092 
Q 1497 4750 2381 4750 
Q 2619 4750 2861 4703 
Q 3103 4656 3366 4563 
z
" transform="scale(0.015625)"/>
       </defs>
       <use xlink:href="#DejaVuSans-36"/>
       <use xlink:href="#DejaVuSans-30" x="63.623047"/>
       <use xlink:href="#DejaVuSans-30" x="127.246094"/>
      </g>
     </g>
    </g>
    <g id="ytick_5">
     <g id="line2d_25">
      <path d="M 40.507812 35.908653 
L 710.107813 35.908653 
" clip-path="url(#p46e585ca26)" style="fill: none; stroke: #2a3459; stroke-width: 0.8; stroke-linecap: round"/>
     </g>
     <g id="line2d_26"/>
     <g id="text_5">
      <!-- 700 -->
      <g style="fill: #e6e6e6" transform="translate(17.920312 39.707871)scale(0.1 -0.1)">
       <defs>
        <path id="DejaVuSans-37" d="M 525 4666 
L 3525 4666 
L 3525 4397 
L 1831 0 
L 1172 0 
L 2766 4134 
L 525 4134 
L 525 4666 
z
" transform="scale(0.015625)"/>
       </defs>
       <use xlink:href="#DejaVuSans-37"/>
       <use xlink:href="#DejaVuSans-30" x="63.623047"/>
       <use xlink:href="#DejaVuSans-30" x="127.246094"/>
      </g>
     </g>
    </g>
    <g id="text_6">
     <!-- CO in the air [μg/m³] -->
     <g style="fill: #e6e6e6" transform="translate(11.840625 138.937059)rotate(-90)scale(0.1 -0.1)">
      <defs>
       <path id="DejaVuSans-43" d="M 4122 4306 
L 4122 3641 
Q 3803 3938 3442 4084 
Q 3081 4231 2675 4231 
Q 1875 4231 1450 3742 
Q 1025 3253 1025 2328 
Q 1025 1406 1450 917 
Q 1875 428 2675 428 
Q 3081 428 3442 575 
Q 3803 722 4122 1019 
L 4122 359 
Q 3791 134 3420 21 
Q 3050 -91 2638 -91 
Q 1578 -91 968 557 
Q 359 1206 359 2328 
Q 359 3453 968 4101 
Q 1578 4750 2638 4750 
Q 3056 4750 3426 4639 
Q 3797 4528 4122 4306 
z
" transform="scale(0.015625)"/>
       <path id="DejaVuSans-4f" d="M 2522 4238 
Q 1834 4238 1429 3725 
Q 1025 3213 1025 2328 
Q 1025 1447 1429 934 
Q 1834 422 2522 422 
Q 3209 422 3611 934 
Q 4013 1447 4013 2328 
Q 4013 3213 3611 3725 
Q 3209 4238 2522 4238 
z
M 2522 4750 
Q 3503 4750 4090 4092 
Q 4678 3434 4678 2328 
Q 4678 1225 4090 567 
Q 3503 -91 2522 -91 
Q 1538 -91 948 565 
Q 359 1222 359 2328 
Q 359 3434 948 4092 
Q 1538 4750 2522 4750 
z
" transform="scale(0.015625)"/>
       <path id="DejaVuSans-20" transform="scale(0.015625)"/>
       <path id="DejaVuSans-69" d="M 603 3500 
L 1178 3500 
L 1178 0 
L 603 0 
L 603 3500 
z
M 603 4863 
L 1178 4863 
L 1178 4134 
L 603 4134 
L 603 4863 
z
" transform="scale(0.015625)"/>
       <path id="DejaVuSans-6e" d="M 3513 2113 
L 3513 0 
L 2938 0 
L 2938 2094 
Q 2938 2591 2744 2837 
Q 2550 3084 2163 3084 
Q 1697 3084 1428 2787 
Q 1159 2491 1159 1978 
L 1159 0 
L 581 0 
L 581 3500 
L 1159 3500 
L 1159 2956 
Q 1366 3272 1645 3428 
Q 1925 3584 2291 3584 
Q 2894 3584 3203 3211 
Q 3513 2838 3513 2113 
z
" transform="scale(0.015625)"/>
       <path id="DejaVuSans-74" d="M 1172 4494 
L 1172 3500 
L 2356 3500 
L 2356 3053 
L 1172 3053 
L 1172 1153 
Q 1172 725 1289 603 
Q 1406 481 1766 481 
L 2356 481 
L 2356 0 
L 1766 0 
Q 1100 0 847 248 
Q 594 497 594 1153 
L 594 3053 
L 172 3053 
L 172 3500 
L 594 3500 
L 594 4494 
L 1172 4494 
z
" transform="scale(0.015625)"/>
       <path id="DejaVuSans-68" d="M 3513 2113 
L 3513 0 
L 2938 0 
L 2938 2094 
Q 2938 2591 2744 2837 
Q 2550 3084 2163 3084 
Q 1697 3084 1428 2787 
Q 1159 2491 1159 1978 
L 1159 0 
L 581 0 
L 581 4863 
L 1159 4863 
L 1159 2956 
Q 1366 3272 1645 3428 
Q 1925 3584 2291 3584 
Q 2894 3584 3203 3211 
Q 3513 2838 3513 2113 
z
" transform="scale(0.015625)"/>
       <path id="DejaVuSans-65" d="M 3597 1894 
L 3597 1613 
L 953 1613 
Q 991 1019 1311 708 
Q 1631 397 2203 397 
Q 2534 397 2845 478 
Q 3156 559 3463 722 
L 3463 178 
Q 3153 47 2828 -22 
Q 2503 -91 2169 -91 
Q 1331 -91 842 396 
Q 353 884 353 1716 
Q 353 2575 817 3079 
Q 1281 3584 2069 3584 
Q 2775 3584 3186 3129 
Q 3597 2675 3597 1894 
z
M 3022 2063 
Q 3016 2534 2758 2815 
Q 2500 3097 2075 3097 
Q 1594 3097 1305 2825 
Q 1016 2553 972 2059 
L 3022 2063 
z
" transform="scale(0.015625)"/>
       <path id="DejaVuSans-61" d="M 2194 1759 
Q 1497 1759 1228 1600 
Q 959 1441 959 1056 
Q 959 750 1161 570 
Q 1363 391 1709 391 
Q 2188 391 2477 730 
Q 2766 1069 2766 1631 
L 2766 1759 
L 2194 1759 
z
M 3341 1997 
L 3341 0 
L 2766 0 
L 2766 531 
Q 2569 213 2275 61 
Q 1981 -91 1556 -91 
Q 1019 -91 701 211 
Q 384 513 384 1019 
Q 384 1609 779 1909 
Q 1175 2209 1959 2209 
L 2766 2209 
L 2766 2266 
Q 2766 2663 2505 2880 
Q 2244 3097 1772 3097 
Q 1472 3097 1187 3025 
Q 903 2953 641 2809 
L 641 3341 
Q 956 3463 1253 3523 
Q 1550 3584 1831 3584 
Q 2591 3584 2966 3190 
Q 3341 2797 3341 1997 
z
" transform="scale(0.015625)"/>
       <path id="DejaVuSans-72" d="M 2631 2963 
Q 2534 3019 2420 3045 
Q 2306 3072 2169 3072 
Q 1681 3072 1420 2755 
Q 1159 2438 1159 1844 
L 1159 0 
L 581 0 
L 581 3500 
L 1159 3500 
L 1159 2956 
Q 1341 3275 1631 3429 
Q 1922 3584 2338 3584 
Q 2397 3584 2469 3576 
Q 2541 3569 2628 3553 
L 2631 2963 
z
" transform="scale(0.015625)"/>
       <path id="DejaVuSans-5b" d="M 550 4863 
L 1875 4863 
L 1875 4416 
L 1125 4416 
L 1125 -397 
L 1875 -397 
L 1875 -844 
L 550 -844 
L 550 4863 
z
" transform="scale(0.015625)"/>
       <path id="DejaVuSans-3bc" d="M 544 -1331 
L 544 3500 
L 1119 3500 
L 1119 1325 
Q 1119 872 1334 640 
Q 1550 409 1972 409 
Q 2434 409 2667 671 
Q 2900 934 2900 1459 
L 2900 3500 
L 3475 3500 
L 3475 806 
Q 3475 619 3529 530 
Q 3584 441 3700 441 
Q 3728 441 3778 458 
Q 3828 475 3916 513 
L 3916 50 
Q 3788 -22 3673 -56 
Q 3559 -91 3450 -91 
Q 3234 -91 3106 31 
Q 2978 153 2931 403 
Q 2775 156 2548 32 
Q 2322 -91 2016 -91 
Q 1697 -91 1473 31 
Q 1250 153 1119 397 
L 1119 -1331 
L 544 -1331 
z
" transform="scale(0.015625)"/>
       <path id="DejaVuSans-67" d="M 2906 1791 
Q 2906 2416 2648 2759 
Q 2391 3103 1925 3103 
Q 1463 3103 1205 2759 
Q 947 2416 947 1791 
Q 947 1169 1205 825 
Q 1463 481 1925 481 
Q 2391 481 2648 825 
Q 2906 1169 2906 1791 
z
M 3481 434 
Q 3481 -459 3084 -895 
Q 2688 -1331 1869 -1331 
Q 1566 -1331 1297 -1286 
Q 1028 -1241 775 -1147 
L 775 -588 
Q 1028 -725 1275 -790 
Q 1522 -856 1778 -856 
Q 2344 -856 2625 -561 
Q 2906 -266 2906 331 
L 2906 616 
Q 2728 306 2450 153 
Q 2172 0 1784 0 
Q 1141 0 747 490 
Q 353 981 353 1791 
Q 353 2603 747 3093 
Q 1141 3584 1784 3584 
Q 2172 3584 2450 3431 
Q 2728 3278 2906 2969 
L 2906 3500 
L 3481 3500 
L 3481 434 
z
" transform="scale(0.015625)"/>
       <path id="DejaVuSans-2f" d="M 1625 4666 
L 2156 4666 
L 531 -594 
L 0 -594 
L 1625 4666 
z
" transform="scale(0.015625)"/>
       <path id="DejaVuSans-6d" d="M 3328 2828 
Q 3544 3216 3844 3400 
Q 4144 3584 4550 3584 
Q 5097 3584 5394 3201 
Q 5691 2819 5691 2113 
L 5691 0 
L 5113 0 
L 5113 2094 
Q 5113 2597 4934 2840 
Q 4756 3084 4391 3084 
Q 3944 3084 3684 2787 
Q 3425 2491 3425 1978 
L 3425 0 
L 2847 0 
L 2847 2094 
Q 2847 2600 2669 2842 
Q 2491 3084 2119 3084 
Q 1678 3084 1418 2786 
Q 1159 2488 1159 1978 
L 1159 0 
L 581 0 
L 581 3500 
L 1159 3500 
L 1159 2956 
Q 1356 3278 1631 3431 
Q 1906 3584 2284 3584 
Q 2666 3584 2933 3390 
Q 3200 3197 3328 2828 
z
" transform="scale(0.015625)"/>
       <path id="DejaVuSans-b3" d="M 1638 3500 
Q 1925 3444 2083 3273 
Q 2241 3103 2241 2847 
Q 2241 2459 1944 2250 
Q 1647 2041 1094 2041 
Q 916 2041 720 2073 
Q 525 2106 306 2169 
L 306 2547 
Q 469 2463 655 2422 
Q 841 2381 1050 2381 
Q 1391 2381 1578 2504 
Q 1766 2628 1766 2847 
Q 1766 3078 1592 3197 
Q 1419 3316 1081 3316 
L 813 3316 
L 813 3653 
L 1106 3653 
Q 1400 3653 1551 3751 
Q 1703 3850 1703 4038 
Q 1703 4219 1547 4314 
Q 1391 4409 1094 4409 
Q 969 4409 809 4381 
Q 650 4353 397 4281 
L 397 4641 
Q 625 4694 825 4722 
Q 1025 4750 1197 4750 
Q 1647 4750 1911 4565 
Q 2175 4381 2175 4072 
Q 2175 3856 2034 3706 
Q 1894 3556 1638 3500 
z
" transform="scale(0.015625)"/>
       <path id="DejaVuSans-5d" d="M 1947 4863 
L 1947 -844 
L 622 -844 
L 622 -397 
L 1369 -397 
L 1369 4416 
L 622 4416 
L 622 4863 
L 1947 4863 
z
" transform="scale(0.015625)"/>
      </defs>
      <use xlink:href="#DejaVuSans-43"/>
      <use xlink:href="#DejaVuSans-4f" x="69.824219"/>
      <use xlink:href="#DejaVuSans-20" x="148.535156"/>
      <use xlink:href="#DejaVuSans-69" x="180.322266"/>
      <use xlink:href="#DejaVuSans-6e" x="208.105469"/>
      <use xlink:href="#DejaVuSans-20" x="271.484375"/>
      <use xlink:href="#DejaVuSans-74" x="303.271484"/>
      <use xlink:href="#DejaVuSans-68" x="342.480469"/>
      <use xlink:href="#DejaVuSans-65" x="405.859375"/>
      <use xlink:href="#DejaVuSans-20" x="467.382812"/>
      <use xlink:href="#DejaVuSans-61" x="499.169922"/>
      <use xlink:href="#DejaVuSans-69" x="560.449219"/>
      <use xlink:href="#DejaVuSans-72" x="588.232422"/>
      <use xlink:href="#DejaVuSans-20" x="629.345703"/>
      <use xlink:href="#DejaVuSans-5b" x="661.132812"/>
      <use xlink:href="#DejaVuSans-3bc" x="700.146484"/>
      <use xlink:href="#DejaVuSans-67" x="763.769531"/>
      <use xlink:href="#DejaVuSans-2f" x="827.246094"/>
      <use xlink:href="#DejaVuSans-6d" x="860.9375"/>
      <use xlink:href="#DejaVuSans-b3" x="958.349609"/>
      <use xlink:href="#DejaVuSans-5d" x="998.4375"/>
     </g>
    </g>
   </g>
   <g id="PolyCollection_1">
    <defs>
     <path id="m4d22db55ea" d="M 70.944176 -519.298822 
L 70.944176 -450.094086 
L 97.410579 -448.741249 
L 123.876982 -432.84654 
L 150.343386 -410.307393 
L 176.809789 -399.560383 
L 203.276192 -392.889987 
L 229.742595 -393.596165 
L 256.208998 -398.394026 
L 282.675401 -405.651944 
L 309.141805 -424.563484 
L 335.608208 -438.488109 
L 362.074611 -435.926832 
L 388.541014 -450.680534 
L 415.007417 -448.374964 
L 441.47382 -432.660809 
L 467.940224 -410.224746 
L 494.406627 -399.501033 
L 520.87303 -392.84259 
L 547.339433 -393.54747 
L 573.805836 -398.336093 
L 600.272239 -405.578856 
L 626.738643 -424.444943 
L 653.205046 -438.330958 
L 679.671449 -435.777032 
L 679.671449 -493.529354 
L 679.671449 -493.529354 
L 653.205046 -498.609339 
L 626.738643 -471.776205 
L 600.272239 -437.659833 
L 573.805836 -425.282642 
L 547.339433 -417.319668 
L 520.87303 -416.162391 
L 494.406627 -427.246378 
L 467.940224 -445.809747 
L 441.47382 -487.481604 
L 415.007417 -518.94132 
L 388.541014 -523.655424 
L 362.074611 -493.31745 
L 335.608208 -498.390751 
L 309.141805 -471.593464 
L 282.675401 -437.522286 
L 256.208998 -425.161394 
L 229.742595 -417.208933 
L 203.276192 -416.0532 
L 176.809789 -427.120977 
L 150.343386 -445.659468 
L 123.876982 -487.359886 
L 97.410579 -518.373461 
L 70.944176 -519.298822 
z
" style="stroke: #808080; stroke-opacity: 0.2"/>
    </defs>
    <g clip-path="url(#p46e585ca26)">
     <use xlink:href="#m4d22db55ea" x="0" y="545.314191" style="fill: #808080; fill-opacity: 0.2; stroke: #808080; stroke-opacity: 0.2"/>
    </g>
   </g>
   <g id="line2d_27">
    <path d="M 70.944176 84.099557 
L 97.410579 116.173749 
L 123.876982 102.571774 
L 150.343386 120.288552 
L 176.809789 140.370671 
L 203.276192 144.000492 
L 229.742595 148.546564 
L 256.208998 141.351791 
L 282.675401 126.685574 
L 309.141805 113.463652 
L 335.608208 95.064404 
L 362.074611 75.235357 
L 388.541014 79.007128 
L 415.007417 62.435259 
L 441.47382 96.636158 
L 467.940224 124.516835 
L 494.406627 140.117943 
L 520.87303 139.766634 
L 547.339433 139.60651 
L 573.805836 133.917208 
L 600.272239 123.408153 
L 626.738643 106.390772 
L 653.205046 101.271484 
L 679.671449 77.251862 
" clip-path="url(#p46e585ca26)" style="fill: none; stroke: #18c0c4; stroke-width: 1.5; stroke-linecap: round"/>
   </g>
   <g id="line2d_28">
    <path d="M 70.944176 66.66175 
L 97.410579 67.922987 
L 123.876982 89.67378 
L 150.343386 119.827626 
L 176.809789 133.760962 
L 203.276192 142.257828 
L 229.742595 141.3639 
L 256.208998 135.255181 
L 282.675401 125.899571 
L 309.141805 100.897354 
L 335.608208 81.938016 
L 362.074611 85.47172 
L 388.541014 64.764243 
L 415.007417 67.985944 
L 441.47382 89.757779 
L 467.940224 119.826105 
L 494.406627 133.751355 
L 520.87303 142.245597 
L 547.339433 141.352016 
L 573.805836 135.246022 
L 600.272239 125.895504 
L 626.738643 100.911597 
L 653.205046 81.970348 
L 679.671449 85.500421 
" clip-path="url(#p46e585ca26)" style="fill: none; stroke-dasharray: 5.55,2.4; stroke-dashoffset: 0; stroke: #f62196; stroke-width: 1.5"/>
   </g>
   <g id="patch_3">
    <path d="M 40.507812 159.012243 
L 40.507812 15.118125 
" style="fill: none"/>
   </g>
   <g id="patch_4">
    <path d="M 710.107813 159.012243 
L 710.107813 15.118125 
" style="fill: none"/>
   </g>
   <g id="patch_5">
    <path d="M 40.507812 159.012243 
L 710.107813 159.012243 
" style="fill: none"/>
   </g>
   <g id="patch_6">
    <path d="M 40.507812 15.118125 
L 710.107813 15.118125 
" style="fill: none"/>
   </g>
   <g id="text_7">
    <!-- Comparison of historical monthly data to trend prediction for CO in Poland -->
    <g style="fill: #e6e6e6" transform="translate(152.254063 9.118125)scale(0.12 -0.12)">
     <defs>
      <path id="DejaVuSans-6f" d="M 1959 3097 
Q 1497 3097 1228 2736 
Q 959 2375 959 1747 
Q 959 1119 1226 758 
Q 1494 397 1959 397 
Q 2419 397 2687 759 
Q 2956 1122 2956 1747 
Q 2956 2369 2687 2733 
Q 2419 3097 1959 3097 
z
M 1959 3584 
Q 2709 3584 3137 3096 
Q 3566 2609 3566 1747 
Q 3566 888 3137 398 
Q 2709 -91 1959 -91 
Q 1206 -91 779 398 
Q 353 888 353 1747 
Q 353 2609 779 3096 
Q 1206 3584 1959 3584 
z
" transform="scale(0.015625)"/>
      <path id="DejaVuSans-70" d="M 1159 525 
L 1159 -1331 
L 581 -1331 
L 581 3500 
L 1159 3500 
L 1159 2969 
Q 1341 3281 1617 3432 
Q 1894 3584 2278 3584 
Q 2916 3584 3314 3078 
Q 3713 2572 3713 1747 
Q 3713 922 3314 415 
Q 2916 -91 2278 -91 
Q 1894 -91 1617 61 
Q 1341 213 1159 525 
z
M 3116 1747 
Q 3116 2381 2855 2742 
Q 2594 3103 2138 3103 
Q 1681 3103 1420 2742 
Q 1159 2381 1159 1747 
Q 1159 1113 1420 752 
Q 1681 391 2138 391 
Q 2594 391 2855 752 
Q 3116 1113 3116 1747 
z
" transform="scale(0.015625)"/>
      <path id="DejaVuSans-73" d="M 2834 3397 
L 2834 2853 
Q 2591 2978 2328 3040 
Q 2066 3103 1784 3103 
Q 1356 3103 1142 2972 
Q 928 2841 928 2578 
Q 928 2378 1081 2264 
Q 1234 2150 1697 2047 
L 1894 2003 
Q 2506 1872 2764 1633 
Q 3022 1394 3022 966 
Q 3022 478 2636 193 
Q 2250 -91 1575 -91 
Q 1294 -91 989 -36 
Q 684 19 347 128 
L 347 722 
Q 666 556 975 473 
Q 1284 391 1588 391 
Q 1994 391 2212 530 
Q 2431 669 2431 922 
Q 2431 1156 2273 1281 
Q 2116 1406 1581 1522 
L 1381 1569 
Q 847 1681 609 1914 
Q 372 2147 372 2553 
Q 372 3047 722 3315 
Q 1072 3584 1716 3584 
Q 2034 3584 2315 3537 
Q 2597 3491 2834 3397 
z
" transform="scale(0.015625)"/>
      <path id="DejaVuSans-66" d="M 2375 4863 
L 2375 4384 
L 1825 4384 
Q 1516 4384 1395 4259 
Q 1275 4134 1275 3809 
L 1275 3500 
L 2222 3500 
L 2222 3053 
L 1275 3053 
L 1275 0 
L 697 0 
L 697 3053 
L 147 3053 
L 147 3500 
L 697 3500 
L 697 3744 
Q 697 4328 969 4595 
Q 1241 4863 1831 4863 
L 2375 4863 
z
" transform="scale(0.015625)"/>
      <path id="DejaVuSans-63" d="M 3122 3366 
L 3122 2828 
Q 2878 2963 2633 3030 
Q 2388 3097 2138 3097 
Q 1578 3097 1268 2742 
Q 959 2388 959 1747 
Q 959 1106 1268 751 
Q 1578 397 2138 397 
Q 2388 397 2633 464 
Q 2878 531 3122 666 
L 3122 134 
Q 2881 22 2623 -34 
Q 2366 -91 2075 -91 
Q 1284 -91 818 406 
Q 353 903 353 1747 
Q 353 2603 823 3093 
Q 1294 3584 2113 3584 
Q 2378 3584 2631 3529 
Q 2884 3475 3122 3366 
z
" transform="scale(0.015625)"/>
      <path id="DejaVuSans-6c" d="M 603 4863 
L 1178 4863 
L 1178 0 
L 603 0 
L 603 4863 
z
" transform="scale(0.015625)"/>
      <path id="DejaVuSans-79" d="M 2059 -325 
Q 1816 -950 1584 -1140 
Q 1353 -1331 966 -1331 
L 506 -1331 
L 506 -850 
L 844 -850 
Q 1081 -850 1212 -737 
Q 1344 -625 1503 -206 
L 1606 56 
L 191 3500 
L 800 3500 
L 1894 763 
L 2988 3500 
L 3597 3500 
L 2059 -325 
z
" transform="scale(0.015625)"/>
      <path id="DejaVuSans-64" d="M 2906 2969 
L 2906 4863 
L 3481 4863 
L 3481 0 
L 2906 0 
L 2906 525 
Q 2725 213 2448 61 
Q 2172 -91 1784 -91 
Q 1150 -91 751 415 
Q 353 922 353 1747 
Q 353 2572 751 3078 
Q 1150 3584 1784 3584 
Q 2172 3584 2448 3432 
Q 2725 3281 2906 2969 
z
M 947 1747 
Q 947 1113 1208 752 
Q 1469 391 1925 391 
Q 2381 391 2643 752 
Q 2906 1113 2906 1747 
Q 2906 2381 2643 2742 
Q 2381 3103 1925 3103 
Q 1469 3103 1208 2742 
Q 947 2381 947 1747 
z
" transform="scale(0.015625)"/>
      <path id="DejaVuSans-50" d="M 1259 4147 
L 1259 2394 
L 2053 2394 
Q 2494 2394 2734 2622 
Q 2975 2850 2975 3272 
Q 2975 3691 2734 3919 
Q 2494 4147 2053 4147 
L 1259 4147 
z
M 628 4666 
L 2053 4666 
Q 2838 4666 3239 4311 
Q 3641 3956 3641 3272 
Q 3641 2581 3239 2228 
Q 2838 1875 2053 1875 
L 1259 1875 
L 1259 0 
L 628 0 
L 628 4666 
z
" transform="scale(0.015625)"/>
     </defs>
     <use xlink:href="#DejaVuSans-43"/>
     <use xlink:href="#DejaVuSans-6f" x="69.824219"/>
     <use xlink:href="#DejaVuSans-6d" x="131.005859"/>
     <use xlink:href="#DejaVuSans-70" x="228.417969"/>
     <use xlink:href="#DejaVuSans-61" x="291.894531"/>
     <use xlink:href="#DejaVuSans-72" x="353.173828"/>
     <use xlink:href="#DejaVuSans-69" x="394.287109"/>
     <use xlink:href="#DejaVuSans-73" x="422.070312"/>
     <use xlink:href="#DejaVuSans-6f" x="474.169922"/>
     <use xlink:href="#DejaVuSans-6e" x="535.351562"/>
     <use xlink:href="#DejaVuSans-20" x="598.730469"/>
     <use xlink:href="#DejaVuSans-6f" x="630.517578"/>
     <use xlink:href="#DejaVuSans-66" x="691.699219"/>
     <use xlink:href="#DejaVuSans-20" x="726.904297"/>
     <use xlink:href="#DejaVuSans-68" x="758.691406"/>
     <use xlink:href="#DejaVuSans-69" x="822.070312"/>
     <use xlink:href="#DejaVuSans-73" x="849.853516"/>
     <use xlink:href="#DejaVuSans-74" x="901.953125"/>
     <use xlink:href="#DejaVuSans-6f" x="941.162109"/>
     <use xlink:href="#DejaVuSans-72" x="1002.34375"/>
     <use xlink:href="#DejaVuSans-69" x="1043.457031"/>
     <use xlink:href="#DejaVuSans-63" x="1071.240234"/>
     <use xlink:href="#DejaVuSans-61" x="1126.220703"/>
     <use xlink:href="#DejaVuSans-6c" x="1187.5"/>
     <use xlink:href="#DejaVuSans-20" x="1215.283203"/>
     <use xlink:href="#DejaVuSans-6d" x="1247.070312"/>
     <use xlink:href="#DejaVuSans-6f" x="1344.482422"/>
     <use xlink:href="#DejaVuSans-6e" x="1405.664062"/>
     <use xlink:href="#DejaVuSans-74" x="1469.042969"/>
     <use xlink:href="#DejaVuSans-68" x="1508.251953"/>
     <use xlink:href="#DejaVuSans-6c" x="1571.630859"/>
     <use xlink:href="#DejaVuSans-79" x="1599.414062"/>
     <use xlink:href="#DejaVuSans-20" x="1658.59375"/>
     <use xlink:href="#DejaVuSans-64" x="1690.380859"/>
     <use xlink:href="#DejaVuSans-61" x="1753.857422"/>
     <use xlink:href="#DejaVuSans-74" x="1815.136719"/>
     <use xlink:href="#DejaVuSans-61" x="1854.345703"/>
     <use xlink:href="#DejaVuSans-20" x="1915.625"/>
     <use xlink:href="#DejaVuSans-74" x="1947.412109"/>
     <use xlink:href="#DejaVuSans-6f" x="1986.621094"/>
     <use xlink:href="#DejaVuSans-20" x="2047.802734"/>
     <use xlink:href="#DejaVuSans-74" x="2079.589844"/>
     <use xlink:href="#DejaVuSans-72" x="2118.798828"/>
     <use xlink:href="#DejaVuSans-65" x="2157.662109"/>
     <use xlink:href="#DejaVuSans-6e" x="2219.185547"/>
     <use xlink:href="#DejaVuSans-64" x="2282.564453"/>
     <use xlink:href="#DejaVuSans-20" x="2346.041016"/>
     <use xlink:href="#DejaVuSans-70" x="2377.828125"/>
     <use xlink:href="#DejaVuSans-72" x="2441.304688"/>
     <use xlink:href="#DejaVuSans-65" x="2480.167969"/>
     <use xlink:href="#DejaVuSans-64" x="2541.691406"/>
     <use xlink:href="#DejaVuSans-69" x="2605.167969"/>
     <use xlink:href="#DejaVuSans-63" x="2632.951172"/>
     <use xlink:href="#DejaVuSans-74" x="2687.931641"/>
     <use xlink:href="#DejaVuSans-69" x="2727.140625"/>
     <use xlink:href="#DejaVuSans-6f" x="2754.923828"/>
     <use xlink:href="#DejaVuSans-6e" x="2816.105469"/>
     <use xlink:href="#DejaVuSans-20" x="2879.484375"/>
     <use xlink:href="#DejaVuSans-66" x="2911.271484"/>
     <use xlink:href="#DejaVuSans-6f" x="2946.476562"/>
     <use xlink:href="#DejaVuSans-72" x="3007.658203"/>
     <use xlink:href="#DejaVuSans-20" x="3048.771484"/>
     <use xlink:href="#DejaVuSans-43" x="3080.558594"/>
     <use xlink:href="#DejaVuSans-4f" x="3150.382812"/>
     <use xlink:href="#DejaVuSans-20" x="3229.09375"/>
     <use xlink:href="#DejaVuSans-69" x="3260.880859"/>
     <use xlink:href="#DejaVuSans-6e" x="3288.664062"/>
     <use xlink:href="#DejaVuSans-20" x="3352.042969"/>
     <use xlink:href="#DejaVuSans-50" x="3383.830078"/>
     <use xlink:href="#DejaVuSans-6f" x="3440.507812"/>
     <use xlink:href="#DejaVuSans-6c" x="3501.689453"/>
     <use xlink:href="#DejaVuSans-61" x="3529.472656"/>
     <use xlink:href="#DejaVuSans-6e" x="3590.751953"/>
     <use xlink:href="#DejaVuSans-64" x="3654.130859"/>
    </g>
   </g>
   <g id="legend_1">
    <g id="line2d_29">
     <path d="M 538.482813 28.216563 
L 548.482813 28.216563 
L 558.482813 28.216563 
" style="fill: none; stroke: #18c0c4; stroke-width: 1.5; stroke-linecap: round"/>
    </g>
    <g id="text_8">
     <!-- Historical data -->
     <g style="fill: #e6e6e6" transform="translate(566.482813 31.716563)scale(0.1 -0.1)">
      <defs>
       <path id="DejaVuSans-48" d="M 628 4666 
L 1259 4666 
L 1259 2753 
L 3553 2753 
L 3553 4666 
L 4184 4666 
L 4184 0 
L 3553 0 
L 3553 2222 
L 1259 2222 
L 1259 0 
L 628 0 
L 628 4666 
z
" transform="scale(0.015625)"/>
      </defs>
      <use xlink:href="#DejaVuSans-48"/>
      <use xlink:href="#DejaVuSans-69" x="75.195312"/>
      <use xlink:href="#DejaVuSans-73" x="102.978516"/>
      <use xlink:href="#DejaVuSans-74" x="155.078125"/>
      <use xlink:href="#DejaVuSans-6f" x="194.287109"/>
      <use xlink:href="#DejaVuSans-72" x="255.46875"/>
      <use xlink:href="#DejaVuSans-69" x="296.582031"/>
      <use xlink:href="#DejaVuSans-63" x="324.365234"/>
      <use xlink:href="#DejaVuSans-61" x="379.345703"/>
      <use xlink:href="#DejaVuSans-6c" x="440.625"/>
      <use xlink:href="#DejaVuSans-20" x="468.408203"/>
      <use xlink:href="#DejaVuSans-64" x="500.195312"/>
      <use xlink:href="#DejaVuSans-61" x="563.671875"/>
      <use xlink:href="#DejaVuSans-74" x="624.951172"/>
      <use xlink:href="#DejaVuSans-61" x="664.160156"/>
     </g>
    </g>
    <g id="line2d_30">
     <path d="M 538.482813 42.894688 
L 548.482813 42.894688 
L 558.482813 42.894688 
" style="fill: none; stroke-dasharray: 5.55,2.4; stroke-dashoffset: 0; stroke: #f62196; stroke-width: 1.5"/>
    </g>
    <g id="text_9">
     <!-- 2020 and 2021 predictions -->
     <g style="fill: #e6e6e6" transform="translate(566.482813 46.394688)scale(0.1 -0.1)">
      <defs>
       <path id="DejaVuSans-32" d="M 1228 531 
L 3431 531 
L 3431 0 
L 469 0 
L 469 531 
Q 828 903 1448 1529 
Q 2069 2156 2228 2338 
Q 2531 2678 2651 2914 
Q 2772 3150 2772 3378 
Q 2772 3750 2511 3984 
Q 2250 4219 1831 4219 
Q 1534 4219 1204 4116 
Q 875 4013 500 3803 
L 500 4441 
Q 881 4594 1212 4672 
Q 1544 4750 1819 4750 
Q 2544 4750 2975 4387 
Q 3406 4025 3406 3419 
Q 3406 3131 3298 2873 
Q 3191 2616 2906 2266 
Q 2828 2175 2409 1742 
Q 1991 1309 1228 531 
z
" transform="scale(0.015625)"/>
       <path id="DejaVuSans-31" d="M 794 531 
L 1825 531 
L 1825 4091 
L 703 3866 
L 703 4441 
L 1819 4666 
L 2450 4666 
L 2450 531 
L 3481 531 
L 3481 0 
L 794 0 
L 794 531 
z
" transform="scale(0.015625)"/>
      </defs>
      <use xlink:href="#DejaVuSans-32"/>
      <use xlink:href="#DejaVuSans-30" x="63.623047"/>
      <use xlink:href="#DejaVuSans-32" x="127.246094"/>
      <use xlink:href="#DejaVuSans-30" x="190.869141"/>
      <use xlink:href="#DejaVuSans-20" x="254.492188"/>
      <use xlink:href="#DejaVuSans-61" x="286.279297"/>
      <use xlink:href="#DejaVuSans-6e" x="347.558594"/>
      <use xlink:href="#DejaVuSans-64" x="410.9375"/>
      <use xlink:href="#DejaVuSans-20" x="474.414062"/>
      <use xlink:href="#DejaVuSans-32" x="506.201172"/>
      <use xlink:href="#DejaVuSans-30" x="569.824219"/>
      <use xlink:href="#DejaVuSans-32" x="633.447266"/>
      <use xlink:href="#DejaVuSans-31" x="697.070312"/>
      <use xlink:href="#DejaVuSans-20" x="760.693359"/>
      <use xlink:href="#DejaVuSans-70" x="792.480469"/>
      <use xlink:href="#DejaVuSans-72" x="855.957031"/>
      <use xlink:href="#DejaVuSans-65" x="894.820312"/>
      <use xlink:href="#DejaVuSans-64" x="956.34375"/>
      <use xlink:href="#DejaVuSans-69" x="1019.820312"/>
      <use xlink:href="#DejaVuSans-63" x="1047.603516"/>
      <use xlink:href="#DejaVuSans-74" x="1102.583984"/>
      <use xlink:href="#DejaVuSans-69" x="1141.792969"/>
      <use xlink:href="#DejaVuSans-6f" x="1169.576172"/>
      <use xlink:href="#DejaVuSans-6e" x="1230.757812"/>
      <use xlink:href="#DejaVuSans-73" x="1294.136719"/>
     </g>
    </g>
    <g id="patch_7">
     <path d="M 538.482813 61.072812 
L 558.482813 61.072812 
L 558.482813 54.072812 
L 538.482813 54.072812 
z
" style="fill: #808080; fill-opacity: 0.2; stroke: #808080; stroke-opacity: 0.2; stroke-linejoin: miter"/>
    </g>
    <g id="text_10">
     <!-- Confidence interval -->
     <g style="fill: #e6e6e6" transform="translate(566.482813 61.072812)scale(0.1 -0.1)">
      <defs>
       <path id="DejaVuSans-76" d="M 191 3500 
L 800 3500 
L 1894 563 
L 2988 3500 
L 3597 3500 
L 2284 0 
L 1503 0 
L 191 3500 
z
" transform="scale(0.015625)"/>
      </defs>
      <use xlink:href="#DejaVuSans-43"/>
      <use xlink:href="#DejaVuSans-6f" x="69.824219"/>
      <use xlink:href="#DejaVuSans-6e" x="131.005859"/>
      <use xlink:href="#DejaVuSans-66" x="194.384766"/>
      <use xlink:href="#DejaVuSans-69" x="229.589844"/>
      <use xlink:href="#DejaVuSans-64" x="257.373047"/>
      <use xlink:href="#DejaVuSans-65" x="320.849609"/>
      <use xlink:href="#DejaVuSans-6e" x="382.373047"/>
      <use xlink:href="#DejaVuSans-63" x="445.751953"/>
      <use xlink:href="#DejaVuSans-65" x="500.732422"/>
      <use xlink:href="#DejaVuSans-20" x="562.255859"/>
      <use xlink:href="#DejaVuSans-69" x="594.042969"/>
      <use xlink:href="#DejaVuSans-6e" x="621.826172"/>
      <use xlink:href="#DejaVuSans-74" x="685.205078"/>
      <use xlink:href="#DejaVuSans-65" x="724.414062"/>
      <use xlink:href="#DejaVuSans-72" x="785.9375"/>
      <use xlink:href="#DejaVuSans-76" x="827.050781"/>
      <use xlink:href="#DejaVuSans-61" x="886.230469"/>
      <use xlink:href="#DejaVuSans-6c" x="947.509766"/>
     </g>
    </g>
   </g>
  </g>
  <g id="axes_2">
   <g id="patch_8">
    <path d="M 40.507812 331.685184 
L 710.107813 331.685184 
L 710.107813 187.791066 
L 40.507812 187.791066 
z
" style="fill: #212946"/>
   </g>
   <g id="line2d_31">
    <path d="M 40.507812 214.264087 
L 710.107813 214.264087 
" clip-path="url(#p97c98ecde9)" style="fill: none; stroke: #1f77b4; stroke-width: 1.5; stroke-linecap: round"/>
   </g>
   <g id="matplotlib.axis_3">
    <g id="xtick_9">
     <g id="line2d_32">
      <path d="M 70.944176 331.685184 
L 70.944176 187.791066 
" clip-path="url(#p97c98ecde9)" style="fill: none; stroke: #2a3459; stroke-width: 0.8; stroke-linecap: round"/>
     </g>
     <g id="line2d_33"/>
    </g>
    <g id="xtick_10">
     <g id="line2d_34">
      <path d="M 150.343386 331.685184 
L 150.343386 187.791066 
" clip-path="url(#p97c98ecde9)" style="fill: none; stroke: #2a3459; stroke-width: 0.8; stroke-linecap: round"/>
     </g>
     <g id="line2d_35"/>
    </g>
    <g id="xtick_11">
     <g id="line2d_36">
      <path d="M 229.742595 331.685184 
L 229.742595 187.791066 
" clip-path="url(#p97c98ecde9)" style="fill: none; stroke: #2a3459; stroke-width: 0.8; stroke-linecap: round"/>
     </g>
     <g id="line2d_37"/>
    </g>
    <g id="xtick_12">
     <g id="line2d_38">
      <path d="M 309.141805 331.685184 
L 309.141805 187.791066 
" clip-path="url(#p97c98ecde9)" style="fill: none; stroke: #2a3459; stroke-width: 0.8; stroke-linecap: round"/>
     </g>
     <g id="line2d_39"/>
    </g>
    <g id="xtick_13">
     <g id="line2d_40">
      <path d="M 388.541014 331.685184 
L 388.541014 187.791066 
" clip-path="url(#p97c98ecde9)" style="fill: none; stroke: #2a3459; stroke-width: 0.8; stroke-linecap: round"/>
     </g>
     <g id="line2d_41"/>
    </g>
    <g id="xtick_14">
     <g id="line2d_42">
      <path d="M 467.940224 331.685184 
L 467.940224 187.791066 
" clip-path="url(#p97c98ecde9)" style="fill: none; stroke: #2a3459; stroke-width: 0.8; stroke-linecap: round"/>
     </g>
     <g id="line2d_43"/>
    </g>
    <g id="xtick_15">
     <g id="line2d_44">
      <path d="M 547.339433 331.685184 
L 547.339433 187.791066 
" clip-path="url(#p97c98ecde9)" style="fill: none; stroke: #2a3459; stroke-width: 0.8; stroke-linecap: round"/>
     </g>
     <g id="line2d_45"/>
    </g>
    <g id="xtick_16">
     <g id="line2d_46">
      <path d="M 626.738643 331.685184 
L 626.738643 187.791066 
" clip-path="url(#p97c98ecde9)" style="fill: none; stroke: #2a3459; stroke-width: 0.8; stroke-linecap: round"/>
     </g>
     <g id="line2d_47"/>
    </g>
   </g>
   <g id="matplotlib.axis_4">
    <g id="ytick_6">
     <g id="line2d_48">
      <path d="M 40.507812 325.011126 
L 710.107813 325.011126 
" clip-path="url(#p97c98ecde9)" style="fill: none; stroke: #2a3459; stroke-width: 0.8; stroke-linecap: round"/>
     </g>
     <g id="line2d_49"/>
     <g id="text_11">
      <!-- −0.015 -->
      <g style="fill: #e6e6e6" transform="translate(0 328.810345)scale(0.1 -0.1)">
       <defs>
        <path id="DejaVuSans-2212" d="M 678 2272 
L 4684 2272 
L 4684 1741 
L 678 1741 
L 678 2272 
z
" transform="scale(0.015625)"/>
        <path id="DejaVuSans-2e" d="M 684 794 
L 1344 794 
L 1344 0 
L 684 0 
L 684 794 
z
" transform="scale(0.015625)"/>
       </defs>
       <use xlink:href="#DejaVuSans-2212"/>
       <use xlink:href="#DejaVuSans-30" x="83.789062"/>
       <use xlink:href="#DejaVuSans-2e" x="147.412109"/>
       <use xlink:href="#DejaVuSans-30" x="179.199219"/>
       <use xlink:href="#DejaVuSans-31" x="242.822266"/>
       <use xlink:href="#DejaVuSans-35" x="306.445312"/>
      </g>
     </g>
    </g>
    <g id="ytick_7">
     <g id="line2d_50">
      <path d="M 40.507812 288.095447 
L 710.107813 288.095447 
" clip-path="url(#p97c98ecde9)" style="fill: none; stroke: #2a3459; stroke-width: 0.8; stroke-linecap: round"/>
     </g>
     <g id="line2d_51"/>
     <g id="text_12">
      <!-- −0.010 -->
      <g style="fill: #e6e6e6" transform="translate(0 291.894665)scale(0.1 -0.1)">
       <use xlink:href="#DejaVuSans-2212"/>
       <use xlink:href="#DejaVuSans-30" x="83.789062"/>
       <use xlink:href="#DejaVuSans-2e" x="147.412109"/>
       <use xlink:href="#DejaVuSans-30" x="179.199219"/>
       <use xlink:href="#DejaVuSans-31" x="242.822266"/>
       <use xlink:href="#DejaVuSans-30" x="306.445312"/>
      </g>
     </g>
    </g>
    <g id="ytick_8">
     <g id="line2d_52">
      <path d="M 40.507812 251.179767 
L 710.107813 251.179767 
" clip-path="url(#p97c98ecde9)" style="fill: none; stroke: #2a3459; stroke-width: 0.8; stroke-linecap: round"/>
     </g>
     <g id="line2d_53"/>
     <g id="text_13">
      <!-- −0.005 -->
      <g style="fill: #e6e6e6" transform="translate(0 254.978986)scale(0.1 -0.1)">
       <use xlink:href="#DejaVuSans-2212"/>
       <use xlink:href="#DejaVuSans-30" x="83.789062"/>
       <use xlink:href="#DejaVuSans-2e" x="147.412109"/>
       <use xlink:href="#DejaVuSans-30" x="179.199219"/>
       <use xlink:href="#DejaVuSans-30" x="242.822266"/>
       <use xlink:href="#DejaVuSans-35" x="306.445312"/>
      </g>
     </g>
    </g>
    <g id="ytick_9">
     <g id="line2d_54">
      <path d="M 40.507812 214.264087 
L 710.107813 214.264087 
" clip-path="url(#p97c98ecde9)" style="fill: none; stroke: #2a3459; stroke-width: 0.8; stroke-linecap: round"/>
     </g>
     <g id="line2d_55"/>
     <g id="text_14">
      <!-- 0.000 -->
      <g style="fill: #e6e6e6" transform="translate(8.379687 218.063306)scale(0.1 -0.1)">
       <use xlink:href="#DejaVuSans-30"/>
       <use xlink:href="#DejaVuSans-2e" x="63.623047"/>
       <use xlink:href="#DejaVuSans-30" x="95.410156"/>
       <use xlink:href="#DejaVuSans-30" x="159.033203"/>
       <use xlink:href="#DejaVuSans-30" x="222.65625"/>
      </g>
     </g>
    </g>
   </g>
   <g id="line2d_56">
    <path d="M 70.944176 246.418214 
L 97.410579 325.144542 
L 123.876982 244.752604 
L 150.343386 215.805317 
L 176.809789 244.343612 
L 203.276192 223.251608 
L 229.742595 252.889035 
L 256.208998 242.704948 
L 282.675401 217.184884 
L 309.141805 248.832838 
L 335.608208 242.440347 
L 362.074611 194.331708 
L 388.541014 239.517661 
L 415.007417 205.10523 
L 441.47382 229.90003 
L 467.940224 230.513825 
L 494.406627 243.158816 
L 520.87303 202.045412 
L 547.339433 205.756015 
L 573.805836 208.511912 
L 600.272239 205.279643 
L 626.738643 228.575928 
L 653.205046 257.426279 
L 679.671449 198.017027 
" clip-path="url(#p97c98ecde9)" style="fill: none; stroke: #a267f5; stroke-width: 1.5; stroke-linecap: round"/>
   </g>
   <g id="patch_9">
    <path d="M 40.507812 331.685184 
L 40.507812 187.791066 
" style="fill: none"/>
   </g>
   <g id="patch_10">
    <path d="M 710.107813 331.685184 
L 710.107813 187.791066 
" style="fill: none"/>
   </g>
   <g id="patch_11">
    <path d="M 40.507812 331.685184 
L 710.107813 331.685184 
" style="fill: none"/>
   </g>
   <g id="patch_12">
    <path d="M 40.507812 187.791066 
L 710.107813 187.791066 
" style="fill: none"/>
   </g>
   <g id="text_15">
    <!-- Difference between measurement and predicted value -->
    <g style="fill: #e6e6e6" transform="translate(210.813125 181.791066)scale(0.12 -0.12)">
     <defs>
      <path id="DejaVuSans-44" d="M 1259 4147 
L 1259 519 
L 2022 519 
Q 2988 519 3436 956 
Q 3884 1394 3884 2338 
Q 3884 3275 3436 3711 
Q 2988 4147 2022 4147 
L 1259 4147 
z
M 628 4666 
L 1925 4666 
Q 3281 4666 3915 4102 
Q 4550 3538 4550 2338 
Q 4550 1131 3912 565 
Q 3275 0 1925 0 
L 628 0 
L 628 4666 
z
" transform="scale(0.015625)"/>
      <path id="DejaVuSans-62" d="M 3116 1747 
Q 3116 2381 2855 2742 
Q 2594 3103 2138 3103 
Q 1681 3103 1420 2742 
Q 1159 2381 1159 1747 
Q 1159 1113 1420 752 
Q 1681 391 2138 391 
Q 2594 391 2855 752 
Q 3116 1113 3116 1747 
z
M 1159 2969 
Q 1341 3281 1617 3432 
Q 1894 3584 2278 3584 
Q 2916 3584 3314 3078 
Q 3713 2572 3713 1747 
Q 3713 922 3314 415 
Q 2916 -91 2278 -91 
Q 1894 -91 1617 61 
Q 1341 213 1159 525 
L 1159 0 
L 581 0 
L 581 4863 
L 1159 4863 
L 1159 2969 
z
" transform="scale(0.015625)"/>
      <path id="DejaVuSans-77" d="M 269 3500 
L 844 3500 
L 1563 769 
L 2278 3500 
L 2956 3500 
L 3675 769 
L 4391 3500 
L 4966 3500 
L 4050 0 
L 3372 0 
L 2619 2869 
L 1863 0 
L 1184 0 
L 269 3500 
z
" transform="scale(0.015625)"/>
      <path id="DejaVuSans-75" d="M 544 1381 
L 544 3500 
L 1119 3500 
L 1119 1403 
Q 1119 906 1312 657 
Q 1506 409 1894 409 
Q 2359 409 2629 706 
Q 2900 1003 2900 1516 
L 2900 3500 
L 3475 3500 
L 3475 0 
L 2900 0 
L 2900 538 
Q 2691 219 2414 64 
Q 2138 -91 1772 -91 
Q 1169 -91 856 284 
Q 544 659 544 1381 
z
M 1991 3584 
L 1991 3584 
z
" transform="scale(0.015625)"/>
     </defs>
     <use xlink:href="#DejaVuSans-44"/>
     <use xlink:href="#DejaVuSans-69" x="77.001953"/>
     <use xlink:href="#DejaVuSans-66" x="104.785156"/>
     <use xlink:href="#DejaVuSans-66" x="139.990234"/>
     <use xlink:href="#DejaVuSans-65" x="175.195312"/>
     <use xlink:href="#DejaVuSans-72" x="236.71875"/>
     <use xlink:href="#DejaVuSans-65" x="275.582031"/>
     <use xlink:href="#DejaVuSans-6e" x="337.105469"/>
     <use xlink:href="#DejaVuSans-63" x="400.484375"/>
     <use xlink:href="#DejaVuSans-65" x="455.464844"/>
     <use xlink:href="#DejaVuSans-20" x="516.988281"/>
     <use xlink:href="#DejaVuSans-62" x="548.775391"/>
     <use xlink:href="#DejaVuSans-65" x="612.251953"/>
     <use xlink:href="#DejaVuSans-74" x="673.775391"/>
     <use xlink:href="#DejaVuSans-77" x="712.984375"/>
     <use xlink:href="#DejaVuSans-65" x="794.771484"/>
     <use xlink:href="#DejaVuSans-65" x="856.294922"/>
     <use xlink:href="#DejaVuSans-6e" x="917.818359"/>
     <use xlink:href="#DejaVuSans-20" x="981.197266"/>
     <use xlink:href="#DejaVuSans-6d" x="1012.984375"/>
     <use xlink:href="#DejaVuSans-65" x="1110.396484"/>
     <use xlink:href="#DejaVuSans-61" x="1171.919922"/>
     <use xlink:href="#DejaVuSans-73" x="1233.199219"/>
     <use xlink:href="#DejaVuSans-75" x="1285.298828"/>
     <use xlink:href="#DejaVuSans-72" x="1348.677734"/>
     <use xlink:href="#DejaVuSans-65" x="1387.541016"/>
     <use xlink:href="#DejaVuSans-6d" x="1449.064453"/>
     <use xlink:href="#DejaVuSans-65" x="1546.476562"/>
     <use xlink:href="#DejaVuSans-6e" x="1608"/>
     <use xlink:href="#DejaVuSans-74" x="1671.378906"/>
     <use xlink:href="#DejaVuSans-20" x="1710.587891"/>
     <use xlink:href="#DejaVuSans-61" x="1742.375"/>
     <use xlink:href="#DejaVuSans-6e" x="1803.654297"/>
     <use xlink:href="#DejaVuSans-64" x="1867.033203"/>
     <use xlink:href="#DejaVuSans-20" x="1930.509766"/>
     <use xlink:href="#DejaVuSans-70" x="1962.296875"/>
     <use xlink:href="#DejaVuSans-72" x="2025.773438"/>
     <use xlink:href="#DejaVuSans-65" x="2064.636719"/>
     <use xlink:href="#DejaVuSans-64" x="2126.160156"/>
     <use xlink:href="#DejaVuSans-69" x="2189.636719"/>
     <use xlink:href="#DejaVuSans-63" x="2217.419922"/>
     <use xlink:href="#DejaVuSans-74" x="2272.400391"/>
     <use xlink:href="#DejaVuSans-65" x="2311.609375"/>
     <use xlink:href="#DejaVuSans-64" x="2373.132812"/>
     <use xlink:href="#DejaVuSans-20" x="2436.609375"/>
     <use xlink:href="#DejaVuSans-76" x="2468.396484"/>
     <use xlink:href="#DejaVuSans-61" x="2527.576172"/>
     <use xlink:href="#DejaVuSans-6c" x="2588.855469"/>
     <use xlink:href="#DejaVuSans-75" x="2616.638672"/>
     <use xlink:href="#DejaVuSans-65" x="2680.017578"/>
    </g>
   </g>
   <g id="legend_2">
    <g id="line2d_57">
     <path d="M 49.507812 200.889504 
L 59.507812 200.889504 
L 69.507812 200.889504 
" style="fill: none; stroke: #a267f5; stroke-width: 1.5; stroke-linecap: round"/>
    </g>
    <g id="text_16">
     <!-- Difference value -->
     <g style="fill: #e6e6e6" transform="translate(77.507812 204.389504)scale(0.1 -0.1)">
      <use xlink:href="#DejaVuSans-44"/>
      <use xlink:href="#DejaVuSans-69" x="77.001953"/>
      <use xlink:href="#DejaVuSans-66" x="104.785156"/>
      <use xlink:href="#DejaVuSans-66" x="139.990234"/>
      <use xlink:href="#DejaVuSans-65" x="175.195312"/>
      <use xlink:href="#DejaVuSans-72" x="236.71875"/>
      <use xlink:href="#DejaVuSans-65" x="275.582031"/>
      <use xlink:href="#DejaVuSans-6e" x="337.105469"/>
      <use xlink:href="#DejaVuSans-63" x="400.484375"/>
      <use xlink:href="#DejaVuSans-65" x="455.464844"/>
      <use xlink:href="#DejaVuSans-20" x="516.988281"/>
      <use xlink:href="#DejaVuSans-76" x="548.775391"/>
      <use xlink:href="#DejaVuSans-61" x="607.955078"/>
      <use xlink:href="#DejaVuSans-6c" x="669.234375"/>
      <use xlink:href="#DejaVuSans-75" x="697.017578"/>
      <use xlink:href="#DejaVuSans-65" x="760.396484"/>
     </g>
    </g>
   </g>
  </g>
  <g id="axes_3">
   <g id="patch_13">
    <path d="M 40.507812 504.358125 
L 710.107813 504.358125 
L 710.107813 360.464007 
L 40.507812 360.464007 
z
" style="fill: #212946"/>
   </g>
   <g id="line2d_58">
    <path d="M 40.507812 443.637919 
L 710.107813 443.637919 
" clip-path="url(#pc3f0a0d01d)" style="fill: none; stroke: #1f77b4; stroke-width: 1.5; stroke-linecap: round"/>
   </g>
   <g id="matplotlib.axis_5">
    <g id="xtick_17">
     <g id="line2d_59">
      <path d="M 70.944176 504.358125 
L 70.944176 360.464007 
" clip-path="url(#pc3f0a0d01d)" style="fill: none; stroke: #2a3459; stroke-width: 0.8; stroke-linecap: round"/>
     </g>
     <g id="line2d_60"/>
     <g id="text_17">
      <!-- 2020 Jan -->
      <g style="fill: #e6e6e6" transform="translate(48.922301 515.456562)scale(0.1 -0.1)">
       <defs>
        <path id="DejaVuSans-4a" d="M 628 4666 
L 1259 4666 
L 1259 325 
Q 1259 -519 939 -900 
Q 619 -1281 -91 -1281 
L -331 -1281 
L -331 -750 
L -134 -750 
Q 284 -750 456 -515 
Q 628 -281 628 325 
L 628 4666 
z
" transform="scale(0.015625)"/>
       </defs>
       <use xlink:href="#DejaVuSans-32"/>
       <use xlink:href="#DejaVuSans-30" x="63.623047"/>
       <use xlink:href="#DejaVuSans-32" x="127.246094"/>
       <use xlink:href="#DejaVuSans-30" x="190.869141"/>
       <use xlink:href="#DejaVuSans-20" x="254.492188"/>
       <use xlink:href="#DejaVuSans-4a" x="286.279297"/>
       <use xlink:href="#DejaVuSans-61" x="315.771484"/>
       <use xlink:href="#DejaVuSans-6e" x="377.050781"/>
      </g>
     </g>
    </g>
    <g id="xtick_18">
     <g id="line2d_61">
      <path d="M 150.343386 504.358125 
L 150.343386 360.464007 
" clip-path="url(#pc3f0a0d01d)" style="fill: none; stroke: #2a3459; stroke-width: 0.8; stroke-linecap: round"/>
     </g>
     <g id="line2d_62"/>
     <g id="text_18">
      <!-- Apr -->
      <g style="fill: #e6e6e6" transform="translate(141.693386 515.456562)scale(0.1 -0.1)">
       <defs>
        <path id="DejaVuSans-41" d="M 2188 4044 
L 1331 1722 
L 3047 1722 
L 2188 4044 
z
M 1831 4666 
L 2547 4666 
L 4325 0 
L 3669 0 
L 3244 1197 
L 1141 1197 
L 716 0 
L 50 0 
L 1831 4666 
z
" transform="scale(0.015625)"/>
       </defs>
       <use xlink:href="#DejaVuSans-41"/>
       <use xlink:href="#DejaVuSans-70" x="68.408203"/>
       <use xlink:href="#DejaVuSans-72" x="131.884766"/>
      </g>
     </g>
    </g>
    <g id="xtick_19">
     <g id="line2d_63">
      <path d="M 229.742595 504.358125 
L 229.742595 360.464007 
" clip-path="url(#pc3f0a0d01d)" style="fill: none; stroke: #2a3459; stroke-width: 0.8; stroke-linecap: round"/>
     </g>
     <g id="line2d_64"/>
     <g id="text_19">
      <!-- Jul -->
      <g style="fill: #e6e6e6" transform="translate(223.709783 515.456562)scale(0.1 -0.1)">
       <use xlink:href="#DejaVuSans-4a"/>
       <use xlink:href="#DejaVuSans-75" x="29.492188"/>
       <use xlink:href="#DejaVuSans-6c" x="92.871094"/>
      </g>
     </g>
    </g>
    <g id="xtick_20">
     <g id="line2d_65">
      <path d="M 309.141805 504.358125 
L 309.141805 360.464007 
" clip-path="url(#pc3f0a0d01d)" style="fill: none; stroke: #2a3459; stroke-width: 0.8; stroke-linecap: round"/>
     </g>
     <g id="line2d_66"/>
     <g id="text_20">
      <!-- Oct -->
      <g style="fill: #e6e6e6" transform="translate(300.496492 515.456562)scale(0.1 -0.1)">
       <use xlink:href="#DejaVuSans-4f"/>
       <use xlink:href="#DejaVuSans-63" x="78.710938"/>
       <use xlink:href="#DejaVuSans-74" x="133.691406"/>
      </g>
     </g>
    </g>
    <g id="xtick_21">
     <g id="line2d_67">
      <path d="M 388.541014 504.358125 
L 388.541014 360.464007 
" clip-path="url(#pc3f0a0d01d)" style="fill: none; stroke: #2a3459; stroke-width: 0.8; stroke-linecap: round"/>
     </g>
     <g id="line2d_68"/>
     <g id="text_21">
      <!-- 2021 Jan -->
      <g style="fill: #e6e6e6" transform="translate(366.519139 515.456562)scale(0.1 -0.1)">
       <use xlink:href="#DejaVuSans-32"/>
       <use xlink:href="#DejaVuSans-30" x="63.623047"/>
       <use xlink:href="#DejaVuSans-32" x="127.246094"/>
       <use xlink:href="#DejaVuSans-31" x="190.869141"/>
       <use xlink:href="#DejaVuSans-20" x="254.492188"/>
       <use xlink:href="#DejaVuSans-4a" x="286.279297"/>
       <use xlink:href="#DejaVuSans-61" x="315.771484"/>
       <use xlink:href="#DejaVuSans-6e" x="377.050781"/>
      </g>
     </g>
    </g>
    <g id="xtick_22">
     <g id="line2d_69">
      <path d="M 467.940224 504.358125 
L 467.940224 360.464007 
" clip-path="url(#pc3f0a0d01d)" style="fill: none; stroke: #2a3459; stroke-width: 0.8; stroke-linecap: round"/>
     </g>
     <g id="line2d_70"/>
     <g id="text_22">
      <!-- Apr -->
      <g style="fill: #e6e6e6" transform="translate(459.290224 515.456562)scale(0.1 -0.1)">
       <use xlink:href="#DejaVuSans-41"/>
       <use xlink:href="#DejaVuSans-70" x="68.408203"/>
       <use xlink:href="#DejaVuSans-72" x="131.884766"/>
      </g>
     </g>
    </g>
    <g id="xtick_23">
     <g id="line2d_71">
      <path d="M 547.339433 504.358125 
L 547.339433 360.464007 
" clip-path="url(#pc3f0a0d01d)" style="fill: none; stroke: #2a3459; stroke-width: 0.8; stroke-linecap: round"/>
     </g>
     <g id="line2d_72"/>
     <g id="text_23">
      <!-- Jul -->
      <g style="fill: #e6e6e6" transform="translate(541.306621 515.456562)scale(0.1 -0.1)">
       <use xlink:href="#DejaVuSans-4a"/>
       <use xlink:href="#DejaVuSans-75" x="29.492188"/>
       <use xlink:href="#DejaVuSans-6c" x="92.871094"/>
      </g>
     </g>
    </g>
    <g id="xtick_24">
     <g id="line2d_73">
      <path d="M 626.738643 504.358125 
L 626.738643 360.464007 
" clip-path="url(#pc3f0a0d01d)" style="fill: none; stroke: #2a3459; stroke-width: 0.8; stroke-linecap: round"/>
     </g>
     <g id="line2d_74"/>
     <g id="text_24">
      <!-- Oct -->
      <g style="fill: #e6e6e6" transform="translate(618.09333 515.456562)scale(0.1 -0.1)">
       <use xlink:href="#DejaVuSans-4f"/>
       <use xlink:href="#DejaVuSans-63" x="78.710938"/>
       <use xlink:href="#DejaVuSans-74" x="133.691406"/>
      </g>
     </g>
    </g>
    <g id="text_25">
     <!-- Time -->
     <g style="fill: #e6e6e6" transform="translate(363.074219 529.134687)scale(0.1 -0.1)">
      <defs>
       <path id="DejaVuSans-54" d="M -19 4666 
L 3928 4666 
L 3928 4134 
L 2272 4134 
L 2272 0 
L 1638 0 
L 1638 4134 
L -19 4134 
L -19 4666 
z
" transform="scale(0.015625)"/>
      </defs>
      <use xlink:href="#DejaVuSans-54"/>
      <use xlink:href="#DejaVuSans-69" x="57.958984"/>
      <use xlink:href="#DejaVuSans-6d" x="85.742188"/>
      <use xlink:href="#DejaVuSans-65" x="183.154297"/>
     </g>
    </g>
   </g>
   <g id="matplotlib.axis_6">
    <g id="ytick_10">
     <g id="line2d_75">
      <path d="M 40.507812 482.889371 
L 710.107813 482.889371 
" clip-path="url(#pc3f0a0d01d)" style="fill: none; stroke: #2a3459; stroke-width: 0.8; stroke-linecap: round"/>
     </g>
     <g id="line2d_76"/>
     <g id="text_26">
      <!-- −50 -->
      <g style="fill: #e6e6e6" transform="translate(15.903125 486.68859)scale(0.1 -0.1)">
       <use xlink:href="#DejaVuSans-2212"/>
       <use xlink:href="#DejaVuSans-35" x="83.789062"/>
       <use xlink:href="#DejaVuSans-30" x="147.412109"/>
      </g>
     </g>
    </g>
    <g id="ytick_11">
     <g id="line2d_77">
      <path d="M 40.507812 443.637919 
L 710.107813 443.637919 
" clip-path="url(#pc3f0a0d01d)" style="fill: none; stroke: #2a3459; stroke-width: 0.8; stroke-linecap: round"/>
     </g>
     <g id="line2d_78"/>
     <g id="text_27">
      <!-- 0 -->
      <g style="fill: #e6e6e6" transform="translate(30.645312 447.437137)scale(0.1 -0.1)">
       <use xlink:href="#DejaVuSans-30"/>
      </g>
     </g>
    </g>
    <g id="ytick_12">
     <g id="line2d_79">
      <path d="M 40.507812 404.386466 
L 710.107813 404.386466 
" clip-path="url(#pc3f0a0d01d)" style="fill: none; stroke: #2a3459; stroke-width: 0.8; stroke-linecap: round"/>
     </g>
     <g id="line2d_80"/>
     <g id="text_28">
      <!-- 50 -->
      <g style="fill: #e6e6e6" transform="translate(24.282812 408.185685)scale(0.1 -0.1)">
       <use xlink:href="#DejaVuSans-35"/>
       <use xlink:href="#DejaVuSans-30" x="63.623047"/>
      </g>
     </g>
    </g>
    <g id="ytick_13">
     <g id="line2d_81">
      <path d="M 40.507812 365.135014 
L 710.107813 365.135014 
" clip-path="url(#pc3f0a0d01d)" style="fill: none; stroke: #2a3459; stroke-width: 0.8; stroke-linecap: round"/>
     </g>
     <g id="line2d_82"/>
     <g id="text_29">
      <!-- 100 -->
      <g style="fill: #e6e6e6" transform="translate(17.920312 368.934233)scale(0.1 -0.1)">
       <use xlink:href="#DejaVuSans-31"/>
       <use xlink:href="#DejaVuSans-30" x="63.623047"/>
       <use xlink:href="#DejaVuSans-30" x="127.246094"/>
      </g>
     </g>
    </g>
    <g id="text_30">
     <!-- Mobility relative to previous time periods [%] -->
     <g style="fill: #e6e6e6" transform="translate(9.823437 545.314191)rotate(-90)scale(0.1 -0.1)">
      <defs>
       <path id="DejaVuSans-4d" d="M 628 4666 
L 1569 4666 
L 2759 1491 
L 3956 4666 
L 4897 4666 
L 4897 0 
L 4281 0 
L 4281 4097 
L 3078 897 
L 2444 897 
L 1241 4097 
L 1241 0 
L 628 0 
L 628 4666 
z
" transform="scale(0.015625)"/>
       <path id="DejaVuSans-25" d="M 4653 2053 
Q 4381 2053 4226 1822 
Q 4072 1591 4072 1178 
Q 4072 772 4226 539 
Q 4381 306 4653 306 
Q 4919 306 5073 539 
Q 5228 772 5228 1178 
Q 5228 1588 5073 1820 
Q 4919 2053 4653 2053 
z
M 4653 2450 
Q 5147 2450 5437 2106 
Q 5728 1763 5728 1178 
Q 5728 594 5436 251 
Q 5144 -91 4653 -91 
Q 4153 -91 3862 251 
Q 3572 594 3572 1178 
Q 3572 1766 3864 2108 
Q 4156 2450 4653 2450 
z
M 1428 4353 
Q 1159 4353 1004 4120 
Q 850 3888 850 3481 
Q 850 3069 1003 2837 
Q 1156 2606 1428 2606 
Q 1700 2606 1854 2837 
Q 2009 3069 2009 3481 
Q 2009 3884 1853 4118 
Q 1697 4353 1428 4353 
z
M 4250 4750 
L 4750 4750 
L 1831 -91 
L 1331 -91 
L 4250 4750 
z
M 1428 4750 
Q 1922 4750 2215 4408 
Q 2509 4066 2509 3481 
Q 2509 2891 2217 2550 
Q 1925 2209 1428 2209 
Q 931 2209 642 2551 
Q 353 2894 353 3481 
Q 353 4063 643 4406 
Q 934 4750 1428 4750 
z
" transform="scale(0.015625)"/>
      </defs>
      <use xlink:href="#DejaVuSans-4d"/>
      <use xlink:href="#DejaVuSans-6f" x="86.279297"/>
      <use xlink:href="#DejaVuSans-62" x="147.460938"/>
      <use xlink:href="#DejaVuSans-69" x="210.9375"/>
      <use xlink:href="#DejaVuSans-6c" x="238.720703"/>
      <use xlink:href="#DejaVuSans-69" x="266.503906"/>
      <use xlink:href="#DejaVuSans-74" x="294.287109"/>
      <use xlink:href="#DejaVuSans-79" x="333.496094"/>
      <use xlink:href="#DejaVuSans-20" x="392.675781"/>
      <use xlink:href="#DejaVuSans-72" x="424.462891"/>
      <use xlink:href="#DejaVuSans-65" x="463.326172"/>
      <use xlink:href="#DejaVuSans-6c" x="524.849609"/>
      <use xlink:href="#DejaVuSans-61" x="552.632812"/>
      <use xlink:href="#DejaVuSans-74" x="613.912109"/>
      <use xlink:href="#DejaVuSans-69" x="653.121094"/>
      <use xlink:href="#DejaVuSans-76" x="680.904297"/>
      <use xlink:href="#DejaVuSans-65" x="740.083984"/>
      <use xlink:href="#DejaVuSans-20" x="801.607422"/>
      <use xlink:href="#DejaVuSans-74" x="833.394531"/>
      <use xlink:href="#DejaVuSans-6f" x="872.603516"/>
      <use xlink:href="#DejaVuSans-20" x="933.785156"/>
      <use xlink:href="#DejaVuSans-70" x="965.572266"/>
      <use xlink:href="#DejaVuSans-72" x="1029.048828"/>
      <use xlink:href="#DejaVuSans-65" x="1067.912109"/>
      <use xlink:href="#DejaVuSans-76" x="1129.435547"/>
      <use xlink:href="#DejaVuSans-69" x="1188.615234"/>
      <use xlink:href="#DejaVuSans-6f" x="1216.398438"/>
      <use xlink:href="#DejaVuSans-75" x="1277.580078"/>
      <use xlink:href="#DejaVuSans-73" x="1340.958984"/>
      <use xlink:href="#DejaVuSans-20" x="1393.058594"/>
      <use xlink:href="#DejaVuSans-74" x="1424.845703"/>
      <use xlink:href="#DejaVuSans-69" x="1464.054688"/>
      <use xlink:href="#DejaVuSans-6d" x="1491.837891"/>
      <use xlink:href="#DejaVuSans-65" x="1589.25"/>
      <use xlink:href="#DejaVuSans-20" x="1650.773438"/>
      <use xlink:href="#DejaVuSans-70" x="1682.560547"/>
      <use xlink:href="#DejaVuSans-65" x="1746.037109"/>
      <use xlink:href="#DejaVuSans-72" x="1807.560547"/>
      <use xlink:href="#DejaVuSans-69" x="1848.673828"/>
      <use xlink:href="#DejaVuSans-6f" x="1876.457031"/>
      <use xlink:href="#DejaVuSans-64" x="1937.638672"/>
      <use xlink:href="#DejaVuSans-73" x="2001.115234"/>
      <use xlink:href="#DejaVuSans-20" x="2053.214844"/>
      <use xlink:href="#DejaVuSans-5b" x="2085.001953"/>
      <use xlink:href="#DejaVuSans-25" x="2124.015625"/>
      <use xlink:href="#DejaVuSans-5d" x="2219.035156"/>
     </g>
    </g>
   </g>
   <g id="line2d_83">
    <path d="M 70.944176 438.518703 
L 97.410579 434.312044 
L 123.876982 472.078255 
L 150.343386 487.106547 
L 176.809789 456.366785 
L 203.276192 423.713881 
L 229.742595 389.397983 
L 256.208998 382.549744 
L 282.675401 410.625615 
L 309.141805 441.650022 
L 335.608208 461.774183 
L 362.074611 458.02041 
L 388.541014 460.67862 
L 415.007417 451.091489 
L 441.47382 454.026892 
L 467.940224 449.722679 
L 494.406627 427.838323 
L 520.87303 406.853551 
L 547.339433 387.391853 
L 573.805836 384.503453 
L 600.272239 410.084992 
L 626.738643 413.44874 
L 653.205046 429.337044 
L 679.671449 431.495039 
" clip-path="url(#pc3f0a0d01d)" style="fill: none; stroke: #18c0c4; stroke-width: 1.5; stroke-linecap: round"/>
   </g>
   <g id="line2d_84">
    <path d="M 70.944176 438.101398 
L 97.410579 428.202623 
L 123.876982 474.846115 
L 150.343386 497.817483 
L 176.809789 474.365728 
L 203.276192 444.802117 
L 229.742595 405.654161 
L 256.208998 391.378028 
L 282.675401 405.84505 
L 309.141805 436.962386 
L 335.608208 469.283771 
L 362.074611 470.627977 
L 388.541014 469.989318 
L 415.007417 459.004301 
L 441.47382 459.71582 
L 467.940224 458.419492 
L 494.406627 433.425197 
L 520.87303 406.609407 
L 547.339433 376.652403 
L 573.805836 367.004649 
L 600.272239 389.729974 
L 626.738643 378.084448 
L 653.205046 410.282558 
L 679.671449 422.986083 
" clip-path="url(#pc3f0a0d01d)" style="fill: none; stroke: #f62196; stroke-width: 1.5; stroke-linecap: round"/>
   </g>
   <g id="patch_14">
    <path d="M 40.507812 504.358125 
L 40.507812 360.464007 
" style="fill: none"/>
   </g>
   <g id="patch_15">
    <path d="M 710.107813 504.358125 
L 710.107813 360.464007 
" style="fill: none"/>
   </g>
   <g id="patch_16">
    <path d="M 40.507812 504.358125 
L 710.107813 504.358125 
" style="fill: none"/>
   </g>
   <g id="patch_17">
    <path d="M 40.507812 360.464007 
L 710.107813 360.464007 
" style="fill: none"/>
   </g>
   <g id="text_31">
    <!-- Correlation between diff and driving 0.10 -->
    <g style="fill: #18c0c4" transform="translate(494.406627 471.113935)scale(0.1 -0.1)">
     <use xlink:href="#DejaVuSans-43"/>
     <use xlink:href="#DejaVuSans-6f" x="69.824219"/>
     <use xlink:href="#DejaVuSans-72" x="131.005859"/>
     <use xlink:href="#DejaVuSans-72" x="170.369141"/>
     <use xlink:href="#DejaVuSans-65" x="209.232422"/>
     <use xlink:href="#DejaVuSans-6c" x="270.755859"/>
     <use xlink:href="#DejaVuSans-61" x="298.539062"/>
     <use xlink:href="#DejaVuSans-74" x="359.818359"/>
     <use xlink:href="#DejaVuSans-69" x="399.027344"/>
     <use xlink:href="#DejaVuSans-6f" x="426.810547"/>
     <use xlink:href="#DejaVuSans-6e" x="487.992188"/>
     <use xlink:href="#DejaVuSans-20" x="551.371094"/>
     <use xlink:href="#DejaVuSans-62" x="583.158203"/>
     <use xlink:href="#DejaVuSans-65" x="646.634766"/>
     <use xlink:href="#DejaVuSans-74" x="708.158203"/>
     <use xlink:href="#DejaVuSans-77" x="747.367188"/>
     <use xlink:href="#DejaVuSans-65" x="829.154297"/>
     <use xlink:href="#DejaVuSans-65" x="890.677734"/>
     <use xlink:href="#DejaVuSans-6e" x="952.201172"/>
     <use xlink:href="#DejaVuSans-20" x="1015.580078"/>
     <use xlink:href="#DejaVuSans-64" x="1047.367188"/>
     <use xlink:href="#DejaVuSans-69" x="1110.84375"/>
     <use xlink:href="#DejaVuSans-66" x="1138.626953"/>
     <use xlink:href="#DejaVuSans-66" x="1173.832031"/>
     <use xlink:href="#DejaVuSans-20" x="1209.037109"/>
     <use xlink:href="#DejaVuSans-61" x="1240.824219"/>
     <use xlink:href="#DejaVuSans-6e" x="1302.103516"/>
     <use xlink:href="#DejaVuSans-64" x="1365.482422"/>
     <use xlink:href="#DejaVuSans-20" x="1428.958984"/>
     <use xlink:href="#DejaVuSans-64" x="1460.746094"/>
     <use xlink:href="#DejaVuSans-72" x="1524.222656"/>
     <use xlink:href="#DejaVuSans-69" x="1565.335938"/>
     <use xlink:href="#DejaVuSans-76" x="1593.119141"/>
     <use xlink:href="#DejaVuSans-69" x="1652.298828"/>
     <use xlink:href="#DejaVuSans-6e" x="1680.082031"/>
     <use xlink:href="#DejaVuSans-67" x="1743.460938"/>
     <use xlink:href="#DejaVuSans-20" x="1806.9375"/>
     <use xlink:href="#DejaVuSans-30" x="1838.724609"/>
     <use xlink:href="#DejaVuSans-2e" x="1902.347656"/>
     <use xlink:href="#DejaVuSans-31" x="1934.134766"/>
     <use xlink:href="#DejaVuSans-30" x="1997.757812"/>
    </g>
   </g>
   <g id="text_32">
    <!-- Correlation between diff and walking 0.10 -->
    <g style="fill: #f62196" transform="translate(494.406627 482.889371)scale(0.1 -0.1)">
     <defs>
      <path id="DejaVuSans-6b" d="M 581 4863 
L 1159 4863 
L 1159 1991 
L 2875 3500 
L 3609 3500 
L 1753 1863 
L 3688 0 
L 2938 0 
L 1159 1709 
L 1159 0 
L 581 0 
L 581 4863 
z
" transform="scale(0.015625)"/>
     </defs>
     <use xlink:href="#DejaVuSans-43"/>
     <use xlink:href="#DejaVuSans-6f" x="69.824219"/>
     <use xlink:href="#DejaVuSans-72" x="131.005859"/>
     <use xlink:href="#DejaVuSans-72" x="170.369141"/>
     <use xlink:href="#DejaVuSans-65" x="209.232422"/>
     <use xlink:href="#DejaVuSans-6c" x="270.755859"/>
     <use xlink:href="#DejaVuSans-61" x="298.539062"/>
     <use xlink:href="#DejaVuSans-74" x="359.818359"/>
     <use xlink:href="#DejaVuSans-69" x="399.027344"/>
     <use xlink:href="#DejaVuSans-6f" x="426.810547"/>
     <use xlink:href="#DejaVuSans-6e" x="487.992188"/>
     <use xlink:href="#DejaVuSans-20" x="551.371094"/>
     <use xlink:href="#DejaVuSans-62" x="583.158203"/>
     <use xlink:href="#DejaVuSans-65" x="646.634766"/>
     <use xlink:href="#DejaVuSans-74" x="708.158203"/>
     <use xlink:href="#DejaVuSans-77" x="747.367188"/>
     <use xlink:href="#DejaVuSans-65" x="829.154297"/>
     <use xlink:href="#DejaVuSans-65" x="890.677734"/>
     <use xlink:href="#DejaVuSans-6e" x="952.201172"/>
     <use xlink:href="#DejaVuSans-20" x="1015.580078"/>
     <use xlink:href="#DejaVuSans-64" x="1047.367188"/>
     <use xlink:href="#DejaVuSans-69" x="1110.84375"/>
     <use xlink:href="#DejaVuSans-66" x="1138.626953"/>
     <use xlink:href="#DejaVuSans-66" x="1173.832031"/>
     <use xlink:href="#DejaVuSans-20" x="1209.037109"/>
     <use xlink:href="#DejaVuSans-61" x="1240.824219"/>
     <use xlink:href="#DejaVuSans-6e" x="1302.103516"/>
     <use xlink:href="#DejaVuSans-64" x="1365.482422"/>
     <use xlink:href="#DejaVuSans-20" x="1428.958984"/>
     <use xlink:href="#DejaVuSans-77" x="1460.746094"/>
     <use xlink:href="#DejaVuSans-61" x="1542.533203"/>
     <use xlink:href="#DejaVuSans-6c" x="1603.8125"/>
     <use xlink:href="#DejaVuSans-6b" x="1631.595703"/>
     <use xlink:href="#DejaVuSans-69" x="1689.505859"/>
     <use xlink:href="#DejaVuSans-6e" x="1717.289062"/>
     <use xlink:href="#DejaVuSans-67" x="1780.667969"/>
     <use xlink:href="#DejaVuSans-20" x="1844.144531"/>
     <use xlink:href="#DejaVuSans-30" x="1875.931641"/>
     <use xlink:href="#DejaVuSans-2e" x="1939.554688"/>
     <use xlink:href="#DejaVuSans-31" x="1971.341797"/>
     <use xlink:href="#DejaVuSans-30" x="2034.964844"/>
    </g>
   </g>
   <g id="text_33">
    <!-- Mobility of people with Apple devices in Poland -->
    <g style="fill: #e6e6e6" transform="translate(234.133438 354.464007)scale(0.12 -0.12)">
     <use xlink:href="#DejaVuSans-4d"/>
     <use xlink:href="#DejaVuSans-6f" x="86.279297"/>
     <use xlink:href="#DejaVuSans-62" x="147.460938"/>
     <use xlink:href="#DejaVuSans-69" x="210.9375"/>
     <use xlink:href="#DejaVuSans-6c" x="238.720703"/>
     <use xlink:href="#DejaVuSans-69" x="266.503906"/>
     <use xlink:href="#DejaVuSans-74" x="294.287109"/>
     <use xlink:href="#DejaVuSans-79" x="333.496094"/>
     <use xlink:href="#DejaVuSans-20" x="392.675781"/>
     <use xlink:href="#DejaVuSans-6f" x="424.462891"/>
     <use xlink:href="#DejaVuSans-66" x="485.644531"/>
     <use xlink:href="#DejaVuSans-20" x="520.849609"/>
     <use xlink:href="#DejaVuSans-70" x="552.636719"/>
     <use xlink:href="#DejaVuSans-65" x="616.113281"/>
     <use xlink:href="#DejaVuSans-6f" x="677.636719"/>
     <use xlink:href="#DejaVuSans-70" x="738.818359"/>
     <use xlink:href="#DejaVuSans-6c" x="802.294922"/>
     <use xlink:href="#DejaVuSans-65" x="830.078125"/>
     <use xlink:href="#DejaVuSans-20" x="891.601562"/>
     <use xlink:href="#DejaVuSans-77" x="923.388672"/>
     <use xlink:href="#DejaVuSans-69" x="1005.175781"/>
     <use xlink:href="#DejaVuSans-74" x="1032.958984"/>
     <use xlink:href="#DejaVuSans-68" x="1072.167969"/>
     <use xlink:href="#DejaVuSans-20" x="1135.546875"/>
     <use xlink:href="#DejaVuSans-41" x="1167.333984"/>
     <use xlink:href="#DejaVuSans-70" x="1235.742188"/>
     <use xlink:href="#DejaVuSans-70" x="1299.21875"/>
     <use xlink:href="#DejaVuSans-6c" x="1362.695312"/>
     <use xlink:href="#DejaVuSans-65" x="1390.478516"/>
     <use xlink:href="#DejaVuSans-20" x="1452.001953"/>
     <use xlink:href="#DejaVuSans-64" x="1483.789062"/>
     <use xlink:href="#DejaVuSans-65" x="1547.265625"/>
     <use xlink:href="#DejaVuSans-76" x="1608.789062"/>
     <use xlink:href="#DejaVuSans-69" x="1667.96875"/>
     <use xlink:href="#DejaVuSans-63" x="1695.751953"/>
     <use xlink:href="#DejaVuSans-65" x="1750.732422"/>
     <use xlink:href="#DejaVuSans-73" x="1812.255859"/>
     <use xlink:href="#DejaVuSans-20" x="1864.355469"/>
     <use xlink:href="#DejaVuSans-69" x="1896.142578"/>
     <use xlink:href="#DejaVuSans-6e" x="1923.925781"/>
     <use xlink:href="#DejaVuSans-20" x="1987.304688"/>
     <use xlink:href="#DejaVuSans-50" x="2019.091797"/>
     <use xlink:href="#DejaVuSans-6f" x="2075.769531"/>
     <use xlink:href="#DejaVuSans-6c" x="2136.951172"/>
     <use xlink:href="#DejaVuSans-61" x="2164.734375"/>
     <use xlink:href="#DejaVuSans-6e" x="2226.013672"/>
     <use xlink:href="#DejaVuSans-64" x="2289.392578"/>
    </g>
   </g>
   <g id="legend_3">
    <g id="line2d_85">
     <path d="M 49.507812 373.562445 
L 59.507812 373.562445 
L 69.507812 373.562445 
" style="fill: none; stroke: #18c0c4; stroke-width: 1.5; stroke-linecap: round"/>
    </g>
    <g id="text_34">
     <!-- Driving -->
     <g style="fill: #e6e6e6" transform="translate(77.507812 377.062445)scale(0.1 -0.1)">
      <use xlink:href="#DejaVuSans-44"/>
      <use xlink:href="#DejaVuSans-72" x="77.001953"/>
      <use xlink:href="#DejaVuSans-69" x="118.115234"/>
      <use xlink:href="#DejaVuSans-76" x="145.898438"/>
      <use xlink:href="#DejaVuSans-69" x="205.078125"/>
      <use xlink:href="#DejaVuSans-6e" x="232.861328"/>
      <use xlink:href="#DejaVuSans-67" x="296.240234"/>
     </g>
    </g>
    <g id="line2d_86">
     <path d="M 49.507812 388.24057 
L 59.507812 388.24057 
L 69.507812 388.24057 
" style="fill: none; stroke: #f62196; stroke-width: 1.5; stroke-linecap: round"/>
    </g>
    <g id="text_35">
     <!-- Walking -->
     <g style="fill: #e6e6e6" transform="translate(77.507812 391.74057)scale(0.1 -0.1)">
      <defs>
       <path id="DejaVuSans-57" d="M 213 4666 
L 850 4666 
L 1831 722 
L 2809 4666 
L 3519 4666 
L 4500 722 
L 5478 4666 
L 6119 4666 
L 4947 0 
L 4153 0 
L 3169 4050 
L 2175 0 
L 1381 0 
L 213 4666 
z
" transform="scale(0.015625)"/>
      </defs>
      <use xlink:href="#DejaVuSans-57"/>
      <use xlink:href="#DejaVuSans-61" x="92.501953"/>
      <use xlink:href="#DejaVuSans-6c" x="153.78125"/>
      <use xlink:href="#DejaVuSans-6b" x="181.564453"/>
      <use xlink:href="#DejaVuSans-69" x="239.474609"/>
      <use xlink:href="#DejaVuSans-6e" x="267.257812"/>
      <use xlink:href="#DejaVuSans-67" x="330.636719"/>
     </g>
    </g>
   </g>
  </g>
 </g>
 <defs>
  <clipPath id="p46e585ca26">
   <rect x="40.507812" y="15.118125" width="669.6" height="143.894118"/>
  </clipPath>
  <clipPath id="p97c98ecde9">
   <rect x="40.507812" y="187.791066" width="669.6" height="143.894118"/>
  </clipPath>
  <clipPath id="pc3f0a0d01d">
   <rect x="40.507812" y="360.464007" width="669.6" height="143.894118"/>
  </clipPath>
 </defs>
</svg>
