<?xml version="1.0" encoding="utf-8" standalone="no"?>
<!DOCTYPE svg PUBLIC "-//W3C//DTD SVG 1.1//EN"
  "http://www.w3.org/Graphics/SVG/1.1/DTD/svg11.dtd">
<svg xmlns:xlink="http://www.w3.org/1999/xlink" width="705.865625pt" height="259.414375pt" viewBox="0 0 705.865625 259.414375" xmlns="http://www.w3.org/2000/svg" version="1.1">
 <metadata>
  <rdf:RDF xmlns:dc="http://purl.org/dc/elements/1.1/" xmlns:cc="http://creativecommons.org/ns#" xmlns:rdf="http://www.w3.org/1999/02/22-rdf-syntax-ns#">
   <cc:Work>
    <dc:type rdf:resource="http://purl.org/dc/dcmitype/StillImage"/>
    <dc:date>2022-05-08T19:35:11.554412</dc:date>
    <dc:format>image/svg+xml</dc:format>
    <dc:creator>
     <cc:Agent>
      <dc:title>Matplotlib v3.5.1, https://matplotlib.org/</dc:title>
     </cc:Agent>
    </dc:creator>
   </cc:Work>
  </rdf:RDF>
 </metadata>
 <defs>
  <style type="text/css">*{stroke-linejoin: round; stroke-linecap: butt}</style>
 </defs>
 <g id="figure_1">
  <g id="patch_1">
   <path d="M 0 259.414375 
L 705.865625 259.414375 
L 705.865625 0 
L 0 0 
z
" style="fill: #212946"/>
  </g>
  <g id="axes_1">
   <g id="patch_2">
    <path d="M 36.265625 232.558125 
L 705.865625 232.558125 
L 705.865625 15.118125 
L 36.265625 15.118125 
z
" style="fill: #212946"/>
   </g>
   <g id="matplotlib.axis_1">
    <g id="xtick_1">
     <g id="line2d_1">
      <path d="M 66.701989 232.558125 
L 66.701989 15.118125 
" clip-path="url(#pbc5fe41118)" style="fill: none; stroke: #2a3459; stroke-width: 0.8; stroke-linecap: round"/>
     </g>
     <g id="line2d_2"/>
     <g id="text_1">
      <!-- 2015 -->
      <g style="fill: #e6e6e6" transform="translate(53.976989 243.656563)scale(0.1 -0.1)">
       <defs>
        <path id="DejaVuSans-32" d="M 1228 531 
L 3431 531 
L 3431 0 
L 469 0 
L 469 531 
Q 828 903 1448 1529 
Q 2069 2156 2228 2338 
Q 2531 2678 2651 2914 
Q 2772 3150 2772 3378 
Q 2772 3750 2511 3984 
Q 2250 4219 1831 4219 
Q 1534 4219 1204 4116 
Q 875 4013 500 3803 
L 500 4441 
Q 881 4594 1212 4672 
Q 1544 4750 1819 4750 
Q 2544 4750 2975 4387 
Q 3406 4025 3406 3419 
Q 3406 3131 3298 2873 
Q 3191 2616 2906 2266 
Q 2828 2175 2409 1742 
Q 1991 1309 1228 531 
z
" transform="scale(0.015625)"/>
        <path id="DejaVuSans-30" d="M 2034 4250 
Q 1547 4250 1301 3770 
Q 1056 3291 1056 2328 
Q 1056 1369 1301 889 
Q 1547 409 2034 409 
Q 2525 409 2770 889 
Q 3016 1369 3016 2328 
Q 3016 3291 2770 3770 
Q 2525 4250 2034 4250 
z
M 2034 4750 
Q 2819 4750 3233 4129 
Q 3647 3509 3647 2328 
Q 3647 1150 3233 529 
Q 2819 -91 2034 -91 
Q 1250 -91 836 529 
Q 422 1150 422 2328 
Q 422 3509 836 4129 
Q 1250 4750 2034 4750 
z
" transform="scale(0.015625)"/>
        <path id="DejaVuSans-31" d="M 794 531 
L 1825 531 
L 1825 4091 
L 703 3866 
L 703 4441 
L 1819 4666 
L 2450 4666 
L 2450 531 
L 3481 531 
L 3481 0 
L 794 0 
L 794 531 
z
" transform="scale(0.015625)"/>
        <path id="DejaVuSans-35" d="M 691 4666 
L 3169 4666 
L 3169 4134 
L 1269 4134 
L 1269 2991 
Q 1406 3038 1543 3061 
Q 1681 3084 1819 3084 
Q 2600 3084 3056 2656 
Q 3513 2228 3513 1497 
Q 3513 744 3044 326 
Q 2575 -91 1722 -91 
Q 1428 -91 1123 -41 
Q 819 9 494 109 
L 494 744 
Q 775 591 1075 516 
Q 1375 441 1709 441 
Q 2250 441 2565 725 
Q 2881 1009 2881 1497 
Q 2881 1984 2565 2268 
Q 2250 2553 1709 2553 
Q 1456 2553 1204 2497 
Q 953 2441 691 2322 
L 691 4666 
z
" transform="scale(0.015625)"/>
       </defs>
       <use xlink:href="#DejaVuSans-32"/>
       <use xlink:href="#DejaVuSans-30" x="63.623047"/>
       <use xlink:href="#DejaVuSans-31" x="127.246094"/>
       <use xlink:href="#DejaVuSans-35" x="190.869141"/>
      </g>
     </g>
    </g>
    <g id="xtick_2">
     <g id="line2d_3">
      <path d="M 190.510925 232.558125 
L 190.510925 15.118125 
" clip-path="url(#pbc5fe41118)" style="fill: none; stroke: #2a3459; stroke-width: 0.8; stroke-linecap: round"/>
     </g>
     <g id="line2d_4"/>
     <g id="text_2">
      <!-- 2016 -->
      <g style="fill: #e6e6e6" transform="translate(177.785925 243.656563)scale(0.1 -0.1)">
       <defs>
        <path id="DejaVuSans-36" d="M 2113 2584 
Q 1688 2584 1439 2293 
Q 1191 2003 1191 1497 
Q 1191 994 1439 701 
Q 1688 409 2113 409 
Q 2538 409 2786 701 
Q 3034 994 3034 1497 
Q 3034 2003 2786 2293 
Q 2538 2584 2113 2584 
z
M 3366 4563 
L 3366 3988 
Q 3128 4100 2886 4159 
Q 2644 4219 2406 4219 
Q 1781 4219 1451 3797 
Q 1122 3375 1075 2522 
Q 1259 2794 1537 2939 
Q 1816 3084 2150 3084 
Q 2853 3084 3261 2657 
Q 3669 2231 3669 1497 
Q 3669 778 3244 343 
Q 2819 -91 2113 -91 
Q 1303 -91 875 529 
Q 447 1150 447 2328 
Q 447 3434 972 4092 
Q 1497 4750 2381 4750 
Q 2619 4750 2861 4703 
Q 3103 4656 3366 4563 
z
" transform="scale(0.015625)"/>
       </defs>
       <use xlink:href="#DejaVuSans-32"/>
       <use xlink:href="#DejaVuSans-30" x="63.623047"/>
       <use xlink:href="#DejaVuSans-31" x="127.246094"/>
       <use xlink:href="#DejaVuSans-36" x="190.869141"/>
      </g>
     </g>
    </g>
    <g id="xtick_3">
     <g id="line2d_5">
      <path d="M 314.319862 232.558125 
L 314.319862 15.118125 
" clip-path="url(#pbc5fe41118)" style="fill: none; stroke: #2a3459; stroke-width: 0.8; stroke-linecap: round"/>
     </g>
     <g id="line2d_6"/>
     <g id="text_3">
      <!-- 2017 -->
      <g style="fill: #e6e6e6" transform="translate(301.594862 243.656563)scale(0.1 -0.1)">
       <defs>
        <path id="DejaVuSans-37" d="M 525 4666 
L 3525 4666 
L 3525 4397 
L 1831 0 
L 1172 0 
L 2766 4134 
L 525 4134 
L 525 4666 
z
" transform="scale(0.015625)"/>
       </defs>
       <use xlink:href="#DejaVuSans-32"/>
       <use xlink:href="#DejaVuSans-30" x="63.623047"/>
       <use xlink:href="#DejaVuSans-31" x="127.246094"/>
       <use xlink:href="#DejaVuSans-37" x="190.869141"/>
      </g>
     </g>
    </g>
    <g id="xtick_4">
     <g id="line2d_7">
      <path d="M 438.128799 232.558125 
L 438.128799 15.118125 
" clip-path="url(#pbc5fe41118)" style="fill: none; stroke: #2a3459; stroke-width: 0.8; stroke-linecap: round"/>
     </g>
     <g id="line2d_8"/>
     <g id="text_4">
      <!-- 2018 -->
      <g style="fill: #e6e6e6" transform="translate(425.403799 243.656563)scale(0.1 -0.1)">
       <defs>
        <path id="DejaVuSans-38" d="M 2034 2216 
Q 1584 2216 1326 1975 
Q 1069 1734 1069 1313 
Q 1069 891 1326 650 
Q 1584 409 2034 409 
Q 2484 409 2743 651 
Q 3003 894 3003 1313 
Q 3003 1734 2745 1975 
Q 2488 2216 2034 2216 
z
M 1403 2484 
Q 997 2584 770 2862 
Q 544 3141 544 3541 
Q 544 4100 942 4425 
Q 1341 4750 2034 4750 
Q 2731 4750 3128 4425 
Q 3525 4100 3525 3541 
Q 3525 3141 3298 2862 
Q 3072 2584 2669 2484 
Q 3125 2378 3379 2068 
Q 3634 1759 3634 1313 
Q 3634 634 3220 271 
Q 2806 -91 2034 -91 
Q 1263 -91 848 271 
Q 434 634 434 1313 
Q 434 1759 690 2068 
Q 947 2378 1403 2484 
z
M 1172 3481 
Q 1172 3119 1398 2916 
Q 1625 2713 2034 2713 
Q 2441 2713 2670 2916 
Q 2900 3119 2900 3481 
Q 2900 3844 2670 4047 
Q 2441 4250 2034 4250 
Q 1625 4250 1398 4047 
Q 1172 3844 1172 3481 
z
" transform="scale(0.015625)"/>
       </defs>
       <use xlink:href="#DejaVuSans-32"/>
       <use xlink:href="#DejaVuSans-30" x="63.623047"/>
       <use xlink:href="#DejaVuSans-31" x="127.246094"/>
       <use xlink:href="#DejaVuSans-38" x="190.869141"/>
      </g>
     </g>
    </g>
    <g id="xtick_5">
     <g id="line2d_9">
      <path d="M 561.937736 232.558125 
L 561.937736 15.118125 
" clip-path="url(#pbc5fe41118)" style="fill: none; stroke: #2a3459; stroke-width: 0.8; stroke-linecap: round"/>
     </g>
     <g id="line2d_10"/>
     <g id="text_5">
      <!-- 2019 -->
      <g style="fill: #e6e6e6" transform="translate(549.212736 243.656563)scale(0.1 -0.1)">
       <defs>
        <path id="DejaVuSans-39" d="M 703 97 
L 703 672 
Q 941 559 1184 500 
Q 1428 441 1663 441 
Q 2288 441 2617 861 
Q 2947 1281 2994 2138 
Q 2813 1869 2534 1725 
Q 2256 1581 1919 1581 
Q 1219 1581 811 2004 
Q 403 2428 403 3163 
Q 403 3881 828 4315 
Q 1253 4750 1959 4750 
Q 2769 4750 3195 4129 
Q 3622 3509 3622 2328 
Q 3622 1225 3098 567 
Q 2575 -91 1691 -91 
Q 1453 -91 1209 -44 
Q 966 3 703 97 
z
M 1959 2075 
Q 2384 2075 2632 2365 
Q 2881 2656 2881 3163 
Q 2881 3666 2632 3958 
Q 2384 4250 1959 4250 
Q 1534 4250 1286 3958 
Q 1038 3666 1038 3163 
Q 1038 2656 1286 2365 
Q 1534 2075 1959 2075 
z
" transform="scale(0.015625)"/>
       </defs>
       <use xlink:href="#DejaVuSans-32"/>
       <use xlink:href="#DejaVuSans-30" x="63.623047"/>
       <use xlink:href="#DejaVuSans-31" x="127.246094"/>
       <use xlink:href="#DejaVuSans-39" x="190.869141"/>
      </g>
     </g>
    </g>
    <g id="xtick_6">
     <g id="line2d_11">
      <path d="M 675.429261 232.558125 
L 675.429261 15.118125 
" clip-path="url(#pbc5fe41118)" style="fill: none; stroke: #2a3459; stroke-width: 0.8; stroke-linecap: round"/>
     </g>
     <g id="line2d_12"/>
     <g id="text_6">
      <!-- 2020 -->
      <g style="fill: #e6e6e6" transform="translate(662.704261 243.656563)scale(0.1 -0.1)">
       <use xlink:href="#DejaVuSans-32"/>
       <use xlink:href="#DejaVuSans-30" x="63.623047"/>
       <use xlink:href="#DejaVuSans-32" x="127.246094"/>
       <use xlink:href="#DejaVuSans-30" x="190.869141"/>
      </g>
     </g>
    </g>
    <g id="text_7">
     <!-- Time -->
     <g style="fill: #e6e6e6" transform="translate(358.832031 257.334688)scale(0.1 -0.1)">
      <defs>
       <path id="DejaVuSans-54" d="M -19 4666 
L 3928 4666 
L 3928 4134 
L 2272 4134 
L 2272 0 
L 1638 0 
L 1638 4134 
L -19 4134 
L -19 4666 
z
" transform="scale(0.015625)"/>
       <path id="DejaVuSans-69" d="M 603 3500 
L 1178 3500 
L 1178 0 
L 603 0 
L 603 3500 
z
M 603 4863 
L 1178 4863 
L 1178 4134 
L 603 4134 
L 603 4863 
z
" transform="scale(0.015625)"/>
       <path id="DejaVuSans-6d" d="M 3328 2828 
Q 3544 3216 3844 3400 
Q 4144 3584 4550 3584 
Q 5097 3584 5394 3201 
Q 5691 2819 5691 2113 
L 5691 0 
L 5113 0 
L 5113 2094 
Q 5113 2597 4934 2840 
Q 4756 3084 4391 3084 
Q 3944 3084 3684 2787 
Q 3425 2491 3425 1978 
L 3425 0 
L 2847 0 
L 2847 2094 
Q 2847 2600 2669 2842 
Q 2491 3084 2119 3084 
Q 1678 3084 1418 2786 
Q 1159 2488 1159 1978 
L 1159 0 
L 581 0 
L 581 3500 
L 1159 3500 
L 1159 2956 
Q 1356 3278 1631 3431 
Q 1906 3584 2284 3584 
Q 2666 3584 2933 3390 
Q 3200 3197 3328 2828 
z
" transform="scale(0.015625)"/>
       <path id="DejaVuSans-65" d="M 3597 1894 
L 3597 1613 
L 953 1613 
Q 991 1019 1311 708 
Q 1631 397 2203 397 
Q 2534 397 2845 478 
Q 3156 559 3463 722 
L 3463 178 
Q 3153 47 2828 -22 
Q 2503 -91 2169 -91 
Q 1331 -91 842 396 
Q 353 884 353 1716 
Q 353 2575 817 3079 
Q 1281 3584 2069 3584 
Q 2775 3584 3186 3129 
Q 3597 2675 3597 1894 
z
M 3022 2063 
Q 3016 2534 2758 2815 
Q 2500 3097 2075 3097 
Q 1594 3097 1305 2825 
Q 1016 2553 972 2059 
L 3022 2063 
z
" transform="scale(0.015625)"/>
      </defs>
      <use xlink:href="#DejaVuSans-54"/>
      <use xlink:href="#DejaVuSans-69" x="57.958984"/>
      <use xlink:href="#DejaVuSans-6d" x="85.742188"/>
      <use xlink:href="#DejaVuSans-65" x="183.154297"/>
     </g>
    </g>
   </g>
   <g id="matplotlib.axis_2">
    <g id="ytick_1">
     <g id="line2d_13">
      <path d="M 36.265625 208.630508 
L 705.865625 208.630508 
" clip-path="url(#pbc5fe41118)" style="fill: none; stroke: #2a3459; stroke-width: 0.8; stroke-linecap: round"/>
     </g>
     <g id="line2d_14"/>
     <g id="text_8">
      <!-- 20 -->
      <g style="fill: #e6e6e6" transform="translate(20.040625 212.429726)scale(0.1 -0.1)">
       <use xlink:href="#DejaVuSans-32"/>
       <use xlink:href="#DejaVuSans-30" x="63.623047"/>
      </g>
     </g>
    </g>
    <g id="ytick_2">
     <g id="line2d_15">
      <path d="M 36.265625 169.383955 
L 705.865625 169.383955 
" clip-path="url(#pbc5fe41118)" style="fill: none; stroke: #2a3459; stroke-width: 0.8; stroke-linecap: round"/>
     </g>
     <g id="line2d_16"/>
     <g id="text_9">
      <!-- 40 -->
      <g style="fill: #e6e6e6" transform="translate(20.040625 173.183174)scale(0.1 -0.1)">
       <defs>
        <path id="DejaVuSans-34" d="M 2419 4116 
L 825 1625 
L 2419 1625 
L 2419 4116 
z
M 2253 4666 
L 3047 4666 
L 3047 1625 
L 3713 1625 
L 3713 1100 
L 3047 1100 
L 3047 0 
L 2419 0 
L 2419 1100 
L 313 1100 
L 313 1709 
L 2253 4666 
z
" transform="scale(0.015625)"/>
       </defs>
       <use xlink:href="#DejaVuSans-34"/>
       <use xlink:href="#DejaVuSans-30" x="63.623047"/>
      </g>
     </g>
    </g>
    <g id="ytick_3">
     <g id="line2d_17">
      <path d="M 36.265625 130.137403 
L 705.865625 130.137403 
" clip-path="url(#pbc5fe41118)" style="fill: none; stroke: #2a3459; stroke-width: 0.8; stroke-linecap: round"/>
     </g>
     <g id="line2d_18"/>
     <g id="text_10">
      <!-- 60 -->
      <g style="fill: #e6e6e6" transform="translate(20.040625 133.936621)scale(0.1 -0.1)">
       <use xlink:href="#DejaVuSans-36"/>
       <use xlink:href="#DejaVuSans-30" x="63.623047"/>
      </g>
     </g>
    </g>
    <g id="ytick_4">
     <g id="line2d_19">
      <path d="M 36.265625 90.89085 
L 705.865625 90.89085 
" clip-path="url(#pbc5fe41118)" style="fill: none; stroke: #2a3459; stroke-width: 0.8; stroke-linecap: round"/>
     </g>
     <g id="line2d_20"/>
     <g id="text_11">
      <!-- 80 -->
      <g style="fill: #e6e6e6" transform="translate(20.040625 94.690069)scale(0.1 -0.1)">
       <use xlink:href="#DejaVuSans-38"/>
       <use xlink:href="#DejaVuSans-30" x="63.623047"/>
      </g>
     </g>
    </g>
    <g id="ytick_5">
     <g id="line2d_21">
      <path d="M 36.265625 51.644298 
L 705.865625 51.644298 
" clip-path="url(#pbc5fe41118)" style="fill: none; stroke: #2a3459; stroke-width: 0.8; stroke-linecap: round"/>
     </g>
     <g id="line2d_22"/>
     <g id="text_12">
      <!-- 100 -->
      <g style="fill: #e6e6e6" transform="translate(13.678125 55.443516)scale(0.1 -0.1)">
       <use xlink:href="#DejaVuSans-31"/>
       <use xlink:href="#DejaVuSans-30" x="63.623047"/>
       <use xlink:href="#DejaVuSans-30" x="127.246094"/>
      </g>
     </g>
    </g>
    <g id="text_13">
     <!-- Average concentration of PM10 in the air [μg/m³] -->
     <g style="fill: #e6e6e6" transform="translate(7.598438 246.7225)rotate(-90)scale(0.1 -0.1)">
      <defs>
       <path id="DejaVuSans-41" d="M 2188 4044 
L 1331 1722 
L 3047 1722 
L 2188 4044 
z
M 1831 4666 
L 2547 4666 
L 4325 0 
L 3669 0 
L 3244 1197 
L 1141 1197 
L 716 0 
L 50 0 
L 1831 4666 
z
" transform="scale(0.015625)"/>
       <path id="DejaVuSans-76" d="M 191 3500 
L 800 3500 
L 1894 563 
L 2988 3500 
L 3597 3500 
L 2284 0 
L 1503 0 
L 191 3500 
z
" transform="scale(0.015625)"/>
       <path id="DejaVuSans-72" d="M 2631 2963 
Q 2534 3019 2420 3045 
Q 2306 3072 2169 3072 
Q 1681 3072 1420 2755 
Q 1159 2438 1159 1844 
L 1159 0 
L 581 0 
L 581 3500 
L 1159 3500 
L 1159 2956 
Q 1341 3275 1631 3429 
Q 1922 3584 2338 3584 
Q 2397 3584 2469 3576 
Q 2541 3569 2628 3553 
L 2631 2963 
z
" transform="scale(0.015625)"/>
       <path id="DejaVuSans-61" d="M 2194 1759 
Q 1497 1759 1228 1600 
Q 959 1441 959 1056 
Q 959 750 1161 570 
Q 1363 391 1709 391 
Q 2188 391 2477 730 
Q 2766 1069 2766 1631 
L 2766 1759 
L 2194 1759 
z
M 3341 1997 
L 3341 0 
L 2766 0 
L 2766 531 
Q 2569 213 2275 61 
Q 1981 -91 1556 -91 
Q 1019 -91 701 211 
Q 384 513 384 1019 
Q 384 1609 779 1909 
Q 1175 2209 1959 2209 
L 2766 2209 
L 2766 2266 
Q 2766 2663 2505 2880 
Q 2244 3097 1772 3097 
Q 1472 3097 1187 3025 
Q 903 2953 641 2809 
L 641 3341 
Q 956 3463 1253 3523 
Q 1550 3584 1831 3584 
Q 2591 3584 2966 3190 
Q 3341 2797 3341 1997 
z
" transform="scale(0.015625)"/>
       <path id="DejaVuSans-67" d="M 2906 1791 
Q 2906 2416 2648 2759 
Q 2391 3103 1925 3103 
Q 1463 3103 1205 2759 
Q 947 2416 947 1791 
Q 947 1169 1205 825 
Q 1463 481 1925 481 
Q 2391 481 2648 825 
Q 2906 1169 2906 1791 
z
M 3481 434 
Q 3481 -459 3084 -895 
Q 2688 -1331 1869 -1331 
Q 1566 -1331 1297 -1286 
Q 1028 -1241 775 -1147 
L 775 -588 
Q 1028 -725 1275 -790 
Q 1522 -856 1778 -856 
Q 2344 -856 2625 -561 
Q 2906 -266 2906 331 
L 2906 616 
Q 2728 306 2450 153 
Q 2172 0 1784 0 
Q 1141 0 747 490 
Q 353 981 353 1791 
Q 353 2603 747 3093 
Q 1141 3584 1784 3584 
Q 2172 3584 2450 3431 
Q 2728 3278 2906 2969 
L 2906 3500 
L 3481 3500 
L 3481 434 
z
" transform="scale(0.015625)"/>
       <path id="DejaVuSans-20" transform="scale(0.015625)"/>
       <path id="DejaVuSans-63" d="M 3122 3366 
L 3122 2828 
Q 2878 2963 2633 3030 
Q 2388 3097 2138 3097 
Q 1578 3097 1268 2742 
Q 959 2388 959 1747 
Q 959 1106 1268 751 
Q 1578 397 2138 397 
Q 2388 397 2633 464 
Q 2878 531 3122 666 
L 3122 134 
Q 2881 22 2623 -34 
Q 2366 -91 2075 -91 
Q 1284 -91 818 406 
Q 353 903 353 1747 
Q 353 2603 823 3093 
Q 1294 3584 2113 3584 
Q 2378 3584 2631 3529 
Q 2884 3475 3122 3366 
z
" transform="scale(0.015625)"/>
       <path id="DejaVuSans-6f" d="M 1959 3097 
Q 1497 3097 1228 2736 
Q 959 2375 959 1747 
Q 959 1119 1226 758 
Q 1494 397 1959 397 
Q 2419 397 2687 759 
Q 2956 1122 2956 1747 
Q 2956 2369 2687 2733 
Q 2419 3097 1959 3097 
z
M 1959 3584 
Q 2709 3584 3137 3096 
Q 3566 2609 3566 1747 
Q 3566 888 3137 398 
Q 2709 -91 1959 -91 
Q 1206 -91 779 398 
Q 353 888 353 1747 
Q 353 2609 779 3096 
Q 1206 3584 1959 3584 
z
" transform="scale(0.015625)"/>
       <path id="DejaVuSans-6e" d="M 3513 2113 
L 3513 0 
L 2938 0 
L 2938 2094 
Q 2938 2591 2744 2837 
Q 2550 3084 2163 3084 
Q 1697 3084 1428 2787 
Q 1159 2491 1159 1978 
L 1159 0 
L 581 0 
L 581 3500 
L 1159 3500 
L 1159 2956 
Q 1366 3272 1645 3428 
Q 1925 3584 2291 3584 
Q 2894 3584 3203 3211 
Q 3513 2838 3513 2113 
z
" transform="scale(0.015625)"/>
       <path id="DejaVuSans-74" d="M 1172 4494 
L 1172 3500 
L 2356 3500 
L 2356 3053 
L 1172 3053 
L 1172 1153 
Q 1172 725 1289 603 
Q 1406 481 1766 481 
L 2356 481 
L 2356 0 
L 1766 0 
Q 1100 0 847 248 
Q 594 497 594 1153 
L 594 3053 
L 172 3053 
L 172 3500 
L 594 3500 
L 594 4494 
L 1172 4494 
z
" transform="scale(0.015625)"/>
       <path id="DejaVuSans-66" d="M 2375 4863 
L 2375 4384 
L 1825 4384 
Q 1516 4384 1395 4259 
Q 1275 4134 1275 3809 
L 1275 3500 
L 2222 3500 
L 2222 3053 
L 1275 3053 
L 1275 0 
L 697 0 
L 697 3053 
L 147 3053 
L 147 3500 
L 697 3500 
L 697 3744 
Q 697 4328 969 4595 
Q 1241 4863 1831 4863 
L 2375 4863 
z
" transform="scale(0.015625)"/>
       <path id="DejaVuSans-50" d="M 1259 4147 
L 1259 2394 
L 2053 2394 
Q 2494 2394 2734 2622 
Q 2975 2850 2975 3272 
Q 2975 3691 2734 3919 
Q 2494 4147 2053 4147 
L 1259 4147 
z
M 628 4666 
L 2053 4666 
Q 2838 4666 3239 4311 
Q 3641 3956 3641 3272 
Q 3641 2581 3239 2228 
Q 2838 1875 2053 1875 
L 1259 1875 
L 1259 0 
L 628 0 
L 628 4666 
z
" transform="scale(0.015625)"/>
       <path id="DejaVuSans-4d" d="M 628 4666 
L 1569 4666 
L 2759 1491 
L 3956 4666 
L 4897 4666 
L 4897 0 
L 4281 0 
L 4281 4097 
L 3078 897 
L 2444 897 
L 1241 4097 
L 1241 0 
L 628 0 
L 628 4666 
z
" transform="scale(0.015625)"/>
       <path id="DejaVuSans-68" d="M 3513 2113 
L 3513 0 
L 2938 0 
L 2938 2094 
Q 2938 2591 2744 2837 
Q 2550 3084 2163 3084 
Q 1697 3084 1428 2787 
Q 1159 2491 1159 1978 
L 1159 0 
L 581 0 
L 581 4863 
L 1159 4863 
L 1159 2956 
Q 1366 3272 1645 3428 
Q 1925 3584 2291 3584 
Q 2894 3584 3203 3211 
Q 3513 2838 3513 2113 
z
" transform="scale(0.015625)"/>
       <path id="DejaVuSans-5b" d="M 550 4863 
L 1875 4863 
L 1875 4416 
L 1125 4416 
L 1125 -397 
L 1875 -397 
L 1875 -844 
L 550 -844 
L 550 4863 
z
" transform="scale(0.015625)"/>
       <path id="DejaVuSans-3bc" d="M 544 -1331 
L 544 3500 
L 1119 3500 
L 1119 1325 
Q 1119 872 1334 640 
Q 1550 409 1972 409 
Q 2434 409 2667 671 
Q 2900 934 2900 1459 
L 2900 3500 
L 3475 3500 
L 3475 806 
Q 3475 619 3529 530 
Q 3584 441 3700 441 
Q 3728 441 3778 458 
Q 3828 475 3916 513 
L 3916 50 
Q 3788 -22 3673 -56 
Q 3559 -91 3450 -91 
Q 3234 -91 3106 31 
Q 2978 153 2931 403 
Q 2775 156 2548 32 
Q 2322 -91 2016 -91 
Q 1697 -91 1473 31 
Q 1250 153 1119 397 
L 1119 -1331 
L 544 -1331 
z
" transform="scale(0.015625)"/>
       <path id="DejaVuSans-2f" d="M 1625 4666 
L 2156 4666 
L 531 -594 
L 0 -594 
L 1625 4666 
z
" transform="scale(0.015625)"/>
       <path id="DejaVuSans-b3" d="M 1638 3500 
Q 1925 3444 2083 3273 
Q 2241 3103 2241 2847 
Q 2241 2459 1944 2250 
Q 1647 2041 1094 2041 
Q 916 2041 720 2073 
Q 525 2106 306 2169 
L 306 2547 
Q 469 2463 655 2422 
Q 841 2381 1050 2381 
Q 1391 2381 1578 2504 
Q 1766 2628 1766 2847 
Q 1766 3078 1592 3197 
Q 1419 3316 1081 3316 
L 813 3316 
L 813 3653 
L 1106 3653 
Q 1400 3653 1551 3751 
Q 1703 3850 1703 4038 
Q 1703 4219 1547 4314 
Q 1391 4409 1094 4409 
Q 969 4409 809 4381 
Q 650 4353 397 4281 
L 397 4641 
Q 625 4694 825 4722 
Q 1025 4750 1197 4750 
Q 1647 4750 1911 4565 
Q 2175 4381 2175 4072 
Q 2175 3856 2034 3706 
Q 1894 3556 1638 3500 
z
" transform="scale(0.015625)"/>
       <path id="DejaVuSans-5d" d="M 1947 4863 
L 1947 -844 
L 622 -844 
L 622 -397 
L 1369 -397 
L 1369 4416 
L 622 4416 
L 622 4863 
L 1947 4863 
z
" transform="scale(0.015625)"/>
      </defs>
      <use xlink:href="#DejaVuSans-41"/>
      <use xlink:href="#DejaVuSans-76" x="62.533203"/>
      <use xlink:href="#DejaVuSans-65" x="121.712891"/>
      <use xlink:href="#DejaVuSans-72" x="183.236328"/>
      <use xlink:href="#DejaVuSans-61" x="224.349609"/>
      <use xlink:href="#DejaVuSans-67" x="285.628906"/>
      <use xlink:href="#DejaVuSans-65" x="349.105469"/>
      <use xlink:href="#DejaVuSans-20" x="410.628906"/>
      <use xlink:href="#DejaVuSans-63" x="442.416016"/>
      <use xlink:href="#DejaVuSans-6f" x="497.396484"/>
      <use xlink:href="#DejaVuSans-6e" x="558.578125"/>
      <use xlink:href="#DejaVuSans-63" x="621.957031"/>
      <use xlink:href="#DejaVuSans-65" x="676.9375"/>
      <use xlink:href="#DejaVuSans-6e" x="738.460938"/>
      <use xlink:href="#DejaVuSans-74" x="801.839844"/>
      <use xlink:href="#DejaVuSans-72" x="841.048828"/>
      <use xlink:href="#DejaVuSans-61" x="882.162109"/>
      <use xlink:href="#DejaVuSans-74" x="943.441406"/>
      <use xlink:href="#DejaVuSans-69" x="982.650391"/>
      <use xlink:href="#DejaVuSans-6f" x="1010.433594"/>
      <use xlink:href="#DejaVuSans-6e" x="1071.615234"/>
      <use xlink:href="#DejaVuSans-20" x="1134.994141"/>
      <use xlink:href="#DejaVuSans-6f" x="1166.78125"/>
      <use xlink:href="#DejaVuSans-66" x="1227.962891"/>
      <use xlink:href="#DejaVuSans-20" x="1263.167969"/>
      <use xlink:href="#DejaVuSans-50" x="1294.955078"/>
      <use xlink:href="#DejaVuSans-4d" x="1355.257812"/>
      <use xlink:href="#DejaVuSans-31" x="1441.537109"/>
      <use xlink:href="#DejaVuSans-30" x="1505.160156"/>
      <use xlink:href="#DejaVuSans-20" x="1568.783203"/>
      <use xlink:href="#DejaVuSans-69" x="1600.570312"/>
      <use xlink:href="#DejaVuSans-6e" x="1628.353516"/>
      <use xlink:href="#DejaVuSans-20" x="1691.732422"/>
      <use xlink:href="#DejaVuSans-74" x="1723.519531"/>
      <use xlink:href="#DejaVuSans-68" x="1762.728516"/>
      <use xlink:href="#DejaVuSans-65" x="1826.107422"/>
      <use xlink:href="#DejaVuSans-20" x="1887.630859"/>
      <use xlink:href="#DejaVuSans-61" x="1919.417969"/>
      <use xlink:href="#DejaVuSans-69" x="1980.697266"/>
      <use xlink:href="#DejaVuSans-72" x="2008.480469"/>
      <use xlink:href="#DejaVuSans-20" x="2049.59375"/>
      <use xlink:href="#DejaVuSans-5b" x="2081.380859"/>
      <use xlink:href="#DejaVuSans-3bc" x="2120.394531"/>
      <use xlink:href="#DejaVuSans-67" x="2184.017578"/>
      <use xlink:href="#DejaVuSans-2f" x="2247.494141"/>
      <use xlink:href="#DejaVuSans-6d" x="2281.185547"/>
      <use xlink:href="#DejaVuSans-b3" x="2378.597656"/>
      <use xlink:href="#DejaVuSans-5d" x="2418.685547"/>
     </g>
    </g>
   </g>
   <g id="line2d_23">
    <path d="M 66.701989 187.85332 
L 77.0194 136.54258 
L 87.336811 152.011031 
L 97.654223 196.395811 
L 107.971634 207.237491 
L 118.289046 209.1826 
L 128.606457 209.69511 
L 138.923868 189.530506 
L 149.24128 204.63711 
L 159.558691 166.409752 
L 169.876103 167.31353 
L 180.193514 189.358925 
L 190.510925 152.398189 
L 200.828337 191.255936 
L 211.145748 183.543148 
L 221.46316 193.016317 
L 231.780571 203.924188 
L 242.097982 203.633172 
L 252.415394 206.759518 
L 262.732805 205.471992 
L 273.050217 186.150238 
L 283.367628 198.946637 
L 293.685039 183.142438 
L 304.002451 179.52505 
L 314.319862 123.190179 
L 324.637274 155.287111 
L 334.954685 176.386604 
L 345.272096 203.252321 
L 355.589508 205.441751 
L 365.906919 213.659461 
L 376.224331 211.540498 
L 386.541742 204.780819 
L 396.859154 204.348649 
L 407.176565 198.576594 
L 417.493976 185.155063 
L 427.811388 187.215587 
L 438.128799 176.549435 
L 448.446211 152.518845 
L 458.763622 156.452941 
L 469.081033 185.396352 
L 479.398445 197.463316 
L 489.715856 205.906543 
L 500.033268 203.821316 
L 510.350679 208.413955 
L 520.66809 200.146967 
L 530.985502 176.208194 
L 541.302913 164.205348 
L 551.620325 188.827179 
L 561.937736 179.935195 
L 572.255147 177.880964 
L 582.572559 197.112323 
L 592.88997 184.268051 
L 603.207382 209.892122 
L 613.524793 207.255103 
L 623.842204 215.687277 
L 634.159616 209.009952 
L 644.477027 207.627442 
L 654.794439 188.327957 
L 665.11185 197.35948 
L 675.429261 195.070991 
" clip-path="url(#pbc5fe41118)" style="fill: none; stroke: #ffe46b; stroke-width: 1.5; stroke-linecap: round"/>
   </g>
   <g id="line2d_24">
    <path d="M 66.701989 159.119829 
L 77.0194 91.355134 
L 87.336811 132.702733 
L 97.654223 183.237699 
L 107.971634 198.967011 
L 118.289046 202.932904 
L 128.606457 202.58312 
L 138.923868 185.671851 
L 149.24128 200.532482 
L 159.558691 138.127725 
L 169.876103 131.343709 
L 180.193514 158.48159 
L 190.510925 84.227215 
L 200.828337 165.468654 
L 211.145748 150.796635 
L 221.46316 170.642159 
L 231.780571 196.414762 
L 242.097982 201.825214 
L 252.415394 207.917515 
L 262.732805 206.312052 
L 273.050217 177.44406 
L 283.367628 176.046914 
L 293.685039 150.676058 
L 304.002451 132.290834 
L 314.319862 25.001761 
L 324.637274 82.372529 
L 334.954685 156.081566 
L 345.272096 193.635911 
L 355.589508 194.415993 
L 365.906919 208.481857 
L 376.224331 210.572405 
L 386.541742 203.833982 
L 396.859154 200.757722 
L 407.176565 180.325139 
L 417.493976 157.377641 
L 427.811388 160.144148 
L 438.128799 151.091764 
L 448.446211 90.383701 
L 458.763622 108.653958 
L 469.081033 179.77985 
L 479.398445 194.401546 
L 489.715856 202.151065 
L 500.033268 200.874995 
L 510.350679 198.311366 
L 520.66809 189.175208 
L 530.985502 157.738864 
L 541.302913 130.946045 
L 551.620325 166.639876 
L 561.937736 131.180775 
L 572.255147 141.088645 
L 582.572559 170.095035 
L 592.88997 177.150194 
L 603.207382 205.585324 
L 613.524793 201.303533 
L 623.842204 205.198781 
L 634.159616 206.561101 
L 644.477027 205.448066 
L 654.794439 171.769715 
L 665.11185 168.783413 
L 675.429261 159.333399 
" clip-path="url(#pbc5fe41118)" style="fill: none; stroke: #e4572e; stroke-width: 1.5; stroke-linecap: round"/>
   </g>
   <g id="line2d_25">
    <path d="M 66.701989 199.539677 
L 77.0194 164.320029 
L 87.336811 180.226702 
L 97.654223 215.004399 
L 107.971634 218.572799 
L 118.289046 218.166624 
L 128.606457 215.711219 
L 138.923868 202.067725 
L 149.24128 214.444503 
L 159.558691 176.573069 
L 169.876103 192.505277 
L 180.193514 201.476874 
L 190.510925 172.487471 
L 200.828337 196.889969 
L 211.145748 189.92003 
L 221.46316 201.268247 
L 231.780571 210.487914 
L 242.097982 216.77613 
L 252.415394 219.948074 
L 262.732805 218.932664 
L 273.050217 206.575351 
L 283.367628 208.14825 
L 293.685039 193.919068 
L 304.002451 197.223086 
L 314.319862 157.944503 
L 324.637274 177.216446 
L 334.954685 194.989398 
L 345.272096 215.67618 
L 355.589508 214.445328 
L 365.906919 221.064208 
L 376.224331 219.482116 
L 386.541742 216.911214 
L 396.859154 211.111217 
L 407.176565 211.826928 
L 417.493976 194.919507 
L 427.811388 201.410197 
L 438.128799 187.933332 
L 448.446211 173.121489 
L 458.763622 171.885712 
L 469.081033 195.749789 
L 479.398445 205.983876 
L 489.715856 215.029505 
L 500.033268 216.932377 
L 510.350679 215.133324 
L 520.66809 210.511235 
L 530.985502 194.858871 
L 541.302913 185.374418 
L 551.620325 200.075329 
L 561.937736 192.864878 
L 572.255147 194.875467 
L 582.572559 213.113002 
L 592.88997 189.97425 
L 603.207382 217.30403 
L 613.524793 215.123114 
L 623.842204 222.674489 
L 634.159616 217.144176 
L 644.477027 219.776583 
L 654.794439 204.279042 
L 665.11185 205.484091 
L 675.429261 208.15854 
" clip-path="url(#pbc5fe41118)" style="fill: none; stroke: #5b8e7d; stroke-width: 1.5; stroke-linecap: round"/>
   </g>
   <g id="patch_3">
    <path d="M 36.265625 232.558125 
L 36.265625 15.118125 
" style="fill: none"/>
   </g>
   <g id="patch_4">
    <path d="M 705.865625 232.558125 
L 705.865625 15.118125 
" style="fill: none"/>
   </g>
   <g id="patch_5">
    <path d="M 36.265625 232.558125 
L 705.865625 232.558125 
" style="fill: none"/>
   </g>
   <g id="patch_6">
    <path d="M 36.265625 15.118125 
L 705.865625 15.118125 
" style="fill: none"/>
   </g>
   <g id="text_14">
    <!-- PM10 pollution in Poland split by regions -->
    <g style="fill: #e6e6e6" transform="translate(249.509375 9.118125)scale(0.12 -0.12)">
     <defs>
      <path id="DejaVuSans-70" d="M 1159 525 
L 1159 -1331 
L 581 -1331 
L 581 3500 
L 1159 3500 
L 1159 2969 
Q 1341 3281 1617 3432 
Q 1894 3584 2278 3584 
Q 2916 3584 3314 3078 
Q 3713 2572 3713 1747 
Q 3713 922 3314 415 
Q 2916 -91 2278 -91 
Q 1894 -91 1617 61 
Q 1341 213 1159 525 
z
M 3116 1747 
Q 3116 2381 2855 2742 
Q 2594 3103 2138 3103 
Q 1681 3103 1420 2742 
Q 1159 2381 1159 1747 
Q 1159 1113 1420 752 
Q 1681 391 2138 391 
Q 2594 391 2855 752 
Q 3116 1113 3116 1747 
z
" transform="scale(0.015625)"/>
      <path id="DejaVuSans-6c" d="M 603 4863 
L 1178 4863 
L 1178 0 
L 603 0 
L 603 4863 
z
" transform="scale(0.015625)"/>
      <path id="DejaVuSans-75" d="M 544 1381 
L 544 3500 
L 1119 3500 
L 1119 1403 
Q 1119 906 1312 657 
Q 1506 409 1894 409 
Q 2359 409 2629 706 
Q 2900 1003 2900 1516 
L 2900 3500 
L 3475 3500 
L 3475 0 
L 2900 0 
L 2900 538 
Q 2691 219 2414 64 
Q 2138 -91 1772 -91 
Q 1169 -91 856 284 
Q 544 659 544 1381 
z
M 1991 3584 
L 1991 3584 
z
" transform="scale(0.015625)"/>
      <path id="DejaVuSans-64" d="M 2906 2969 
L 2906 4863 
L 3481 4863 
L 3481 0 
L 2906 0 
L 2906 525 
Q 2725 213 2448 61 
Q 2172 -91 1784 -91 
Q 1150 -91 751 415 
Q 353 922 353 1747 
Q 353 2572 751 3078 
Q 1150 3584 1784 3584 
Q 2172 3584 2448 3432 
Q 2725 3281 2906 2969 
z
M 947 1747 
Q 947 1113 1208 752 
Q 1469 391 1925 391 
Q 2381 391 2643 752 
Q 2906 1113 2906 1747 
Q 2906 2381 2643 2742 
Q 2381 3103 1925 3103 
Q 1469 3103 1208 2742 
Q 947 2381 947 1747 
z
" transform="scale(0.015625)"/>
      <path id="DejaVuSans-73" d="M 2834 3397 
L 2834 2853 
Q 2591 2978 2328 3040 
Q 2066 3103 1784 3103 
Q 1356 3103 1142 2972 
Q 928 2841 928 2578 
Q 928 2378 1081 2264 
Q 1234 2150 1697 2047 
L 1894 2003 
Q 2506 1872 2764 1633 
Q 3022 1394 3022 966 
Q 3022 478 2636 193 
Q 2250 -91 1575 -91 
Q 1294 -91 989 -36 
Q 684 19 347 128 
L 347 722 
Q 666 556 975 473 
Q 1284 391 1588 391 
Q 1994 391 2212 530 
Q 2431 669 2431 922 
Q 2431 1156 2273 1281 
Q 2116 1406 1581 1522 
L 1381 1569 
Q 847 1681 609 1914 
Q 372 2147 372 2553 
Q 372 3047 722 3315 
Q 1072 3584 1716 3584 
Q 2034 3584 2315 3537 
Q 2597 3491 2834 3397 
z
" transform="scale(0.015625)"/>
      <path id="DejaVuSans-62" d="M 3116 1747 
Q 3116 2381 2855 2742 
Q 2594 3103 2138 3103 
Q 1681 3103 1420 2742 
Q 1159 2381 1159 1747 
Q 1159 1113 1420 752 
Q 1681 391 2138 391 
Q 2594 391 2855 752 
Q 3116 1113 3116 1747 
z
M 1159 2969 
Q 1341 3281 1617 3432 
Q 1894 3584 2278 3584 
Q 2916 3584 3314 3078 
Q 3713 2572 3713 1747 
Q 3713 922 3314 415 
Q 2916 -91 2278 -91 
Q 1894 -91 1617 61 
Q 1341 213 1159 525 
L 1159 0 
L 581 0 
L 581 4863 
L 1159 4863 
L 1159 2969 
z
" transform="scale(0.015625)"/>
      <path id="DejaVuSans-79" d="M 2059 -325 
Q 1816 -950 1584 -1140 
Q 1353 -1331 966 -1331 
L 506 -1331 
L 506 -850 
L 844 -850 
Q 1081 -850 1212 -737 
Q 1344 -625 1503 -206 
L 1606 56 
L 191 3500 
L 800 3500 
L 1894 763 
L 2988 3500 
L 3597 3500 
L 2059 -325 
z
" transform="scale(0.015625)"/>
     </defs>
     <use xlink:href="#DejaVuSans-50"/>
     <use xlink:href="#DejaVuSans-4d" x="60.302734"/>
     <use xlink:href="#DejaVuSans-31" x="146.582031"/>
     <use xlink:href="#DejaVuSans-30" x="210.205078"/>
     <use xlink:href="#DejaVuSans-20" x="273.828125"/>
     <use xlink:href="#DejaVuSans-70" x="305.615234"/>
     <use xlink:href="#DejaVuSans-6f" x="369.091797"/>
     <use xlink:href="#DejaVuSans-6c" x="430.273438"/>
     <use xlink:href="#DejaVuSans-6c" x="458.056641"/>
     <use xlink:href="#DejaVuSans-75" x="485.839844"/>
     <use xlink:href="#DejaVuSans-74" x="549.21875"/>
     <use xlink:href="#DejaVuSans-69" x="588.427734"/>
     <use xlink:href="#DejaVuSans-6f" x="616.210938"/>
     <use xlink:href="#DejaVuSans-6e" x="677.392578"/>
     <use xlink:href="#DejaVuSans-20" x="740.771484"/>
     <use xlink:href="#DejaVuSans-69" x="772.558594"/>
     <use xlink:href="#DejaVuSans-6e" x="800.341797"/>
     <use xlink:href="#DejaVuSans-20" x="863.720703"/>
     <use xlink:href="#DejaVuSans-50" x="895.507812"/>
     <use xlink:href="#DejaVuSans-6f" x="952.185547"/>
     <use xlink:href="#DejaVuSans-6c" x="1013.367188"/>
     <use xlink:href="#DejaVuSans-61" x="1041.150391"/>
     <use xlink:href="#DejaVuSans-6e" x="1102.429688"/>
     <use xlink:href="#DejaVuSans-64" x="1165.808594"/>
     <use xlink:href="#DejaVuSans-20" x="1229.285156"/>
     <use xlink:href="#DejaVuSans-73" x="1261.072266"/>
     <use xlink:href="#DejaVuSans-70" x="1313.171875"/>
     <use xlink:href="#DejaVuSans-6c" x="1376.648438"/>
     <use xlink:href="#DejaVuSans-69" x="1404.431641"/>
     <use xlink:href="#DejaVuSans-74" x="1432.214844"/>
     <use xlink:href="#DejaVuSans-20" x="1471.423828"/>
     <use xlink:href="#DejaVuSans-62" x="1503.210938"/>
     <use xlink:href="#DejaVuSans-79" x="1566.6875"/>
     <use xlink:href="#DejaVuSans-20" x="1625.867188"/>
     <use xlink:href="#DejaVuSans-72" x="1657.654297"/>
     <use xlink:href="#DejaVuSans-65" x="1696.517578"/>
     <use xlink:href="#DejaVuSans-67" x="1758.041016"/>
     <use xlink:href="#DejaVuSans-69" x="1821.517578"/>
     <use xlink:href="#DejaVuSans-6f" x="1849.300781"/>
     <use xlink:href="#DejaVuSans-6e" x="1910.482422"/>
     <use xlink:href="#DejaVuSans-73" x="1973.861328"/>
    </g>
   </g>
  </g>
 </g>
 <defs>
  <clipPath id="pbc5fe41118">
   <rect x="36.265625" y="15.118125" width="669.6" height="217.44"/>
  </clipPath>
 </defs>
</svg>
