<?xml version="1.0" encoding="utf-8" standalone="no"?>
<!DOCTYPE svg PUBLIC "-//W3C//DTD SVG 1.1//EN"
  "http://www.w3.org/Graphics/SVG/1.1/DTD/svg11.dtd">
<svg xmlns:xlink="http://www.w3.org/1999/xlink" width="699.503125pt" height="205.054375pt" viewBox="0 0 699.503125 205.054375" xmlns="http://www.w3.org/2000/svg" version="1.1">
 <metadata>
  <rdf:RDF xmlns:dc="http://purl.org/dc/elements/1.1/" xmlns:cc="http://creativecommons.org/ns#" xmlns:rdf="http://www.w3.org/1999/02/22-rdf-syntax-ns#">
   <cc:Work>
    <dc:type rdf:resource="http://purl.org/dc/dcmitype/StillImage"/>
    <dc:date>2022-05-08T19:37:23.373884</dc:date>
    <dc:format>image/svg+xml</dc:format>
    <dc:creator>
     <cc:Agent>
      <dc:title>Matplotlib v3.5.1, https://matplotlib.org/</dc:title>
     </cc:Agent>
    </dc:creator>
   </cc:Work>
  </rdf:RDF>
 </metadata>
 <defs>
  <style type="text/css">*{stroke-linejoin: round; stroke-linecap: butt}</style>
 </defs>
 <g id="figure_1">
  <g id="patch_1">
   <path d="M 0 205.054375 
L 699.503125 205.054375 
L 699.503125 0 
L 0 0 
z
" style="fill: #212946"/>
  </g>
  <g id="axes_1">
   <g id="patch_2">
    <path d="M 29.903125 178.198125 
L 699.503125 178.198125 
L 699.503125 15.118125 
L 29.903125 15.118125 
z
" style="fill: #212946"/>
   </g>
   <g id="matplotlib.axis_1">
    <g id="xtick_1">
     <g id="line2d_1">
      <path d="M 29.903125 178.198125 
L 29.903125 15.118125 
" clip-path="url(#pdee4d68a32)" style="fill: none; stroke: #2a3459; stroke-width: 0.8; stroke-linecap: round"/>
     </g>
     <g id="line2d_2"/>
     <g id="text_1">
      <!-- 2019 -->
      <g style="fill: #e6e6e6" transform="translate(17.178125 189.296563)scale(0.1 -0.1)">
       <defs>
        <path id="DejaVuSans-32" d="M 1228 531 
L 3431 531 
L 3431 0 
L 469 0 
L 469 531 
Q 828 903 1448 1529 
Q 2069 2156 2228 2338 
Q 2531 2678 2651 2914 
Q 2772 3150 2772 3378 
Q 2772 3750 2511 3984 
Q 2250 4219 1831 4219 
Q 1534 4219 1204 4116 
Q 875 4013 500 3803 
L 500 4441 
Q 881 4594 1212 4672 
Q 1544 4750 1819 4750 
Q 2544 4750 2975 4387 
Q 3406 4025 3406 3419 
Q 3406 3131 3298 2873 
Q 3191 2616 2906 2266 
Q 2828 2175 2409 1742 
Q 1991 1309 1228 531 
z
" transform="scale(0.015625)"/>
        <path id="DejaVuSans-30" d="M 2034 4250 
Q 1547 4250 1301 3770 
Q 1056 3291 1056 2328 
Q 1056 1369 1301 889 
Q 1547 409 2034 409 
Q 2525 409 2770 889 
Q 3016 1369 3016 2328 
Q 3016 3291 2770 3770 
Q 2525 4250 2034 4250 
z
M 2034 4750 
Q 2819 4750 3233 4129 
Q 3647 3509 3647 2328 
Q 3647 1150 3233 529 
Q 2819 -91 2034 -91 
Q 1250 -91 836 529 
Q 422 1150 422 2328 
Q 422 3509 836 4129 
Q 1250 4750 2034 4750 
z
" transform="scale(0.015625)"/>
        <path id="DejaVuSans-31" d="M 794 531 
L 1825 531 
L 1825 4091 
L 703 3866 
L 703 4441 
L 1819 4666 
L 2450 4666 
L 2450 531 
L 3481 531 
L 3481 0 
L 794 0 
L 794 531 
z
" transform="scale(0.015625)"/>
        <path id="DejaVuSans-39" d="M 703 97 
L 703 672 
Q 941 559 1184 500 
Q 1428 441 1663 441 
Q 2288 441 2617 861 
Q 2947 1281 2994 2138 
Q 2813 1869 2534 1725 
Q 2256 1581 1919 1581 
Q 1219 1581 811 2004 
Q 403 2428 403 3163 
Q 403 3881 828 4315 
Q 1253 4750 1959 4750 
Q 2769 4750 3195 4129 
Q 3622 3509 3622 2328 
Q 3622 1225 3098 567 
Q 2575 -91 1691 -91 
Q 1453 -91 1209 -44 
Q 966 3 703 97 
z
M 1959 2075 
Q 2384 2075 2632 2365 
Q 2881 2656 2881 3163 
Q 2881 3666 2632 3958 
Q 2384 4250 1959 4250 
Q 1534 4250 1286 3958 
Q 1038 3666 1038 3163 
Q 1038 2656 1286 2365 
Q 1534 2075 1959 2075 
z
" transform="scale(0.015625)"/>
       </defs>
       <use xlink:href="#DejaVuSans-32"/>
       <use xlink:href="#DejaVuSans-30" x="63.623047"/>
       <use xlink:href="#DejaVuSans-31" x="127.246094"/>
       <use xlink:href="#DejaVuSans-39" x="190.869141"/>
      </g>
     </g>
    </g>
    <g id="xtick_2">
     <g id="line2d_3">
      <path d="M 247.070693 178.198125 
L 247.070693 15.118125 
" clip-path="url(#pdee4d68a32)" style="fill: none; stroke: #2a3459; stroke-width: 0.8; stroke-linecap: round"/>
     </g>
     <g id="line2d_4"/>
     <g id="text_2">
      <!-- 2020 -->
      <g style="fill: #e6e6e6" transform="translate(234.345693 189.296563)scale(0.1 -0.1)">
       <use xlink:href="#DejaVuSans-32"/>
       <use xlink:href="#DejaVuSans-30" x="63.623047"/>
       <use xlink:href="#DejaVuSans-32" x="127.246094"/>
       <use xlink:href="#DejaVuSans-30" x="190.869141"/>
      </g>
     </g>
    </g>
    <g id="xtick_3">
     <g id="line2d_5">
      <path d="M 464.23826 178.198125 
L 464.23826 15.118125 
" clip-path="url(#pdee4d68a32)" style="fill: none; stroke: #2a3459; stroke-width: 0.8; stroke-linecap: round"/>
     </g>
     <g id="line2d_6"/>
     <g id="text_3">
      <!-- 2021 -->
      <g style="fill: #e6e6e6" transform="translate(451.51326 189.296563)scale(0.1 -0.1)">
       <use xlink:href="#DejaVuSans-32"/>
       <use xlink:href="#DejaVuSans-30" x="63.623047"/>
       <use xlink:href="#DejaVuSans-32" x="127.246094"/>
       <use xlink:href="#DejaVuSans-31" x="190.869141"/>
      </g>
     </g>
    </g>
    <g id="xtick_4">
     <g id="line2d_7">
      <path d="M 663.30853 178.198125 
L 663.30853 15.118125 
" clip-path="url(#pdee4d68a32)" style="fill: none; stroke: #2a3459; stroke-width: 0.8; stroke-linecap: round"/>
     </g>
     <g id="line2d_8"/>
     <g id="text_4">
      <!-- 2022 -->
      <g style="fill: #e6e6e6" transform="translate(650.58353 189.296563)scale(0.1 -0.1)">
       <use xlink:href="#DejaVuSans-32"/>
       <use xlink:href="#DejaVuSans-30" x="63.623047"/>
       <use xlink:href="#DejaVuSans-32" x="127.246094"/>
       <use xlink:href="#DejaVuSans-32" x="190.869141"/>
      </g>
     </g>
    </g>
    <g id="text_5">
     <!-- Time -->
     <g style="fill: #e6e6e6" transform="translate(352.469531 202.974688)scale(0.1 -0.1)">
      <defs>
       <path id="DejaVuSans-54" d="M -19 4666 
L 3928 4666 
L 3928 4134 
L 2272 4134 
L 2272 0 
L 1638 0 
L 1638 4134 
L -19 4134 
L -19 4666 
z
" transform="scale(0.015625)"/>
       <path id="DejaVuSans-69" d="M 603 3500 
L 1178 3500 
L 1178 0 
L 603 0 
L 603 3500 
z
M 603 4863 
L 1178 4863 
L 1178 4134 
L 603 4134 
L 603 4863 
z
" transform="scale(0.015625)"/>
       <path id="DejaVuSans-6d" d="M 3328 2828 
Q 3544 3216 3844 3400 
Q 4144 3584 4550 3584 
Q 5097 3584 5394 3201 
Q 5691 2819 5691 2113 
L 5691 0 
L 5113 0 
L 5113 2094 
Q 5113 2597 4934 2840 
Q 4756 3084 4391 3084 
Q 3944 3084 3684 2787 
Q 3425 2491 3425 1978 
L 3425 0 
L 2847 0 
L 2847 2094 
Q 2847 2600 2669 2842 
Q 2491 3084 2119 3084 
Q 1678 3084 1418 2786 
Q 1159 2488 1159 1978 
L 1159 0 
L 581 0 
L 581 3500 
L 1159 3500 
L 1159 2956 
Q 1356 3278 1631 3431 
Q 1906 3584 2284 3584 
Q 2666 3584 2933 3390 
Q 3200 3197 3328 2828 
z
" transform="scale(0.015625)"/>
       <path id="DejaVuSans-65" d="M 3597 1894 
L 3597 1613 
L 953 1613 
Q 991 1019 1311 708 
Q 1631 397 2203 397 
Q 2534 397 2845 478 
Q 3156 559 3463 722 
L 3463 178 
Q 3153 47 2828 -22 
Q 2503 -91 2169 -91 
Q 1331 -91 842 396 
Q 353 884 353 1716 
Q 353 2575 817 3079 
Q 1281 3584 2069 3584 
Q 2775 3584 3186 3129 
Q 3597 2675 3597 1894 
z
M 3022 2063 
Q 3016 2534 2758 2815 
Q 2500 3097 2075 3097 
Q 1594 3097 1305 2825 
Q 1016 2553 972 2059 
L 3022 2063 
z
" transform="scale(0.015625)"/>
      </defs>
      <use xlink:href="#DejaVuSans-54"/>
      <use xlink:href="#DejaVuSans-69" x="57.958984"/>
      <use xlink:href="#DejaVuSans-6d" x="85.742188"/>
      <use xlink:href="#DejaVuSans-65" x="183.154297"/>
     </g>
    </g>
   </g>
   <g id="matplotlib.axis_2">
    <g id="ytick_1">
     <g id="line2d_9">
      <path d="M 29.903125 176.925236 
L 699.503125 176.925236 
" clip-path="url(#pdee4d68a32)" style="fill: none; stroke: #2a3459; stroke-width: 0.8; stroke-linecap: round"/>
     </g>
     <g id="line2d_10"/>
     <g id="text_6">
      <!-- 15 -->
      <g style="fill: #e6e6e6" transform="translate(13.678125 180.724455)scale(0.1 -0.1)">
       <defs>
        <path id="DejaVuSans-35" d="M 691 4666 
L 3169 4666 
L 3169 4134 
L 1269 4134 
L 1269 2991 
Q 1406 3038 1543 3061 
Q 1681 3084 1819 3084 
Q 2600 3084 3056 2656 
Q 3513 2228 3513 1497 
Q 3513 744 3044 326 
Q 2575 -91 1722 -91 
Q 1428 -91 1123 -41 
Q 819 9 494 109 
L 494 744 
Q 775 591 1075 516 
Q 1375 441 1709 441 
Q 2250 441 2565 725 
Q 2881 1009 2881 1497 
Q 2881 1984 2565 2268 
Q 2250 2553 1709 2553 
Q 1456 2553 1204 2497 
Q 953 2441 691 2322 
L 691 4666 
z
" transform="scale(0.015625)"/>
       </defs>
       <use xlink:href="#DejaVuSans-31"/>
       <use xlink:href="#DejaVuSans-35" x="63.623047"/>
      </g>
     </g>
    </g>
    <g id="ytick_2">
     <g id="line2d_11">
      <path d="M 29.903125 155.572312 
L 699.503125 155.572312 
" clip-path="url(#pdee4d68a32)" style="fill: none; stroke: #2a3459; stroke-width: 0.8; stroke-linecap: round"/>
     </g>
     <g id="line2d_12"/>
     <g id="text_7">
      <!-- 20 -->
      <g style="fill: #e6e6e6" transform="translate(13.678125 159.37153)scale(0.1 -0.1)">
       <use xlink:href="#DejaVuSans-32"/>
       <use xlink:href="#DejaVuSans-30" x="63.623047"/>
      </g>
     </g>
    </g>
    <g id="ytick_3">
     <g id="line2d_13">
      <path d="M 29.903125 134.219387 
L 699.503125 134.219387 
" clip-path="url(#pdee4d68a32)" style="fill: none; stroke: #2a3459; stroke-width: 0.8; stroke-linecap: round"/>
     </g>
     <g id="line2d_14"/>
     <g id="text_8">
      <!-- 25 -->
      <g style="fill: #e6e6e6" transform="translate(13.678125 138.018606)scale(0.1 -0.1)">
       <use xlink:href="#DejaVuSans-32"/>
       <use xlink:href="#DejaVuSans-35" x="63.623047"/>
      </g>
     </g>
    </g>
    <g id="ytick_4">
     <g id="line2d_15">
      <path d="M 29.903125 112.866463 
L 699.503125 112.866463 
" clip-path="url(#pdee4d68a32)" style="fill: none; stroke: #2a3459; stroke-width: 0.8; stroke-linecap: round"/>
     </g>
     <g id="line2d_16"/>
     <g id="text_9">
      <!-- 30 -->
      <g style="fill: #e6e6e6" transform="translate(13.678125 116.665681)scale(0.1 -0.1)">
       <defs>
        <path id="DejaVuSans-33" d="M 2597 2516 
Q 3050 2419 3304 2112 
Q 3559 1806 3559 1356 
Q 3559 666 3084 287 
Q 2609 -91 1734 -91 
Q 1441 -91 1130 -33 
Q 819 25 488 141 
L 488 750 
Q 750 597 1062 519 
Q 1375 441 1716 441 
Q 2309 441 2620 675 
Q 2931 909 2931 1356 
Q 2931 1769 2642 2001 
Q 2353 2234 1838 2234 
L 1294 2234 
L 1294 2753 
L 1863 2753 
Q 2328 2753 2575 2939 
Q 2822 3125 2822 3475 
Q 2822 3834 2567 4026 
Q 2313 4219 1838 4219 
Q 1578 4219 1281 4162 
Q 984 4106 628 3988 
L 628 4550 
Q 988 4650 1302 4700 
Q 1616 4750 1894 4750 
Q 2613 4750 3031 4423 
Q 3450 4097 3450 3541 
Q 3450 3153 3228 2886 
Q 3006 2619 2597 2516 
z
" transform="scale(0.015625)"/>
       </defs>
       <use xlink:href="#DejaVuSans-33"/>
       <use xlink:href="#DejaVuSans-30" x="63.623047"/>
      </g>
     </g>
    </g>
    <g id="ytick_5">
     <g id="line2d_17">
      <path d="M 29.903125 91.513538 
L 699.503125 91.513538 
" clip-path="url(#pdee4d68a32)" style="fill: none; stroke: #2a3459; stroke-width: 0.8; stroke-linecap: round"/>
     </g>
     <g id="line2d_18"/>
     <g id="text_10">
      <!-- 35 -->
      <g style="fill: #e6e6e6" transform="translate(13.678125 95.312757)scale(0.1 -0.1)">
       <use xlink:href="#DejaVuSans-33"/>
       <use xlink:href="#DejaVuSans-35" x="63.623047"/>
      </g>
     </g>
    </g>
    <g id="ytick_6">
     <g id="line2d_19">
      <path d="M 29.903125 70.160614 
L 699.503125 70.160614 
" clip-path="url(#pdee4d68a32)" style="fill: none; stroke: #2a3459; stroke-width: 0.8; stroke-linecap: round"/>
     </g>
     <g id="line2d_20"/>
     <g id="text_11">
      <!-- 40 -->
      <g style="fill: #e6e6e6" transform="translate(13.678125 73.959833)scale(0.1 -0.1)">
       <defs>
        <path id="DejaVuSans-34" d="M 2419 4116 
L 825 1625 
L 2419 1625 
L 2419 4116 
z
M 2253 4666 
L 3047 4666 
L 3047 1625 
L 3713 1625 
L 3713 1100 
L 3047 1100 
L 3047 0 
L 2419 0 
L 2419 1100 
L 313 1100 
L 313 1709 
L 2253 4666 
z
" transform="scale(0.015625)"/>
       </defs>
       <use xlink:href="#DejaVuSans-34"/>
       <use xlink:href="#DejaVuSans-30" x="63.623047"/>
      </g>
     </g>
    </g>
    <g id="ytick_7">
     <g id="line2d_21">
      <path d="M 29.903125 48.807689 
L 699.503125 48.807689 
" clip-path="url(#pdee4d68a32)" style="fill: none; stroke: #2a3459; stroke-width: 0.8; stroke-linecap: round"/>
     </g>
     <g id="line2d_22"/>
     <g id="text_12">
      <!-- 45 -->
      <g style="fill: #e6e6e6" transform="translate(13.678125 52.606908)scale(0.1 -0.1)">
       <use xlink:href="#DejaVuSans-34"/>
       <use xlink:href="#DejaVuSans-35" x="63.623047"/>
      </g>
     </g>
    </g>
    <g id="ytick_8">
     <g id="line2d_23">
      <path d="M 29.903125 27.454765 
L 699.503125 27.454765 
" clip-path="url(#pdee4d68a32)" style="fill: none; stroke: #2a3459; stroke-width: 0.8; stroke-linecap: round"/>
     </g>
     <g id="line2d_24"/>
     <g id="text_13">
      <!-- 50 -->
      <g style="fill: #e6e6e6" transform="translate(13.678125 31.253984)scale(0.1 -0.1)">
       <use xlink:href="#DejaVuSans-35"/>
       <use xlink:href="#DejaVuSans-30" x="63.623047"/>
      </g>
     </g>
    </g>
    <g id="text_14">
     <!-- Average NOx in the air [μg/m³] -->
     <g style="fill: #e6e6e6" transform="translate(7.598437 173.860469)rotate(-90)scale(0.1 -0.1)">
      <defs>
       <path id="DejaVuSans-41" d="M 2188 4044 
L 1331 1722 
L 3047 1722 
L 2188 4044 
z
M 1831 4666 
L 2547 4666 
L 4325 0 
L 3669 0 
L 3244 1197 
L 1141 1197 
L 716 0 
L 50 0 
L 1831 4666 
z
" transform="scale(0.015625)"/>
       <path id="DejaVuSans-76" d="M 191 3500 
L 800 3500 
L 1894 563 
L 2988 3500 
L 3597 3500 
L 2284 0 
L 1503 0 
L 191 3500 
z
" transform="scale(0.015625)"/>
       <path id="DejaVuSans-72" d="M 2631 2963 
Q 2534 3019 2420 3045 
Q 2306 3072 2169 3072 
Q 1681 3072 1420 2755 
Q 1159 2438 1159 1844 
L 1159 0 
L 581 0 
L 581 3500 
L 1159 3500 
L 1159 2956 
Q 1341 3275 1631 3429 
Q 1922 3584 2338 3584 
Q 2397 3584 2469 3576 
Q 2541 3569 2628 3553 
L 2631 2963 
z
" transform="scale(0.015625)"/>
       <path id="DejaVuSans-61" d="M 2194 1759 
Q 1497 1759 1228 1600 
Q 959 1441 959 1056 
Q 959 750 1161 570 
Q 1363 391 1709 391 
Q 2188 391 2477 730 
Q 2766 1069 2766 1631 
L 2766 1759 
L 2194 1759 
z
M 3341 1997 
L 3341 0 
L 2766 0 
L 2766 531 
Q 2569 213 2275 61 
Q 1981 -91 1556 -91 
Q 1019 -91 701 211 
Q 384 513 384 1019 
Q 384 1609 779 1909 
Q 1175 2209 1959 2209 
L 2766 2209 
L 2766 2266 
Q 2766 2663 2505 2880 
Q 2244 3097 1772 3097 
Q 1472 3097 1187 3025 
Q 903 2953 641 2809 
L 641 3341 
Q 956 3463 1253 3523 
Q 1550 3584 1831 3584 
Q 2591 3584 2966 3190 
Q 3341 2797 3341 1997 
z
" transform="scale(0.015625)"/>
       <path id="DejaVuSans-67" d="M 2906 1791 
Q 2906 2416 2648 2759 
Q 2391 3103 1925 3103 
Q 1463 3103 1205 2759 
Q 947 2416 947 1791 
Q 947 1169 1205 825 
Q 1463 481 1925 481 
Q 2391 481 2648 825 
Q 2906 1169 2906 1791 
z
M 3481 434 
Q 3481 -459 3084 -895 
Q 2688 -1331 1869 -1331 
Q 1566 -1331 1297 -1286 
Q 1028 -1241 775 -1147 
L 775 -588 
Q 1028 -725 1275 -790 
Q 1522 -856 1778 -856 
Q 2344 -856 2625 -561 
Q 2906 -266 2906 331 
L 2906 616 
Q 2728 306 2450 153 
Q 2172 0 1784 0 
Q 1141 0 747 490 
Q 353 981 353 1791 
Q 353 2603 747 3093 
Q 1141 3584 1784 3584 
Q 2172 3584 2450 3431 
Q 2728 3278 2906 2969 
L 2906 3500 
L 3481 3500 
L 3481 434 
z
" transform="scale(0.015625)"/>
       <path id="DejaVuSans-20" transform="scale(0.015625)"/>
       <path id="DejaVuSans-4e" d="M 628 4666 
L 1478 4666 
L 3547 763 
L 3547 4666 
L 4159 4666 
L 4159 0 
L 3309 0 
L 1241 3903 
L 1241 0 
L 628 0 
L 628 4666 
z
" transform="scale(0.015625)"/>
       <path id="DejaVuSans-4f" d="M 2522 4238 
Q 1834 4238 1429 3725 
Q 1025 3213 1025 2328 
Q 1025 1447 1429 934 
Q 1834 422 2522 422 
Q 3209 422 3611 934 
Q 4013 1447 4013 2328 
Q 4013 3213 3611 3725 
Q 3209 4238 2522 4238 
z
M 2522 4750 
Q 3503 4750 4090 4092 
Q 4678 3434 4678 2328 
Q 4678 1225 4090 567 
Q 3503 -91 2522 -91 
Q 1538 -91 948 565 
Q 359 1222 359 2328 
Q 359 3434 948 4092 
Q 1538 4750 2522 4750 
z
" transform="scale(0.015625)"/>
       <path id="DejaVuSans-78" d="M 3513 3500 
L 2247 1797 
L 3578 0 
L 2900 0 
L 1881 1375 
L 863 0 
L 184 0 
L 1544 1831 
L 300 3500 
L 978 3500 
L 1906 2253 
L 2834 3500 
L 3513 3500 
z
" transform="scale(0.015625)"/>
       <path id="DejaVuSans-6e" d="M 3513 2113 
L 3513 0 
L 2938 0 
L 2938 2094 
Q 2938 2591 2744 2837 
Q 2550 3084 2163 3084 
Q 1697 3084 1428 2787 
Q 1159 2491 1159 1978 
L 1159 0 
L 581 0 
L 581 3500 
L 1159 3500 
L 1159 2956 
Q 1366 3272 1645 3428 
Q 1925 3584 2291 3584 
Q 2894 3584 3203 3211 
Q 3513 2838 3513 2113 
z
" transform="scale(0.015625)"/>
       <path id="DejaVuSans-74" d="M 1172 4494 
L 1172 3500 
L 2356 3500 
L 2356 3053 
L 1172 3053 
L 1172 1153 
Q 1172 725 1289 603 
Q 1406 481 1766 481 
L 2356 481 
L 2356 0 
L 1766 0 
Q 1100 0 847 248 
Q 594 497 594 1153 
L 594 3053 
L 172 3053 
L 172 3500 
L 594 3500 
L 594 4494 
L 1172 4494 
z
" transform="scale(0.015625)"/>
       <path id="DejaVuSans-68" d="M 3513 2113 
L 3513 0 
L 2938 0 
L 2938 2094 
Q 2938 2591 2744 2837 
Q 2550 3084 2163 3084 
Q 1697 3084 1428 2787 
Q 1159 2491 1159 1978 
L 1159 0 
L 581 0 
L 581 4863 
L 1159 4863 
L 1159 2956 
Q 1366 3272 1645 3428 
Q 1925 3584 2291 3584 
Q 2894 3584 3203 3211 
Q 3513 2838 3513 2113 
z
" transform="scale(0.015625)"/>
       <path id="DejaVuSans-5b" d="M 550 4863 
L 1875 4863 
L 1875 4416 
L 1125 4416 
L 1125 -397 
L 1875 -397 
L 1875 -844 
L 550 -844 
L 550 4863 
z
" transform="scale(0.015625)"/>
       <path id="DejaVuSans-3bc" d="M 544 -1331 
L 544 3500 
L 1119 3500 
L 1119 1325 
Q 1119 872 1334 640 
Q 1550 409 1972 409 
Q 2434 409 2667 671 
Q 2900 934 2900 1459 
L 2900 3500 
L 3475 3500 
L 3475 806 
Q 3475 619 3529 530 
Q 3584 441 3700 441 
Q 3728 441 3778 458 
Q 3828 475 3916 513 
L 3916 50 
Q 3788 -22 3673 -56 
Q 3559 -91 3450 -91 
Q 3234 -91 3106 31 
Q 2978 153 2931 403 
Q 2775 156 2548 32 
Q 2322 -91 2016 -91 
Q 1697 -91 1473 31 
Q 1250 153 1119 397 
L 1119 -1331 
L 544 -1331 
z
" transform="scale(0.015625)"/>
       <path id="DejaVuSans-2f" d="M 1625 4666 
L 2156 4666 
L 531 -594 
L 0 -594 
L 1625 4666 
z
" transform="scale(0.015625)"/>
       <path id="DejaVuSans-b3" d="M 1638 3500 
Q 1925 3444 2083 3273 
Q 2241 3103 2241 2847 
Q 2241 2459 1944 2250 
Q 1647 2041 1094 2041 
Q 916 2041 720 2073 
Q 525 2106 306 2169 
L 306 2547 
Q 469 2463 655 2422 
Q 841 2381 1050 2381 
Q 1391 2381 1578 2504 
Q 1766 2628 1766 2847 
Q 1766 3078 1592 3197 
Q 1419 3316 1081 3316 
L 813 3316 
L 813 3653 
L 1106 3653 
Q 1400 3653 1551 3751 
Q 1703 3850 1703 4038 
Q 1703 4219 1547 4314 
Q 1391 4409 1094 4409 
Q 969 4409 809 4381 
Q 650 4353 397 4281 
L 397 4641 
Q 625 4694 825 4722 
Q 1025 4750 1197 4750 
Q 1647 4750 1911 4565 
Q 2175 4381 2175 4072 
Q 2175 3856 2034 3706 
Q 1894 3556 1638 3500 
z
" transform="scale(0.015625)"/>
       <path id="DejaVuSans-5d" d="M 1947 4863 
L 1947 -844 
L 622 -844 
L 622 -397 
L 1369 -397 
L 1369 4416 
L 622 4416 
L 622 4863 
L 1947 4863 
z
" transform="scale(0.015625)"/>
      </defs>
      <use xlink:href="#DejaVuSans-41"/>
      <use xlink:href="#DejaVuSans-76" x="62.533203"/>
      <use xlink:href="#DejaVuSans-65" x="121.712891"/>
      <use xlink:href="#DejaVuSans-72" x="183.236328"/>
      <use xlink:href="#DejaVuSans-61" x="224.349609"/>
      <use xlink:href="#DejaVuSans-67" x="285.628906"/>
      <use xlink:href="#DejaVuSans-65" x="349.105469"/>
      <use xlink:href="#DejaVuSans-20" x="410.628906"/>
      <use xlink:href="#DejaVuSans-4e" x="442.416016"/>
      <use xlink:href="#DejaVuSans-4f" x="517.220703"/>
      <use xlink:href="#DejaVuSans-78" x="595.931641"/>
      <use xlink:href="#DejaVuSans-20" x="655.111328"/>
      <use xlink:href="#DejaVuSans-69" x="686.898438"/>
      <use xlink:href="#DejaVuSans-6e" x="714.681641"/>
      <use xlink:href="#DejaVuSans-20" x="778.060547"/>
      <use xlink:href="#DejaVuSans-74" x="809.847656"/>
      <use xlink:href="#DejaVuSans-68" x="849.056641"/>
      <use xlink:href="#DejaVuSans-65" x="912.435547"/>
      <use xlink:href="#DejaVuSans-20" x="973.958984"/>
      <use xlink:href="#DejaVuSans-61" x="1005.746094"/>
      <use xlink:href="#DejaVuSans-69" x="1067.025391"/>
      <use xlink:href="#DejaVuSans-72" x="1094.808594"/>
      <use xlink:href="#DejaVuSans-20" x="1135.921875"/>
      <use xlink:href="#DejaVuSans-5b" x="1167.708984"/>
      <use xlink:href="#DejaVuSans-3bc" x="1206.722656"/>
      <use xlink:href="#DejaVuSans-67" x="1270.345703"/>
      <use xlink:href="#DejaVuSans-2f" x="1333.822266"/>
      <use xlink:href="#DejaVuSans-6d" x="1367.513672"/>
      <use xlink:href="#DejaVuSans-b3" x="1464.925781"/>
      <use xlink:href="#DejaVuSans-5d" x="1505.013672"/>
     </g>
    </g>
   </g>
   <g id="PolyCollection_1">
    <defs>
     <path id="mc9973941e8" d="M 247.070693 -169.552621 
L 247.070693 -86.157936 
L 265.16799 -72.878121 
L 283.265287 -58.119643 
L 301.362584 -45.965751 
L 319.459882 -38.38696 
L 337.557179 -35.892806 
L 355.654476 -38.472071 
L 373.751774 -45.835432 
L 391.849071 -56.928026 
L 409.946368 -69.145434 
L 428.043666 -78.328541 
L 446.140963 -80.621494 
L 464.23826 -75.157533 
L 482.335557 -64.623361 
L 500.432855 -53.094745 
L 518.530152 -43.734969 
L 536.627449 -38.138488 
L 554.724747 -36.82186 
L 572.822044 -39.781326 
L 590.919341 -46.584823 
L 609.016639 -56.001724 
L 627.113936 -65.595543 
L 645.211233 -72.081831 
L 663.30853 -72.888558 
L 663.30853 -178.933554 
L 663.30853 -178.933554 
L 645.211233 -176.426637 
L 627.113936 -163.384848 
L 609.016639 -144.36959 
L 590.919341 -125.262598 
L 572.822044 -110.847804 
L 554.724747 -103.953186 
L 536.627449 -105.811142 
L 518.530152 -116.469413 
L 500.432855 -134.461497 
L 482.335557 -155.895776 
L 464.23826 -174.260945 
L 446.140963 -182.523523 
L 428.043666 -176.973095 
L 409.946368 -159.566053 
L 391.849071 -136.553573 
L 373.751774 -114.911262 
L 355.654476 -99.641143 
L 337.557179 -93.321498 
L 319.459882 -96.953654 
L 301.362584 -110.488874 
L 283.265287 -132.177299 
L 265.16799 -157.150383 
L 247.070693 -169.552621 
z
" style="stroke: #808080; stroke-opacity: 0.2"/>
    </defs>
    <g clip-path="url(#pdee4d68a32)">
     <use xlink:href="#mc9973941e8" x="0" y="205.054375" style="fill: #808080; fill-opacity: 0.2; stroke: #808080; stroke-opacity: 0.2"/>
    </g>
   </g>
   <g id="line2d_25">
    <path d="M -1 76.800646 
L 11.805828 105.173993 
L 29.903125 102.864621 
L 48.000422 88.301739 
L 66.09772 131.365716 
L 84.195017 137.287801 
L 102.292314 151.723189 
L 120.389611 165.449417 
L 138.486909 162.548765 
L 156.584206 147.057077 
L 174.681503 135.650191 
L 192.778801 73.053232 
L 210.876098 92.946953 
L 228.973395 89.562787 
L 247.070693 88.713582 
L 265.16799 139.836763 
L 283.265287 130.84403 
L 301.362584 152.274248 
L 319.459882 165.531321 
L 337.557179 170.785398 
L 355.654476 164.96639 
L 373.751774 155.579843 
L 391.849071 118.832501 
L 409.946368 127.148427 
L 428.043666 113.484004 
L 446.140963 95.985357 
L 464.23826 95.45647 
L 482.335557 56.743295 
L 500.432855 100.516914 
L 518.530152 146.635839 
L 536.627449 166.926859 
L 554.724747 155.326616 
L 572.822044 163.31188 
L 590.919341 154.631222 
L 609.016639 133.606648 
L 627.113936 104.779387 
L 645.211233 108.463104 
L 663.30853 82.656051 
" clip-path="url(#pdee4d68a32)" style="fill: none; stroke: #18c0c4; stroke-width: 1.5; stroke-linecap: round"/>
   </g>
   <g id="line2d_26">
    <path d="M 247.070693 82.661124 
L 265.16799 96.113118 
L 283.265287 115.309399 
L 301.362584 131.536844 
L 319.459882 141.659869 
L 337.557179 144.68562 
L 355.654476 140.606486 
L 373.751774 129.991025 
L 391.849071 114.501994 
L 409.946368 97.744247 
L 428.043666 85.108396 
L 446.140963 81.514936 
L 464.23826 88.27322 
L 482.335557 102.188707 
L 500.432855 117.900647 
L 518.530152 130.869223 
L 536.627449 138.587631 
L 554.724747 140.170068 
L 572.822044 135.637705 
L 590.919341 125.734088 
L 609.016639 112.328373 
L 627.113936 98.831194 
L 645.211233 89.639964 
L 663.30853 88.183158 
" clip-path="url(#pdee4d68a32)" style="fill: none; stroke-dasharray: 5.55,2.4; stroke-dashoffset: 0; stroke: #f62196; stroke-width: 1.5"/>
   </g>
   <g id="patch_3">
    <path d="M 29.903125 178.198125 
L 29.903125 15.118125 
" style="fill: none"/>
   </g>
   <g id="patch_4">
    <path d="M 699.503125 178.198125 
L 699.503125 15.118125 
" style="fill: none"/>
   </g>
   <g id="patch_5">
    <path d="M 29.903125 178.198125 
L 699.503125 178.198125 
" style="fill: none"/>
   </g>
   <g id="patch_6">
    <path d="M 29.903125 15.118125 
L 699.503125 15.118125 
" style="fill: none"/>
   </g>
   <g id="text_15">
    <!-- Comparison of historical monthly data to trend prediction for NOx in Poland -->
    <g style="fill: #e6e6e6" transform="translate(137.799063 9.118125)scale(0.12 -0.12)">
     <defs>
      <path id="DejaVuSans-43" d="M 4122 4306 
L 4122 3641 
Q 3803 3938 3442 4084 
Q 3081 4231 2675 4231 
Q 1875 4231 1450 3742 
Q 1025 3253 1025 2328 
Q 1025 1406 1450 917 
Q 1875 428 2675 428 
Q 3081 428 3442 575 
Q 3803 722 4122 1019 
L 4122 359 
Q 3791 134 3420 21 
Q 3050 -91 2638 -91 
Q 1578 -91 968 557 
Q 359 1206 359 2328 
Q 359 3453 968 4101 
Q 1578 4750 2638 4750 
Q 3056 4750 3426 4639 
Q 3797 4528 4122 4306 
z
" transform="scale(0.015625)"/>
      <path id="DejaVuSans-6f" d="M 1959 3097 
Q 1497 3097 1228 2736 
Q 959 2375 959 1747 
Q 959 1119 1226 758 
Q 1494 397 1959 397 
Q 2419 397 2687 759 
Q 2956 1122 2956 1747 
Q 2956 2369 2687 2733 
Q 2419 3097 1959 3097 
z
M 1959 3584 
Q 2709 3584 3137 3096 
Q 3566 2609 3566 1747 
Q 3566 888 3137 398 
Q 2709 -91 1959 -91 
Q 1206 -91 779 398 
Q 353 888 353 1747 
Q 353 2609 779 3096 
Q 1206 3584 1959 3584 
z
" transform="scale(0.015625)"/>
      <path id="DejaVuSans-70" d="M 1159 525 
L 1159 -1331 
L 581 -1331 
L 581 3500 
L 1159 3500 
L 1159 2969 
Q 1341 3281 1617 3432 
Q 1894 3584 2278 3584 
Q 2916 3584 3314 3078 
Q 3713 2572 3713 1747 
Q 3713 922 3314 415 
Q 2916 -91 2278 -91 
Q 1894 -91 1617 61 
Q 1341 213 1159 525 
z
M 3116 1747 
Q 3116 2381 2855 2742 
Q 2594 3103 2138 3103 
Q 1681 3103 1420 2742 
Q 1159 2381 1159 1747 
Q 1159 1113 1420 752 
Q 1681 391 2138 391 
Q 2594 391 2855 752 
Q 3116 1113 3116 1747 
z
" transform="scale(0.015625)"/>
      <path id="DejaVuSans-73" d="M 2834 3397 
L 2834 2853 
Q 2591 2978 2328 3040 
Q 2066 3103 1784 3103 
Q 1356 3103 1142 2972 
Q 928 2841 928 2578 
Q 928 2378 1081 2264 
Q 1234 2150 1697 2047 
L 1894 2003 
Q 2506 1872 2764 1633 
Q 3022 1394 3022 966 
Q 3022 478 2636 193 
Q 2250 -91 1575 -91 
Q 1294 -91 989 -36 
Q 684 19 347 128 
L 347 722 
Q 666 556 975 473 
Q 1284 391 1588 391 
Q 1994 391 2212 530 
Q 2431 669 2431 922 
Q 2431 1156 2273 1281 
Q 2116 1406 1581 1522 
L 1381 1569 
Q 847 1681 609 1914 
Q 372 2147 372 2553 
Q 372 3047 722 3315 
Q 1072 3584 1716 3584 
Q 2034 3584 2315 3537 
Q 2597 3491 2834 3397 
z
" transform="scale(0.015625)"/>
      <path id="DejaVuSans-66" d="M 2375 4863 
L 2375 4384 
L 1825 4384 
Q 1516 4384 1395 4259 
Q 1275 4134 1275 3809 
L 1275 3500 
L 2222 3500 
L 2222 3053 
L 1275 3053 
L 1275 0 
L 697 0 
L 697 3053 
L 147 3053 
L 147 3500 
L 697 3500 
L 697 3744 
Q 697 4328 969 4595 
Q 1241 4863 1831 4863 
L 2375 4863 
z
" transform="scale(0.015625)"/>
      <path id="DejaVuSans-63" d="M 3122 3366 
L 3122 2828 
Q 2878 2963 2633 3030 
Q 2388 3097 2138 3097 
Q 1578 3097 1268 2742 
Q 959 2388 959 1747 
Q 959 1106 1268 751 
Q 1578 397 2138 397 
Q 2388 397 2633 464 
Q 2878 531 3122 666 
L 3122 134 
Q 2881 22 2623 -34 
Q 2366 -91 2075 -91 
Q 1284 -91 818 406 
Q 353 903 353 1747 
Q 353 2603 823 3093 
Q 1294 3584 2113 3584 
Q 2378 3584 2631 3529 
Q 2884 3475 3122 3366 
z
" transform="scale(0.015625)"/>
      <path id="DejaVuSans-6c" d="M 603 4863 
L 1178 4863 
L 1178 0 
L 603 0 
L 603 4863 
z
" transform="scale(0.015625)"/>
      <path id="DejaVuSans-79" d="M 2059 -325 
Q 1816 -950 1584 -1140 
Q 1353 -1331 966 -1331 
L 506 -1331 
L 506 -850 
L 844 -850 
Q 1081 -850 1212 -737 
Q 1344 -625 1503 -206 
L 1606 56 
L 191 3500 
L 800 3500 
L 1894 763 
L 2988 3500 
L 3597 3500 
L 2059 -325 
z
" transform="scale(0.015625)"/>
      <path id="DejaVuSans-64" d="M 2906 2969 
L 2906 4863 
L 3481 4863 
L 3481 0 
L 2906 0 
L 2906 525 
Q 2725 213 2448 61 
Q 2172 -91 1784 -91 
Q 1150 -91 751 415 
Q 353 922 353 1747 
Q 353 2572 751 3078 
Q 1150 3584 1784 3584 
Q 2172 3584 2448 3432 
Q 2725 3281 2906 2969 
z
M 947 1747 
Q 947 1113 1208 752 
Q 1469 391 1925 391 
Q 2381 391 2643 752 
Q 2906 1113 2906 1747 
Q 2906 2381 2643 2742 
Q 2381 3103 1925 3103 
Q 1469 3103 1208 2742 
Q 947 2381 947 1747 
z
" transform="scale(0.015625)"/>
      <path id="DejaVuSans-50" d="M 1259 4147 
L 1259 2394 
L 2053 2394 
Q 2494 2394 2734 2622 
Q 2975 2850 2975 3272 
Q 2975 3691 2734 3919 
Q 2494 4147 2053 4147 
L 1259 4147 
z
M 628 4666 
L 2053 4666 
Q 2838 4666 3239 4311 
Q 3641 3956 3641 3272 
Q 3641 2581 3239 2228 
Q 2838 1875 2053 1875 
L 1259 1875 
L 1259 0 
L 628 0 
L 628 4666 
z
" transform="scale(0.015625)"/>
     </defs>
     <use xlink:href="#DejaVuSans-43"/>
     <use xlink:href="#DejaVuSans-6f" x="69.824219"/>
     <use xlink:href="#DejaVuSans-6d" x="131.005859"/>
     <use xlink:href="#DejaVuSans-70" x="228.417969"/>
     <use xlink:href="#DejaVuSans-61" x="291.894531"/>
     <use xlink:href="#DejaVuSans-72" x="353.173828"/>
     <use xlink:href="#DejaVuSans-69" x="394.287109"/>
     <use xlink:href="#DejaVuSans-73" x="422.070312"/>
     <use xlink:href="#DejaVuSans-6f" x="474.169922"/>
     <use xlink:href="#DejaVuSans-6e" x="535.351562"/>
     <use xlink:href="#DejaVuSans-20" x="598.730469"/>
     <use xlink:href="#DejaVuSans-6f" x="630.517578"/>
     <use xlink:href="#DejaVuSans-66" x="691.699219"/>
     <use xlink:href="#DejaVuSans-20" x="726.904297"/>
     <use xlink:href="#DejaVuSans-68" x="758.691406"/>
     <use xlink:href="#DejaVuSans-69" x="822.070312"/>
     <use xlink:href="#DejaVuSans-73" x="849.853516"/>
     <use xlink:href="#DejaVuSans-74" x="901.953125"/>
     <use xlink:href="#DejaVuSans-6f" x="941.162109"/>
     <use xlink:href="#DejaVuSans-72" x="1002.34375"/>
     <use xlink:href="#DejaVuSans-69" x="1043.457031"/>
     <use xlink:href="#DejaVuSans-63" x="1071.240234"/>
     <use xlink:href="#DejaVuSans-61" x="1126.220703"/>
     <use xlink:href="#DejaVuSans-6c" x="1187.5"/>
     <use xlink:href="#DejaVuSans-20" x="1215.283203"/>
     <use xlink:href="#DejaVuSans-6d" x="1247.070312"/>
     <use xlink:href="#DejaVuSans-6f" x="1344.482422"/>
     <use xlink:href="#DejaVuSans-6e" x="1405.664062"/>
     <use xlink:href="#DejaVuSans-74" x="1469.042969"/>
     <use xlink:href="#DejaVuSans-68" x="1508.251953"/>
     <use xlink:href="#DejaVuSans-6c" x="1571.630859"/>
     <use xlink:href="#DejaVuSans-79" x="1599.414062"/>
     <use xlink:href="#DejaVuSans-20" x="1658.59375"/>
     <use xlink:href="#DejaVuSans-64" x="1690.380859"/>
     <use xlink:href="#DejaVuSans-61" x="1753.857422"/>
     <use xlink:href="#DejaVuSans-74" x="1815.136719"/>
     <use xlink:href="#DejaVuSans-61" x="1854.345703"/>
     <use xlink:href="#DejaVuSans-20" x="1915.625"/>
     <use xlink:href="#DejaVuSans-74" x="1947.412109"/>
     <use xlink:href="#DejaVuSans-6f" x="1986.621094"/>
     <use xlink:href="#DejaVuSans-20" x="2047.802734"/>
     <use xlink:href="#DejaVuSans-74" x="2079.589844"/>
     <use xlink:href="#DejaVuSans-72" x="2118.798828"/>
     <use xlink:href="#DejaVuSans-65" x="2157.662109"/>
     <use xlink:href="#DejaVuSans-6e" x="2219.185547"/>
     <use xlink:href="#DejaVuSans-64" x="2282.564453"/>
     <use xlink:href="#DejaVuSans-20" x="2346.041016"/>
     <use xlink:href="#DejaVuSans-70" x="2377.828125"/>
     <use xlink:href="#DejaVuSans-72" x="2441.304688"/>
     <use xlink:href="#DejaVuSans-65" x="2480.167969"/>
     <use xlink:href="#DejaVuSans-64" x="2541.691406"/>
     <use xlink:href="#DejaVuSans-69" x="2605.167969"/>
     <use xlink:href="#DejaVuSans-63" x="2632.951172"/>
     <use xlink:href="#DejaVuSans-74" x="2687.931641"/>
     <use xlink:href="#DejaVuSans-69" x="2727.140625"/>
     <use xlink:href="#DejaVuSans-6f" x="2754.923828"/>
     <use xlink:href="#DejaVuSans-6e" x="2816.105469"/>
     <use xlink:href="#DejaVuSans-20" x="2879.484375"/>
     <use xlink:href="#DejaVuSans-66" x="2911.271484"/>
     <use xlink:href="#DejaVuSans-6f" x="2946.476562"/>
     <use xlink:href="#DejaVuSans-72" x="3007.658203"/>
     <use xlink:href="#DejaVuSans-20" x="3048.771484"/>
     <use xlink:href="#DejaVuSans-4e" x="3080.558594"/>
     <use xlink:href="#DejaVuSans-4f" x="3155.363281"/>
     <use xlink:href="#DejaVuSans-78" x="3234.074219"/>
     <use xlink:href="#DejaVuSans-20" x="3293.253906"/>
     <use xlink:href="#DejaVuSans-69" x="3325.041016"/>
     <use xlink:href="#DejaVuSans-6e" x="3352.824219"/>
     <use xlink:href="#DejaVuSans-20" x="3416.203125"/>
     <use xlink:href="#DejaVuSans-50" x="3447.990234"/>
     <use xlink:href="#DejaVuSans-6f" x="3504.667969"/>
     <use xlink:href="#DejaVuSans-6c" x="3565.849609"/>
     <use xlink:href="#DejaVuSans-61" x="3593.632812"/>
     <use xlink:href="#DejaVuSans-6e" x="3654.912109"/>
     <use xlink:href="#DejaVuSans-64" x="3718.291016"/>
    </g>
   </g>
   <g id="legend_1">
    <g id="line2d_27">
     <path d="M 527.878125 28.216563 
L 537.878125 28.216563 
L 547.878125 28.216563 
" style="fill: none; stroke: #18c0c4; stroke-width: 1.5; stroke-linecap: round"/>
    </g>
    <g id="text_16">
     <!-- Historical data -->
     <g style="fill: #e6e6e6" transform="translate(555.878125 31.716563)scale(0.1 -0.1)">
      <defs>
       <path id="DejaVuSans-48" d="M 628 4666 
L 1259 4666 
L 1259 2753 
L 3553 2753 
L 3553 4666 
L 4184 4666 
L 4184 0 
L 3553 0 
L 3553 2222 
L 1259 2222 
L 1259 0 
L 628 0 
L 628 4666 
z
" transform="scale(0.015625)"/>
      </defs>
      <use xlink:href="#DejaVuSans-48"/>
      <use xlink:href="#DejaVuSans-69" x="75.195312"/>
      <use xlink:href="#DejaVuSans-73" x="102.978516"/>
      <use xlink:href="#DejaVuSans-74" x="155.078125"/>
      <use xlink:href="#DejaVuSans-6f" x="194.287109"/>
      <use xlink:href="#DejaVuSans-72" x="255.46875"/>
      <use xlink:href="#DejaVuSans-69" x="296.582031"/>
      <use xlink:href="#DejaVuSans-63" x="324.365234"/>
      <use xlink:href="#DejaVuSans-61" x="379.345703"/>
      <use xlink:href="#DejaVuSans-6c" x="440.625"/>
      <use xlink:href="#DejaVuSans-20" x="468.408203"/>
      <use xlink:href="#DejaVuSans-64" x="500.195312"/>
      <use xlink:href="#DejaVuSans-61" x="563.671875"/>
      <use xlink:href="#DejaVuSans-74" x="624.951172"/>
      <use xlink:href="#DejaVuSans-61" x="664.160156"/>
     </g>
    </g>
    <g id="line2d_28">
     <path d="M 527.878125 42.894688 
L 537.878125 42.894688 
L 547.878125 42.894688 
" style="fill: none; stroke-dasharray: 5.55,2.4; stroke-dashoffset: 0; stroke: #f62196; stroke-width: 1.5"/>
    </g>
    <g id="text_17">
     <!-- 2020 and 2021 predictions -->
     <g style="fill: #e6e6e6" transform="translate(555.878125 46.394688)scale(0.1 -0.1)">
      <use xlink:href="#DejaVuSans-32"/>
      <use xlink:href="#DejaVuSans-30" x="63.623047"/>
      <use xlink:href="#DejaVuSans-32" x="127.246094"/>
      <use xlink:href="#DejaVuSans-30" x="190.869141"/>
      <use xlink:href="#DejaVuSans-20" x="254.492188"/>
      <use xlink:href="#DejaVuSans-61" x="286.279297"/>
      <use xlink:href="#DejaVuSans-6e" x="347.558594"/>
      <use xlink:href="#DejaVuSans-64" x="410.9375"/>
      <use xlink:href="#DejaVuSans-20" x="474.414062"/>
      <use xlink:href="#DejaVuSans-32" x="506.201172"/>
      <use xlink:href="#DejaVuSans-30" x="569.824219"/>
      <use xlink:href="#DejaVuSans-32" x="633.447266"/>
      <use xlink:href="#DejaVuSans-31" x="697.070312"/>
      <use xlink:href="#DejaVuSans-20" x="760.693359"/>
      <use xlink:href="#DejaVuSans-70" x="792.480469"/>
      <use xlink:href="#DejaVuSans-72" x="855.957031"/>
      <use xlink:href="#DejaVuSans-65" x="894.820312"/>
      <use xlink:href="#DejaVuSans-64" x="956.34375"/>
      <use xlink:href="#DejaVuSans-69" x="1019.820312"/>
      <use xlink:href="#DejaVuSans-63" x="1047.603516"/>
      <use xlink:href="#DejaVuSans-74" x="1102.583984"/>
      <use xlink:href="#DejaVuSans-69" x="1141.792969"/>
      <use xlink:href="#DejaVuSans-6f" x="1169.576172"/>
      <use xlink:href="#DejaVuSans-6e" x="1230.757812"/>
      <use xlink:href="#DejaVuSans-73" x="1294.136719"/>
     </g>
    </g>
    <g id="patch_7">
     <path d="M 527.878125 61.072813 
L 547.878125 61.072813 
L 547.878125 54.072813 
L 527.878125 54.072813 
z
" style="fill: #808080; fill-opacity: 0.2; stroke: #808080; stroke-opacity: 0.2; stroke-linejoin: miter"/>
    </g>
    <g id="text_18">
     <!-- Confidence interval -->
     <g style="fill: #e6e6e6" transform="translate(555.878125 61.072813)scale(0.1 -0.1)">
      <use xlink:href="#DejaVuSans-43"/>
      <use xlink:href="#DejaVuSans-6f" x="69.824219"/>
      <use xlink:href="#DejaVuSans-6e" x="131.005859"/>
      <use xlink:href="#DejaVuSans-66" x="194.384766"/>
      <use xlink:href="#DejaVuSans-69" x="229.589844"/>
      <use xlink:href="#DejaVuSans-64" x="257.373047"/>
      <use xlink:href="#DejaVuSans-65" x="320.849609"/>
      <use xlink:href="#DejaVuSans-6e" x="382.373047"/>
      <use xlink:href="#DejaVuSans-63" x="445.751953"/>
      <use xlink:href="#DejaVuSans-65" x="500.732422"/>
      <use xlink:href="#DejaVuSans-20" x="562.255859"/>
      <use xlink:href="#DejaVuSans-69" x="594.042969"/>
      <use xlink:href="#DejaVuSans-6e" x="621.826172"/>
      <use xlink:href="#DejaVuSans-74" x="685.205078"/>
      <use xlink:href="#DejaVuSans-65" x="724.414062"/>
      <use xlink:href="#DejaVuSans-72" x="785.9375"/>
      <use xlink:href="#DejaVuSans-76" x="827.050781"/>
      <use xlink:href="#DejaVuSans-61" x="886.230469"/>
      <use xlink:href="#DejaVuSans-6c" x="947.509766"/>
     </g>
    </g>
   </g>
  </g>
 </g>
 <defs>
  <clipPath id="pdee4d68a32">
   <rect x="29.903125" y="15.118125" width="669.6" height="163.08"/>
  </clipPath>
 </defs>
</svg>
