<?xml version="1.0" encoding="utf-8" standalone="no"?>
<!DOCTYPE svg PUBLIC "-//W3C//DTD SVG 1.1//EN"
  "http://www.w3.org/Graphics/SVG/1.1/DTD/svg11.dtd">
<svg xmlns:xlink="http://www.w3.org/1999/xlink" width="957.985547pt" height="553.68pt" viewBox="0 0 957.985547 553.68" xmlns="http://www.w3.org/2000/svg" version="1.1">
 <metadata>
  <rdf:RDF xmlns:dc="http://purl.org/dc/elements/1.1/" xmlns:cc="http://creativecommons.org/ns#" xmlns:rdf="http://www.w3.org/1999/02/22-rdf-syntax-ns#">
   <cc:Work>
    <dc:type rdf:resource="http://purl.org/dc/dcmitype/StillImage"/>
    <dc:date>2022-05-10T10:19:02.034603</dc:date>
    <dc:format>image/svg+xml</dc:format>
    <dc:creator>
     <cc:Agent>
      <dc:title>Matplotlib v3.5.2, https://matplotlib.org/</dc:title>
     </cc:Agent>
    </dc:creator>
   </cc:Work>
  </rdf:RDF>
 </metadata>
 <defs>
  <style type="text/css">*{stroke-linejoin: round; stroke-linecap: butt}</style>
 </defs>
 <g id="figure_1">
  <g id="patch_1">
   <path d="M 0 553.68 
L 957.985547 553.68 
L 957.985547 0 
L 0 0 
z
" style="fill: #212946"/>
  </g>
  <g id="axes_1">
   <g id="patch_2">
    <path d="M 128.557813 526.82375 
L 796.1 526.82375 
L 796.1 21.69375 
L 128.557813 21.69375 
z
" style="fill: #212946"/>
   </g>
   <g id="matplotlib.axis_1">
    <g id="xtick_1">
     <g id="line2d_1">
      <path d="M 128.557813 526.82375 
L 128.557813 21.69375 
" clip-path="url(#p20afffa8f0)" style="fill: none; stroke: #2a3459; stroke-width: 0.8; stroke-linecap: round"/>
     </g>
     <g id="line2d_2"/>
     <g id="text_1">
      <!-- 0 -->
      <g style="fill: #e6e6e6" transform="translate(125.376563 537.922187)scale(0.1 -0.1)">
       <defs>
        <path id="DejaVuSans-30" d="M 2034 4250 
Q 1547 4250 1301 3770 
Q 1056 3291 1056 2328 
Q 1056 1369 1301 889 
Q 1547 409 2034 409 
Q 2525 409 2770 889 
Q 3016 1369 3016 2328 
Q 3016 3291 2770 3770 
Q 2525 4250 2034 4250 
z
M 2034 4750 
Q 2819 4750 3233 4129 
Q 3647 3509 3647 2328 
Q 3647 1150 3233 529 
Q 2819 -91 2034 -91 
Q 1250 -91 836 529 
Q 422 1150 422 2328 
Q 422 3509 836 4129 
Q 1250 4750 2034 4750 
z
" transform="scale(0.015625)"/>
       </defs>
       <use xlink:href="#DejaVuSans-30"/>
      </g>
     </g>
    </g>
    <g id="xtick_2">
     <g id="line2d_3">
      <path d="M 255.581681 526.82375 
L 255.581681 21.69375 
" clip-path="url(#p20afffa8f0)" style="fill: none; stroke: #2a3459; stroke-width: 0.8; stroke-linecap: round"/>
     </g>
     <g id="line2d_4"/>
     <g id="text_2">
      <!-- 20 -->
      <g style="fill: #e6e6e6" transform="translate(249.219181 537.922187)scale(0.1 -0.1)">
       <defs>
        <path id="DejaVuSans-32" d="M 1228 531 
L 3431 531 
L 3431 0 
L 469 0 
L 469 531 
Q 828 903 1448 1529 
Q 2069 2156 2228 2338 
Q 2531 2678 2651 2914 
Q 2772 3150 2772 3378 
Q 2772 3750 2511 3984 
Q 2250 4219 1831 4219 
Q 1534 4219 1204 4116 
Q 875 4013 500 3803 
L 500 4441 
Q 881 4594 1212 4672 
Q 1544 4750 1819 4750 
Q 2544 4750 2975 4387 
Q 3406 4025 3406 3419 
Q 3406 3131 3298 2873 
Q 3191 2616 2906 2266 
Q 2828 2175 2409 1742 
Q 1991 1309 1228 531 
z
" transform="scale(0.015625)"/>
       </defs>
       <use xlink:href="#DejaVuSans-32"/>
       <use xlink:href="#DejaVuSans-30" x="63.623047"/>
      </g>
     </g>
    </g>
    <g id="xtick_3">
     <g id="line2d_5">
      <path d="M 382.60555 526.82375 
L 382.60555 21.69375 
" clip-path="url(#p20afffa8f0)" style="fill: none; stroke: #2a3459; stroke-width: 0.8; stroke-linecap: round"/>
     </g>
     <g id="line2d_6"/>
     <g id="text_3">
      <!-- 40 -->
      <g style="fill: #e6e6e6" transform="translate(376.24305 537.922187)scale(0.1 -0.1)">
       <defs>
        <path id="DejaVuSans-34" d="M 2419 4116 
L 825 1625 
L 2419 1625 
L 2419 4116 
z
M 2253 4666 
L 3047 4666 
L 3047 1625 
L 3713 1625 
L 3713 1100 
L 3047 1100 
L 3047 0 
L 2419 0 
L 2419 1100 
L 313 1100 
L 313 1709 
L 2253 4666 
z
" transform="scale(0.015625)"/>
       </defs>
       <use xlink:href="#DejaVuSans-34"/>
       <use xlink:href="#DejaVuSans-30" x="63.623047"/>
      </g>
     </g>
    </g>
    <g id="xtick_4">
     <g id="line2d_7">
      <path d="M 509.629419 526.82375 
L 509.629419 21.69375 
" clip-path="url(#p20afffa8f0)" style="fill: none; stroke: #2a3459; stroke-width: 0.8; stroke-linecap: round"/>
     </g>
     <g id="line2d_8"/>
     <g id="text_4">
      <!-- 60 -->
      <g style="fill: #e6e6e6" transform="translate(503.266919 537.922187)scale(0.1 -0.1)">
       <defs>
        <path id="DejaVuSans-36" d="M 2113 2584 
Q 1688 2584 1439 2293 
Q 1191 2003 1191 1497 
Q 1191 994 1439 701 
Q 1688 409 2113 409 
Q 2538 409 2786 701 
Q 3034 994 3034 1497 
Q 3034 2003 2786 2293 
Q 2538 2584 2113 2584 
z
M 3366 4563 
L 3366 3988 
Q 3128 4100 2886 4159 
Q 2644 4219 2406 4219 
Q 1781 4219 1451 3797 
Q 1122 3375 1075 2522 
Q 1259 2794 1537 2939 
Q 1816 3084 2150 3084 
Q 2853 3084 3261 2657 
Q 3669 2231 3669 1497 
Q 3669 778 3244 343 
Q 2819 -91 2113 -91 
Q 1303 -91 875 529 
Q 447 1150 447 2328 
Q 447 3434 972 4092 
Q 1497 4750 2381 4750 
Q 2619 4750 2861 4703 
Q 3103 4656 3366 4563 
z
" transform="scale(0.015625)"/>
       </defs>
       <use xlink:href="#DejaVuSans-36"/>
       <use xlink:href="#DejaVuSans-30" x="63.623047"/>
      </g>
     </g>
    </g>
    <g id="xtick_5">
     <g id="line2d_9">
      <path d="M 636.653288 526.82375 
L 636.653288 21.69375 
" clip-path="url(#p20afffa8f0)" style="fill: none; stroke: #2a3459; stroke-width: 0.8; stroke-linecap: round"/>
     </g>
     <g id="line2d_10"/>
     <g id="text_5">
      <!-- 80 -->
      <g style="fill: #e6e6e6" transform="translate(630.290788 537.922187)scale(0.1 -0.1)">
       <defs>
        <path id="DejaVuSans-38" d="M 2034 2216 
Q 1584 2216 1326 1975 
Q 1069 1734 1069 1313 
Q 1069 891 1326 650 
Q 1584 409 2034 409 
Q 2484 409 2743 651 
Q 3003 894 3003 1313 
Q 3003 1734 2745 1975 
Q 2488 2216 2034 2216 
z
M 1403 2484 
Q 997 2584 770 2862 
Q 544 3141 544 3541 
Q 544 4100 942 4425 
Q 1341 4750 2034 4750 
Q 2731 4750 3128 4425 
Q 3525 4100 3525 3541 
Q 3525 3141 3298 2862 
Q 3072 2584 2669 2484 
Q 3125 2378 3379 2068 
Q 3634 1759 3634 1313 
Q 3634 634 3220 271 
Q 2806 -91 2034 -91 
Q 1263 -91 848 271 
Q 434 634 434 1313 
Q 434 1759 690 2068 
Q 947 2378 1403 2484 
z
M 1172 3481 
Q 1172 3119 1398 2916 
Q 1625 2713 2034 2713 
Q 2441 2713 2670 2916 
Q 2900 3119 2900 3481 
Q 2900 3844 2670 4047 
Q 2441 4250 2034 4250 
Q 1625 4250 1398 4047 
Q 1172 3844 1172 3481 
z
" transform="scale(0.015625)"/>
       </defs>
       <use xlink:href="#DejaVuSans-38"/>
       <use xlink:href="#DejaVuSans-30" x="63.623047"/>
      </g>
     </g>
    </g>
    <g id="xtick_6">
     <g id="line2d_11">
      <path d="M 763.677157 526.82375 
L 763.677157 21.69375 
" clip-path="url(#p20afffa8f0)" style="fill: none; stroke: #2a3459; stroke-width: 0.8; stroke-linecap: round"/>
     </g>
     <g id="line2d_12"/>
     <g id="text_6">
      <!-- 100 -->
      <g style="fill: #e6e6e6" transform="translate(754.133407 537.922187)scale(0.1 -0.1)">
       <defs>
        <path id="DejaVuSans-31" d="M 794 531 
L 1825 531 
L 1825 4091 
L 703 3866 
L 703 4441 
L 1819 4666 
L 2450 4666 
L 2450 531 
L 3481 531 
L 3481 0 
L 794 0 
L 794 531 
z
" transform="scale(0.015625)"/>
       </defs>
       <use xlink:href="#DejaVuSans-31"/>
       <use xlink:href="#DejaVuSans-30" x="63.623047"/>
       <use xlink:href="#DejaVuSans-30" x="127.246094"/>
      </g>
     </g>
    </g>
    <g id="text_7">
     <!-- % of whole region -->
     <g style="fill: #e6e6e6" transform="translate(417.397656 551.600312)scale(0.1 -0.1)">
      <defs>
       <path id="DejaVuSans-25" d="M 4653 2053 
Q 4381 2053 4226 1822 
Q 4072 1591 4072 1178 
Q 4072 772 4226 539 
Q 4381 306 4653 306 
Q 4919 306 5073 539 
Q 5228 772 5228 1178 
Q 5228 1588 5073 1820 
Q 4919 2053 4653 2053 
z
M 4653 2450 
Q 5147 2450 5437 2106 
Q 5728 1763 5728 1178 
Q 5728 594 5436 251 
Q 5144 -91 4653 -91 
Q 4153 -91 3862 251 
Q 3572 594 3572 1178 
Q 3572 1766 3864 2108 
Q 4156 2450 4653 2450 
z
M 1428 4353 
Q 1159 4353 1004 4120 
Q 850 3888 850 3481 
Q 850 3069 1003 2837 
Q 1156 2606 1428 2606 
Q 1700 2606 1854 2837 
Q 2009 3069 2009 3481 
Q 2009 3884 1853 4118 
Q 1697 4353 1428 4353 
z
M 4250 4750 
L 4750 4750 
L 1831 -91 
L 1331 -91 
L 4250 4750 
z
M 1428 4750 
Q 1922 4750 2215 4408 
Q 2509 4066 2509 3481 
Q 2509 2891 2217 2550 
Q 1925 2209 1428 2209 
Q 931 2209 642 2551 
Q 353 2894 353 3481 
Q 353 4063 643 4406 
Q 934 4750 1428 4750 
z
" transform="scale(0.015625)"/>
       <path id="DejaVuSans-20" transform="scale(0.015625)"/>
       <path id="DejaVuSans-6f" d="M 1959 3097 
Q 1497 3097 1228 2736 
Q 959 2375 959 1747 
Q 959 1119 1226 758 
Q 1494 397 1959 397 
Q 2419 397 2687 759 
Q 2956 1122 2956 1747 
Q 2956 2369 2687 2733 
Q 2419 3097 1959 3097 
z
M 1959 3584 
Q 2709 3584 3137 3096 
Q 3566 2609 3566 1747 
Q 3566 888 3137 398 
Q 2709 -91 1959 -91 
Q 1206 -91 779 398 
Q 353 888 353 1747 
Q 353 2609 779 3096 
Q 1206 3584 1959 3584 
z
" transform="scale(0.015625)"/>
       <path id="DejaVuSans-66" d="M 2375 4863 
L 2375 4384 
L 1825 4384 
Q 1516 4384 1395 4259 
Q 1275 4134 1275 3809 
L 1275 3500 
L 2222 3500 
L 2222 3053 
L 1275 3053 
L 1275 0 
L 697 0 
L 697 3053 
L 147 3053 
L 147 3500 
L 697 3500 
L 697 3744 
Q 697 4328 969 4595 
Q 1241 4863 1831 4863 
L 2375 4863 
z
" transform="scale(0.015625)"/>
       <path id="DejaVuSans-77" d="M 269 3500 
L 844 3500 
L 1563 769 
L 2278 3500 
L 2956 3500 
L 3675 769 
L 4391 3500 
L 4966 3500 
L 4050 0 
L 3372 0 
L 2619 2869 
L 1863 0 
L 1184 0 
L 269 3500 
z
" transform="scale(0.015625)"/>
       <path id="DejaVuSans-68" d="M 3513 2113 
L 3513 0 
L 2938 0 
L 2938 2094 
Q 2938 2591 2744 2837 
Q 2550 3084 2163 3084 
Q 1697 3084 1428 2787 
Q 1159 2491 1159 1978 
L 1159 0 
L 581 0 
L 581 4863 
L 1159 4863 
L 1159 2956 
Q 1366 3272 1645 3428 
Q 1925 3584 2291 3584 
Q 2894 3584 3203 3211 
Q 3513 2838 3513 2113 
z
" transform="scale(0.015625)"/>
       <path id="DejaVuSans-6c" d="M 603 4863 
L 1178 4863 
L 1178 0 
L 603 0 
L 603 4863 
z
" transform="scale(0.015625)"/>
       <path id="DejaVuSans-65" d="M 3597 1894 
L 3597 1613 
L 953 1613 
Q 991 1019 1311 708 
Q 1631 397 2203 397 
Q 2534 397 2845 478 
Q 3156 559 3463 722 
L 3463 178 
Q 3153 47 2828 -22 
Q 2503 -91 2169 -91 
Q 1331 -91 842 396 
Q 353 884 353 1716 
Q 353 2575 817 3079 
Q 1281 3584 2069 3584 
Q 2775 3584 3186 3129 
Q 3597 2675 3597 1894 
z
M 3022 2063 
Q 3016 2534 2758 2815 
Q 2500 3097 2075 3097 
Q 1594 3097 1305 2825 
Q 1016 2553 972 2059 
L 3022 2063 
z
" transform="scale(0.015625)"/>
       <path id="DejaVuSans-72" d="M 2631 2963 
Q 2534 3019 2420 3045 
Q 2306 3072 2169 3072 
Q 1681 3072 1420 2755 
Q 1159 2438 1159 1844 
L 1159 0 
L 581 0 
L 581 3500 
L 1159 3500 
L 1159 2956 
Q 1341 3275 1631 3429 
Q 1922 3584 2338 3584 
Q 2397 3584 2469 3576 
Q 2541 3569 2628 3553 
L 2631 2963 
z
" transform="scale(0.015625)"/>
       <path id="DejaVuSans-67" d="M 2906 1791 
Q 2906 2416 2648 2759 
Q 2391 3103 1925 3103 
Q 1463 3103 1205 2759 
Q 947 2416 947 1791 
Q 947 1169 1205 825 
Q 1463 481 1925 481 
Q 2391 481 2648 825 
Q 2906 1169 2906 1791 
z
M 3481 434 
Q 3481 -459 3084 -895 
Q 2688 -1331 1869 -1331 
Q 1566 -1331 1297 -1286 
Q 1028 -1241 775 -1147 
L 775 -588 
Q 1028 -725 1275 -790 
Q 1522 -856 1778 -856 
Q 2344 -856 2625 -561 
Q 2906 -266 2906 331 
L 2906 616 
Q 2728 306 2450 153 
Q 2172 0 1784 0 
Q 1141 0 747 490 
Q 353 981 353 1791 
Q 353 2603 747 3093 
Q 1141 3584 1784 3584 
Q 2172 3584 2450 3431 
Q 2728 3278 2906 2969 
L 2906 3500 
L 3481 3500 
L 3481 434 
z
" transform="scale(0.015625)"/>
       <path id="DejaVuSans-69" d="M 603 3500 
L 1178 3500 
L 1178 0 
L 603 0 
L 603 3500 
z
M 603 4863 
L 1178 4863 
L 1178 4134 
L 603 4134 
L 603 4863 
z
" transform="scale(0.015625)"/>
       <path id="DejaVuSans-6e" d="M 3513 2113 
L 3513 0 
L 2938 0 
L 2938 2094 
Q 2938 2591 2744 2837 
Q 2550 3084 2163 3084 
Q 1697 3084 1428 2787 
Q 1159 2491 1159 1978 
L 1159 0 
L 581 0 
L 581 3500 
L 1159 3500 
L 1159 2956 
Q 1366 3272 1645 3428 
Q 1925 3584 2291 3584 
Q 2894 3584 3203 3211 
Q 3513 2838 3513 2113 
z
" transform="scale(0.015625)"/>
      </defs>
      <use xlink:href="#DejaVuSans-25"/>
      <use xlink:href="#DejaVuSans-20" x="95.019531"/>
      <use xlink:href="#DejaVuSans-6f" x="126.806641"/>
      <use xlink:href="#DejaVuSans-66" x="187.988281"/>
      <use xlink:href="#DejaVuSans-20" x="223.193359"/>
      <use xlink:href="#DejaVuSans-77" x="254.980469"/>
      <use xlink:href="#DejaVuSans-68" x="336.767578"/>
      <use xlink:href="#DejaVuSans-6f" x="400.146484"/>
      <use xlink:href="#DejaVuSans-6c" x="461.328125"/>
      <use xlink:href="#DejaVuSans-65" x="489.111328"/>
      <use xlink:href="#DejaVuSans-20" x="550.634766"/>
      <use xlink:href="#DejaVuSans-72" x="582.421875"/>
      <use xlink:href="#DejaVuSans-65" x="621.285156"/>
      <use xlink:href="#DejaVuSans-67" x="682.808594"/>
      <use xlink:href="#DejaVuSans-69" x="746.285156"/>
      <use xlink:href="#DejaVuSans-6f" x="774.068359"/>
      <use xlink:href="#DejaVuSans-6e" x="835.25"/>
     </g>
    </g>
   </g>
   <g id="matplotlib.axis_2">
    <g id="ytick_1">
     <g id="line2d_13">
      <path d="M 128.557813 492.237749 
L 796.1 492.237749 
" clip-path="url(#p20afffa8f0)" style="fill: none; stroke: #2a3459; stroke-width: 0.8; stroke-linecap: round"/>
     </g>
     <g id="line2d_14"/>
     <g id="text_8">
      <!-- DOLNOSLASKIE -->
      <g style="fill: #e6e6e6" transform="translate(47.4 496.036968)scale(0.1 -0.1)">
       <defs>
        <path id="DejaVuSans-44" d="M 1259 4147 
L 1259 519 
L 2022 519 
Q 2988 519 3436 956 
Q 3884 1394 3884 2338 
Q 3884 3275 3436 3711 
Q 2988 4147 2022 4147 
L 1259 4147 
z
M 628 4666 
L 1925 4666 
Q 3281 4666 3915 4102 
Q 4550 3538 4550 2338 
Q 4550 1131 3912 565 
Q 3275 0 1925 0 
L 628 0 
L 628 4666 
z
" transform="scale(0.015625)"/>
        <path id="DejaVuSans-4f" d="M 2522 4238 
Q 1834 4238 1429 3725 
Q 1025 3213 1025 2328 
Q 1025 1447 1429 934 
Q 1834 422 2522 422 
Q 3209 422 3611 934 
Q 4013 1447 4013 2328 
Q 4013 3213 3611 3725 
Q 3209 4238 2522 4238 
z
M 2522 4750 
Q 3503 4750 4090 4092 
Q 4678 3434 4678 2328 
Q 4678 1225 4090 567 
Q 3503 -91 2522 -91 
Q 1538 -91 948 565 
Q 359 1222 359 2328 
Q 359 3434 948 4092 
Q 1538 4750 2522 4750 
z
" transform="scale(0.015625)"/>
        <path id="DejaVuSans-4c" d="M 628 4666 
L 1259 4666 
L 1259 531 
L 3531 531 
L 3531 0 
L 628 0 
L 628 4666 
z
" transform="scale(0.015625)"/>
        <path id="DejaVuSans-4e" d="M 628 4666 
L 1478 4666 
L 3547 763 
L 3547 4666 
L 4159 4666 
L 4159 0 
L 3309 0 
L 1241 3903 
L 1241 0 
L 628 0 
L 628 4666 
z
" transform="scale(0.015625)"/>
        <path id="DejaVuSans-53" d="M 3425 4513 
L 3425 3897 
Q 3066 4069 2747 4153 
Q 2428 4238 2131 4238 
Q 1616 4238 1336 4038 
Q 1056 3838 1056 3469 
Q 1056 3159 1242 3001 
Q 1428 2844 1947 2747 
L 2328 2669 
Q 3034 2534 3370 2195 
Q 3706 1856 3706 1288 
Q 3706 609 3251 259 
Q 2797 -91 1919 -91 
Q 1588 -91 1214 -16 
Q 841 59 441 206 
L 441 856 
Q 825 641 1194 531 
Q 1563 422 1919 422 
Q 2459 422 2753 634 
Q 3047 847 3047 1241 
Q 3047 1584 2836 1778 
Q 2625 1972 2144 2069 
L 1759 2144 
Q 1053 2284 737 2584 
Q 422 2884 422 3419 
Q 422 4038 858 4394 
Q 1294 4750 2059 4750 
Q 2388 4750 2728 4690 
Q 3069 4631 3425 4513 
z
" transform="scale(0.015625)"/>
        <path id="DejaVuSans-41" d="M 2188 4044 
L 1331 1722 
L 3047 1722 
L 2188 4044 
z
M 1831 4666 
L 2547 4666 
L 4325 0 
L 3669 0 
L 3244 1197 
L 1141 1197 
L 716 0 
L 50 0 
L 1831 4666 
z
" transform="scale(0.015625)"/>
        <path id="DejaVuSans-4b" d="M 628 4666 
L 1259 4666 
L 1259 2694 
L 3353 4666 
L 4166 4666 
L 1850 2491 
L 4331 0 
L 3500 0 
L 1259 2247 
L 1259 0 
L 628 0 
L 628 4666 
z
" transform="scale(0.015625)"/>
        <path id="DejaVuSans-49" d="M 628 4666 
L 1259 4666 
L 1259 0 
L 628 0 
L 628 4666 
z
" transform="scale(0.015625)"/>
        <path id="DejaVuSans-45" d="M 628 4666 
L 3578 4666 
L 3578 4134 
L 1259 4134 
L 1259 2753 
L 3481 2753 
L 3481 2222 
L 1259 2222 
L 1259 531 
L 3634 531 
L 3634 0 
L 628 0 
L 628 4666 
z
" transform="scale(0.015625)"/>
       </defs>
       <use xlink:href="#DejaVuSans-44"/>
       <use xlink:href="#DejaVuSans-4f" x="77.001953"/>
       <use xlink:href="#DejaVuSans-4c" x="155.712891"/>
       <use xlink:href="#DejaVuSans-4e" x="211.425781"/>
       <use xlink:href="#DejaVuSans-4f" x="286.230469"/>
       <use xlink:href="#DejaVuSans-53" x="364.941406"/>
       <use xlink:href="#DejaVuSans-4c" x="428.417969"/>
       <use xlink:href="#DejaVuSans-41" x="486.380859"/>
       <use xlink:href="#DejaVuSans-53" x="554.789062"/>
       <use xlink:href="#DejaVuSans-4b" x="618.265625"/>
       <use xlink:href="#DejaVuSans-49" x="683.841797"/>
       <use xlink:href="#DejaVuSans-45" x="713.333984"/>
      </g>
     </g>
    </g>
    <g id="ytick_2">
     <g id="line2d_15">
      <path d="M 128.557813 463.173882 
L 796.1 463.173882 
" clip-path="url(#p20afffa8f0)" style="fill: none; stroke: #2a3459; stroke-width: 0.8; stroke-linecap: round"/>
     </g>
     <g id="line2d_16"/>
     <g id="text_9">
      <!-- KUJAWSKO-POMORSKIE -->
      <g style="fill: #e6e6e6" transform="translate(8.854688 466.973101)scale(0.1 -0.1)">
       <defs>
        <path id="DejaVuSans-55" d="M 556 4666 
L 1191 4666 
L 1191 1831 
Q 1191 1081 1462 751 
Q 1734 422 2344 422 
Q 2950 422 3222 751 
Q 3494 1081 3494 1831 
L 3494 4666 
L 4128 4666 
L 4128 1753 
Q 4128 841 3676 375 
Q 3225 -91 2344 -91 
Q 1459 -91 1007 375 
Q 556 841 556 1753 
L 556 4666 
z
" transform="scale(0.015625)"/>
        <path id="DejaVuSans-4a" d="M 628 4666 
L 1259 4666 
L 1259 325 
Q 1259 -519 939 -900 
Q 619 -1281 -91 -1281 
L -331 -1281 
L -331 -750 
L -134 -750 
Q 284 -750 456 -515 
Q 628 -281 628 325 
L 628 4666 
z
" transform="scale(0.015625)"/>
        <path id="DejaVuSans-57" d="M 213 4666 
L 850 4666 
L 1831 722 
L 2809 4666 
L 3519 4666 
L 4500 722 
L 5478 4666 
L 6119 4666 
L 4947 0 
L 4153 0 
L 3169 4050 
L 2175 0 
L 1381 0 
L 213 4666 
z
" transform="scale(0.015625)"/>
        <path id="DejaVuSans-2d" d="M 313 2009 
L 1997 2009 
L 1997 1497 
L 313 1497 
L 313 2009 
z
" transform="scale(0.015625)"/>
        <path id="DejaVuSans-50" d="M 1259 4147 
L 1259 2394 
L 2053 2394 
Q 2494 2394 2734 2622 
Q 2975 2850 2975 3272 
Q 2975 3691 2734 3919 
Q 2494 4147 2053 4147 
L 1259 4147 
z
M 628 4666 
L 2053 4666 
Q 2838 4666 3239 4311 
Q 3641 3956 3641 3272 
Q 3641 2581 3239 2228 
Q 2838 1875 2053 1875 
L 1259 1875 
L 1259 0 
L 628 0 
L 628 4666 
z
" transform="scale(0.015625)"/>
        <path id="DejaVuSans-4d" d="M 628 4666 
L 1569 4666 
L 2759 1491 
L 3956 4666 
L 4897 4666 
L 4897 0 
L 4281 0 
L 4281 4097 
L 3078 897 
L 2444 897 
L 1241 4097 
L 1241 0 
L 628 0 
L 628 4666 
z
" transform="scale(0.015625)"/>
        <path id="DejaVuSans-52" d="M 2841 2188 
Q 3044 2119 3236 1894 
Q 3428 1669 3622 1275 
L 4263 0 
L 3584 0 
L 2988 1197 
Q 2756 1666 2539 1819 
Q 2322 1972 1947 1972 
L 1259 1972 
L 1259 0 
L 628 0 
L 628 4666 
L 2053 4666 
Q 2853 4666 3247 4331 
Q 3641 3997 3641 3322 
Q 3641 2881 3436 2590 
Q 3231 2300 2841 2188 
z
M 1259 4147 
L 1259 2491 
L 2053 2491 
Q 2509 2491 2742 2702 
Q 2975 2913 2975 3322 
Q 2975 3731 2742 3939 
Q 2509 4147 2053 4147 
L 1259 4147 
z
" transform="scale(0.015625)"/>
       </defs>
       <use xlink:href="#DejaVuSans-4b"/>
       <use xlink:href="#DejaVuSans-55" x="62.951172"/>
       <use xlink:href="#DejaVuSans-4a" x="136.144531"/>
       <use xlink:href="#DejaVuSans-41" x="163.886719"/>
       <use xlink:href="#DejaVuSans-57" x="226.794922"/>
       <use xlink:href="#DejaVuSans-53" x="325.671875"/>
       <use xlink:href="#DejaVuSans-4b" x="389.148438"/>
       <use xlink:href="#DejaVuSans-4f" x="449.224609"/>
       <use xlink:href="#DejaVuSans-2d" x="530.685547"/>
       <use xlink:href="#DejaVuSans-50" x="566.769531"/>
       <use xlink:href="#DejaVuSans-4f" x="627.072266"/>
       <use xlink:href="#DejaVuSans-4d" x="705.783203"/>
       <use xlink:href="#DejaVuSans-4f" x="792.0625"/>
       <use xlink:href="#DejaVuSans-52" x="870.773438"/>
       <use xlink:href="#DejaVuSans-53" x="940.255859"/>
       <use xlink:href="#DejaVuSans-4b" x="1003.732422"/>
       <use xlink:href="#DejaVuSans-49" x="1069.308594"/>
       <use xlink:href="#DejaVuSans-45" x="1098.800781"/>
      </g>
     </g>
    </g>
    <g id="ytick_3">
     <g id="line2d_17">
      <path d="M 128.557813 434.110016 
L 796.1 434.110016 
" clip-path="url(#p20afffa8f0)" style="fill: none; stroke: #2a3459; stroke-width: 0.8; stroke-linecap: round"/>
     </g>
     <g id="line2d_18"/>
     <g id="text_10">
      <!-- LUBELSKIE -->
      <g style="fill: #e6e6e6" transform="translate(71.740625 437.909235)scale(0.1 -0.1)">
       <defs>
        <path id="DejaVuSans-42" d="M 1259 2228 
L 1259 519 
L 2272 519 
Q 2781 519 3026 730 
Q 3272 941 3272 1375 
Q 3272 1813 3026 2020 
Q 2781 2228 2272 2228 
L 1259 2228 
z
M 1259 4147 
L 1259 2741 
L 2194 2741 
Q 2656 2741 2882 2914 
Q 3109 3088 3109 3444 
Q 3109 3797 2882 3972 
Q 2656 4147 2194 4147 
L 1259 4147 
z
M 628 4666 
L 2241 4666 
Q 2963 4666 3353 4366 
Q 3744 4066 3744 3513 
Q 3744 3084 3544 2831 
Q 3344 2578 2956 2516 
Q 3422 2416 3680 2098 
Q 3938 1781 3938 1306 
Q 3938 681 3513 340 
Q 3088 0 2303 0 
L 628 0 
L 628 4666 
z
" transform="scale(0.015625)"/>
       </defs>
       <use xlink:href="#DejaVuSans-4c"/>
       <use xlink:href="#DejaVuSans-55" x="50.712891"/>
       <use xlink:href="#DejaVuSans-42" x="123.90625"/>
       <use xlink:href="#DejaVuSans-45" x="192.509766"/>
       <use xlink:href="#DejaVuSans-4c" x="255.693359"/>
       <use xlink:href="#DejaVuSans-53" x="311.40625"/>
       <use xlink:href="#DejaVuSans-4b" x="374.882812"/>
       <use xlink:href="#DejaVuSans-49" x="440.458984"/>
       <use xlink:href="#DejaVuSans-45" x="469.951172"/>
      </g>
     </g>
    </g>
    <g id="ytick_4">
     <g id="line2d_19">
      <path d="M 128.557813 405.046149 
L 796.1 405.046149 
" clip-path="url(#p20afffa8f0)" style="fill: none; stroke: #2a3459; stroke-width: 0.8; stroke-linecap: round"/>
     </g>
     <g id="line2d_20"/>
     <g id="text_11">
      <!-- LUBUSKIE -->
      <g style="fill: #e6e6e6" transform="translate(76.3125 408.845368)scale(0.1 -0.1)">
       <use xlink:href="#DejaVuSans-4c"/>
       <use xlink:href="#DejaVuSans-55" x="50.712891"/>
       <use xlink:href="#DejaVuSans-42" x="123.90625"/>
       <use xlink:href="#DejaVuSans-55" x="192.509766"/>
       <use xlink:href="#DejaVuSans-53" x="265.703125"/>
       <use xlink:href="#DejaVuSans-4b" x="329.179688"/>
       <use xlink:href="#DejaVuSans-49" x="394.755859"/>
       <use xlink:href="#DejaVuSans-45" x="424.248047"/>
      </g>
     </g>
    </g>
    <g id="ytick_5">
     <g id="line2d_21">
      <path d="M 128.557813 375.982283 
L 796.1 375.982283 
" clip-path="url(#p20afffa8f0)" style="fill: none; stroke: #2a3459; stroke-width: 0.8; stroke-linecap: round"/>
     </g>
     <g id="line2d_22"/>
     <g id="text_12">
      <!-- LODZKIE -->
      <g style="fill: #e6e6e6" transform="translate(81.6 379.781502)scale(0.1 -0.1)">
       <defs>
        <path id="DejaVuSans-5a" d="M 359 4666 
L 4025 4666 
L 4025 4184 
L 1075 531 
L 4097 531 
L 4097 0 
L 288 0 
L 288 481 
L 3238 4134 
L 359 4134 
L 359 4666 
z
" transform="scale(0.015625)"/>
       </defs>
       <use xlink:href="#DejaVuSans-4c"/>
       <use xlink:href="#DejaVuSans-4f" x="52.087891"/>
       <use xlink:href="#DejaVuSans-44" x="130.798828"/>
       <use xlink:href="#DejaVuSans-5a" x="207.800781"/>
       <use xlink:href="#DejaVuSans-4b" x="276.306641"/>
       <use xlink:href="#DejaVuSans-49" x="341.882812"/>
       <use xlink:href="#DejaVuSans-45" x="371.375"/>
      </g>
     </g>
    </g>
    <g id="ytick_6">
     <g id="line2d_23">
      <path d="M 128.557813 346.918416 
L 796.1 346.918416 
" clip-path="url(#p20afffa8f0)" style="fill: none; stroke: #2a3459; stroke-width: 0.8; stroke-linecap: round"/>
     </g>
     <g id="line2d_24"/>
     <g id="text_13">
      <!-- MALOPOLSKIE -->
      <g style="fill: #e6e6e6" transform="translate(54.859375 350.717635)scale(0.1 -0.1)">
       <use xlink:href="#DejaVuSans-4d"/>
       <use xlink:href="#DejaVuSans-41" x="86.279297"/>
       <use xlink:href="#DejaVuSans-4c" x="154.6875"/>
       <use xlink:href="#DejaVuSans-4f" x="206.775391"/>
       <use xlink:href="#DejaVuSans-50" x="285.486328"/>
       <use xlink:href="#DejaVuSans-4f" x="345.789062"/>
       <use xlink:href="#DejaVuSans-4c" x="424.5"/>
       <use xlink:href="#DejaVuSans-53" x="480.212891"/>
       <use xlink:href="#DejaVuSans-4b" x="543.689453"/>
       <use xlink:href="#DejaVuSans-49" x="609.265625"/>
       <use xlink:href="#DejaVuSans-45" x="638.757812"/>
      </g>
     </g>
    </g>
    <g id="ytick_7">
     <g id="line2d_25">
      <path d="M 128.557813 317.85455 
L 796.1 317.85455 
" clip-path="url(#p20afffa8f0)" style="fill: none; stroke: #2a3459; stroke-width: 0.8; stroke-linecap: round"/>
     </g>
     <g id="line2d_26"/>
     <g id="text_14">
      <!-- MAZOWIECKIE -->
      <g style="fill: #e6e6e6" transform="translate(52.901563 321.653769)scale(0.1 -0.1)">
       <defs>
        <path id="DejaVuSans-43" d="M 4122 4306 
L 4122 3641 
Q 3803 3938 3442 4084 
Q 3081 4231 2675 4231 
Q 1875 4231 1450 3742 
Q 1025 3253 1025 2328 
Q 1025 1406 1450 917 
Q 1875 428 2675 428 
Q 3081 428 3442 575 
Q 3803 722 4122 1019 
L 4122 359 
Q 3791 134 3420 21 
Q 3050 -91 2638 -91 
Q 1578 -91 968 557 
Q 359 1206 359 2328 
Q 359 3453 968 4101 
Q 1578 4750 2638 4750 
Q 3056 4750 3426 4639 
Q 3797 4528 4122 4306 
z
" transform="scale(0.015625)"/>
       </defs>
       <use xlink:href="#DejaVuSans-4d"/>
       <use xlink:href="#DejaVuSans-41" x="86.279297"/>
       <use xlink:href="#DejaVuSans-5a" x="154.6875"/>
       <use xlink:href="#DejaVuSans-4f" x="223.193359"/>
       <use xlink:href="#DejaVuSans-57" x="301.904297"/>
       <use xlink:href="#DejaVuSans-49" x="400.78125"/>
       <use xlink:href="#DejaVuSans-45" x="430.273438"/>
       <use xlink:href="#DejaVuSans-43" x="493.457031"/>
       <use xlink:href="#DejaVuSans-4b" x="563.28125"/>
       <use xlink:href="#DejaVuSans-49" x="628.857422"/>
       <use xlink:href="#DejaVuSans-45" x="658.349609"/>
      </g>
     </g>
    </g>
    <g id="ytick_8">
     <g id="line2d_27">
      <path d="M 128.557813 288.790683 
L 796.1 288.790683 
" clip-path="url(#p20afffa8f0)" style="fill: none; stroke: #2a3459; stroke-width: 0.8; stroke-linecap: round"/>
     </g>
     <g id="line2d_28"/>
     <g id="text_15">
      <!-- OPOLSKIE -->
      <g style="fill: #e6e6e6" transform="translate(75.5375 292.589902)scale(0.1 -0.1)">
       <use xlink:href="#DejaVuSans-4f"/>
       <use xlink:href="#DejaVuSans-50" x="78.710938"/>
       <use xlink:href="#DejaVuSans-4f" x="139.013672"/>
       <use xlink:href="#DejaVuSans-4c" x="217.724609"/>
       <use xlink:href="#DejaVuSans-53" x="273.4375"/>
       <use xlink:href="#DejaVuSans-4b" x="336.914062"/>
       <use xlink:href="#DejaVuSans-49" x="402.490234"/>
       <use xlink:href="#DejaVuSans-45" x="431.982422"/>
      </g>
     </g>
    </g>
    <g id="ytick_9">
     <g id="line2d_29">
      <path d="M 128.557813 259.726817 
L 796.1 259.726817 
" clip-path="url(#p20afffa8f0)" style="fill: none; stroke: #2a3459; stroke-width: 0.8; stroke-linecap: round"/>
     </g>
     <g id="line2d_30"/>
     <g id="text_16">
      <!-- PODKARPACKIE -->
      <g style="fill: #e6e6e6" transform="translate(48.417188 263.526035)scale(0.1 -0.1)">
       <use xlink:href="#DejaVuSans-50"/>
       <use xlink:href="#DejaVuSans-4f" x="60.302734"/>
       <use xlink:href="#DejaVuSans-44" x="139.013672"/>
       <use xlink:href="#DejaVuSans-4b" x="216.015625"/>
       <use xlink:href="#DejaVuSans-41" x="279.841797"/>
       <use xlink:href="#DejaVuSans-52" x="348.25"/>
       <use xlink:href="#DejaVuSans-50" x="417.732422"/>
       <use xlink:href="#DejaVuSans-41" x="471.660156"/>
       <use xlink:href="#DejaVuSans-43" x="538.318359"/>
       <use xlink:href="#DejaVuSans-4b" x="608.142578"/>
       <use xlink:href="#DejaVuSans-49" x="673.71875"/>
       <use xlink:href="#DejaVuSans-45" x="703.210938"/>
      </g>
     </g>
    </g>
    <g id="ytick_10">
     <g id="line2d_31">
      <path d="M 128.557813 230.66295 
L 796.1 230.66295 
" clip-path="url(#p20afffa8f0)" style="fill: none; stroke: #2a3459; stroke-width: 0.8; stroke-linecap: round"/>
     </g>
     <g id="line2d_32"/>
     <g id="text_17">
      <!-- PODLASKIE -->
      <g style="fill: #e6e6e6" transform="translate(68.64375 234.462169)scale(0.1 -0.1)">
       <use xlink:href="#DejaVuSans-50"/>
       <use xlink:href="#DejaVuSans-4f" x="60.302734"/>
       <use xlink:href="#DejaVuSans-44" x="139.013672"/>
       <use xlink:href="#DejaVuSans-4c" x="216.015625"/>
       <use xlink:href="#DejaVuSans-41" x="273.978516"/>
       <use xlink:href="#DejaVuSans-53" x="342.386719"/>
       <use xlink:href="#DejaVuSans-4b" x="405.863281"/>
       <use xlink:href="#DejaVuSans-49" x="471.439453"/>
       <use xlink:href="#DejaVuSans-45" x="500.931641"/>
      </g>
     </g>
    </g>
    <g id="ytick_11">
     <g id="line2d_33">
      <path d="M 128.557813 201.599084 
L 796.1 201.599084 
" clip-path="url(#p20afffa8f0)" style="fill: none; stroke: #2a3459; stroke-width: 0.8; stroke-linecap: round"/>
     </g>
     <g id="line2d_34"/>
     <g id="text_18">
      <!-- POMORSKIE -->
      <g style="fill: #e6e6e6" transform="translate(65.532813 205.398302)scale(0.1 -0.1)">
       <use xlink:href="#DejaVuSans-50"/>
       <use xlink:href="#DejaVuSans-4f" x="60.302734"/>
       <use xlink:href="#DejaVuSans-4d" x="139.013672"/>
       <use xlink:href="#DejaVuSans-4f" x="225.292969"/>
       <use xlink:href="#DejaVuSans-52" x="304.003906"/>
       <use xlink:href="#DejaVuSans-53" x="373.486328"/>
       <use xlink:href="#DejaVuSans-4b" x="436.962891"/>
       <use xlink:href="#DejaVuSans-49" x="502.539062"/>
       <use xlink:href="#DejaVuSans-45" x="532.03125"/>
      </g>
     </g>
    </g>
    <g id="ytick_12">
     <g id="line2d_35">
      <path d="M 128.557813 172.535217 
L 796.1 172.535217 
" clip-path="url(#p20afffa8f0)" style="fill: none; stroke: #2a3459; stroke-width: 0.8; stroke-linecap: round"/>
     </g>
     <g id="line2d_36"/>
     <g id="text_19">
      <!-- SLASKIE -->
      <g style="fill: #e6e6e6" transform="translate(83.896875 176.334436)scale(0.1 -0.1)">
       <use xlink:href="#DejaVuSans-53"/>
       <use xlink:href="#DejaVuSans-4c" x="63.476562"/>
       <use xlink:href="#DejaVuSans-41" x="121.439453"/>
       <use xlink:href="#DejaVuSans-53" x="189.847656"/>
       <use xlink:href="#DejaVuSans-4b" x="253.324219"/>
       <use xlink:href="#DejaVuSans-49" x="318.900391"/>
       <use xlink:href="#DejaVuSans-45" x="348.392578"/>
      </g>
     </g>
    </g>
    <g id="ytick_13">
     <g id="line2d_37">
      <path d="M 128.557813 143.471351 
L 796.1 143.471351 
" clip-path="url(#p20afffa8f0)" style="fill: none; stroke: #2a3459; stroke-width: 0.8; stroke-linecap: round"/>
     </g>
     <g id="line2d_38"/>
     <g id="text_20">
      <!-- SWIETOKRZYSKIE -->
      <g style="fill: #e6e6e6" transform="translate(36.934375 147.270569)scale(0.1 -0.1)">
       <defs>
        <path id="DejaVuSans-54" d="M -19 4666 
L 3928 4666 
L 3928 4134 
L 2272 4134 
L 2272 0 
L 1638 0 
L 1638 4134 
L -19 4134 
L -19 4666 
z
" transform="scale(0.015625)"/>
        <path id="DejaVuSans-59" d="M -13 4666 
L 666 4666 
L 1959 2747 
L 3244 4666 
L 3922 4666 
L 2272 2222 
L 2272 0 
L 1638 0 
L 1638 2222 
L -13 4666 
z
" transform="scale(0.015625)"/>
       </defs>
       <use xlink:href="#DejaVuSans-53"/>
       <use xlink:href="#DejaVuSans-57" x="63.476562"/>
       <use xlink:href="#DejaVuSans-49" x="162.353516"/>
       <use xlink:href="#DejaVuSans-45" x="191.845703"/>
       <use xlink:href="#DejaVuSans-54" x="255.029297"/>
       <use xlink:href="#DejaVuSans-4f" x="316.113281"/>
       <use xlink:href="#DejaVuSans-4b" x="394.824219"/>
       <use xlink:href="#DejaVuSans-52" x="460.400391"/>
       <use xlink:href="#DejaVuSans-5a" x="529.882812"/>
       <use xlink:href="#DejaVuSans-59" x="598.388672"/>
       <use xlink:href="#DejaVuSans-53" x="659.472656"/>
       <use xlink:href="#DejaVuSans-4b" x="722.949219"/>
       <use xlink:href="#DejaVuSans-49" x="788.525391"/>
       <use xlink:href="#DejaVuSans-45" x="818.017578"/>
      </g>
     </g>
    </g>
    <g id="ytick_14">
     <g id="line2d_39">
      <path d="M 128.557813 114.407484 
L 796.1 114.407484 
" clip-path="url(#p20afffa8f0)" style="fill: none; stroke: #2a3459; stroke-width: 0.8; stroke-linecap: round"/>
     </g>
     <g id="line2d_40"/>
     <g id="text_21">
      <!-- WARMINSKO-MAZURSKIE -->
      <g style="fill: #e6e6e6" transform="translate(0 118.206703)scale(0.1 -0.1)">
       <use xlink:href="#DejaVuSans-57"/>
       <use xlink:href="#DejaVuSans-41" x="93.376953"/>
       <use xlink:href="#DejaVuSans-52" x="161.785156"/>
       <use xlink:href="#DejaVuSans-4d" x="231.267578"/>
       <use xlink:href="#DejaVuSans-49" x="317.546875"/>
       <use xlink:href="#DejaVuSans-4e" x="347.039062"/>
       <use xlink:href="#DejaVuSans-53" x="421.84375"/>
       <use xlink:href="#DejaVuSans-4b" x="485.320312"/>
       <use xlink:href="#DejaVuSans-4f" x="545.396484"/>
       <use xlink:href="#DejaVuSans-2d" x="626.857422"/>
       <use xlink:href="#DejaVuSans-4d" x="662.941406"/>
       <use xlink:href="#DejaVuSans-41" x="749.220703"/>
       <use xlink:href="#DejaVuSans-5a" x="817.628906"/>
       <use xlink:href="#DejaVuSans-55" x="886.134766"/>
       <use xlink:href="#DejaVuSans-52" x="959.328125"/>
       <use xlink:href="#DejaVuSans-53" x="1028.810547"/>
       <use xlink:href="#DejaVuSans-4b" x="1092.287109"/>
       <use xlink:href="#DejaVuSans-49" x="1157.863281"/>
       <use xlink:href="#DejaVuSans-45" x="1187.355469"/>
      </g>
     </g>
    </g>
    <g id="ytick_15">
     <g id="line2d_41">
      <path d="M 128.557813 85.343618 
L 796.1 85.343618 
" clip-path="url(#p20afffa8f0)" style="fill: none; stroke: #2a3459; stroke-width: 0.8; stroke-linecap: round"/>
     </g>
     <g id="line2d_42"/>
     <g id="text_22">
      <!-- WIELKOPOLSKIE -->
      <g style="fill: #e6e6e6" transform="translate(44.801563 89.142836)scale(0.1 -0.1)">
       <use xlink:href="#DejaVuSans-57"/>
       <use xlink:href="#DejaVuSans-49" x="98.876953"/>
       <use xlink:href="#DejaVuSans-45" x="128.369141"/>
       <use xlink:href="#DejaVuSans-4c" x="191.552734"/>
       <use xlink:href="#DejaVuSans-4b" x="247.265625"/>
       <use xlink:href="#DejaVuSans-4f" x="307.341797"/>
       <use xlink:href="#DejaVuSans-50" x="386.052734"/>
       <use xlink:href="#DejaVuSans-4f" x="446.355469"/>
       <use xlink:href="#DejaVuSans-4c" x="525.066406"/>
       <use xlink:href="#DejaVuSans-53" x="580.779297"/>
       <use xlink:href="#DejaVuSans-4b" x="644.255859"/>
       <use xlink:href="#DejaVuSans-49" x="709.832031"/>
       <use xlink:href="#DejaVuSans-45" x="739.324219"/>
      </g>
     </g>
    </g>
    <g id="ytick_16">
     <g id="line2d_43">
      <path d="M 128.557813 56.279751 
L 796.1 56.279751 
" clip-path="url(#p20afffa8f0)" style="fill: none; stroke: #2a3459; stroke-width: 0.8; stroke-linecap: round"/>
     </g>
     <g id="line2d_44"/>
     <g id="text_23">
      <!-- ZACHODNIOPOMORSKIE -->
      <g style="fill: #e6e6e6" transform="translate(3.639063 60.07897)scale(0.1 -0.1)">
       <defs>
        <path id="DejaVuSans-48" d="M 628 4666 
L 1259 4666 
L 1259 2753 
L 3553 2753 
L 3553 4666 
L 4184 4666 
L 4184 0 
L 3553 0 
L 3553 2222 
L 1259 2222 
L 1259 0 
L 628 0 
L 628 4666 
z
" transform="scale(0.015625)"/>
       </defs>
       <use xlink:href="#DejaVuSans-5a"/>
       <use xlink:href="#DejaVuSans-41" x="68.505859"/>
       <use xlink:href="#DejaVuSans-43" x="135.164062"/>
       <use xlink:href="#DejaVuSans-48" x="204.988281"/>
       <use xlink:href="#DejaVuSans-4f" x="280.183594"/>
       <use xlink:href="#DejaVuSans-44" x="358.894531"/>
       <use xlink:href="#DejaVuSans-4e" x="435.896484"/>
       <use xlink:href="#DejaVuSans-49" x="510.701172"/>
       <use xlink:href="#DejaVuSans-4f" x="540.193359"/>
       <use xlink:href="#DejaVuSans-50" x="618.904297"/>
       <use xlink:href="#DejaVuSans-4f" x="679.207031"/>
       <use xlink:href="#DejaVuSans-4d" x="757.917969"/>
       <use xlink:href="#DejaVuSans-4f" x="844.197266"/>
       <use xlink:href="#DejaVuSans-52" x="922.908203"/>
       <use xlink:href="#DejaVuSans-53" x="992.390625"/>
       <use xlink:href="#DejaVuSans-4b" x="1055.867188"/>
       <use xlink:href="#DejaVuSans-49" x="1121.443359"/>
       <use xlink:href="#DejaVuSans-45" x="1150.935547"/>
      </g>
     </g>
    </g>
   </g>
   <g id="patch_3">
    <path d="M 128.557813 503.863295 
L 505.818703 503.863295 
L 505.818703 480.612202 
L 128.557813 480.612202 
z
" clip-path="url(#p20afffa8f0)" style="fill: #66c2a5"/>
   </g>
   <g id="patch_4">
    <path d="M 505.818703 503.863295 
L 700.800342 503.863295 
L 700.800342 480.612202 
L 505.818703 480.612202 
z
" clip-path="url(#p20afffa8f0)" style="fill: #fc8d62"/>
   </g>
   <g id="patch_5">
    <path d="M 700.800342 503.863295 
L 709.056894 503.863295 
L 709.056894 480.612202 
L 700.800342 480.612202 
z
" clip-path="url(#p20afffa8f0)" style="fill: #8da0cb"/>
   </g>
   <g id="patch_6">
    <path d="M 709.056894 503.863295 
L 714.137849 503.863295 
L 714.137849 480.612202 
L 709.056894 480.612202 
z
" clip-path="url(#p20afffa8f0)" style="fill: #e78ac3"/>
   </g>
   <g id="patch_7">
    <path d="M 714.137849 503.863295 
L 716.678326 503.863295 
L 716.678326 480.612202 
L 714.137849 480.612202 
z
" clip-path="url(#p20afffa8f0)" style="fill: #a6d854"/>
   </g>
   <g id="patch_8">
    <path d="M 716.678326 503.863295 
L 722.3944 503.863295 
L 722.3944 480.612202 
L 716.678326 480.612202 
z
" clip-path="url(#p20afffa8f0)" style="fill: #ffd92f"/>
   </g>
   <g id="patch_9">
    <path d="M 722.3944 503.863295 
L 726.205116 503.863295 
L 726.205116 480.612202 
L 722.3944 480.612202 
z
" clip-path="url(#p20afffa8f0)" style="fill: #e5c494"/>
   </g>
   <g id="patch_10">
    <path d="M 726.205116 503.863295 
L 763.677157 503.863295 
L 763.677157 480.612202 
L 726.205116 480.612202 
z
" clip-path="url(#p20afffa8f0)" style="fill: #b3b3b3"/>
   </g>
   <g id="patch_11">
    <path d="M 128.557813 474.799429 
L 540.115148 474.799429 
L 540.115148 451.548336 
L 128.557813 451.548336 
z
" clip-path="url(#p20afffa8f0)" style="fill: #66c2a5"/>
   </g>
   <g id="patch_12">
    <path d="M 540.115148 474.799429 
L 691.908671 474.799429 
L 691.908671 451.548336 
L 540.115148 451.548336 
z
" clip-path="url(#p20afffa8f0)" style="fill: #fc8d62"/>
   </g>
   <g id="patch_13">
    <path d="M 691.908671 474.799429 
L 699.530104 474.799429 
L 699.530104 451.548336 
L 691.908671 451.548336 
z
" clip-path="url(#p20afffa8f0)" style="fill: #8da0cb"/>
   </g>
   <g id="patch_14">
    <path d="M 699.530104 474.799429 
L 702.070581 474.799429 
L 702.070581 451.548336 
L 699.530104 451.548336 
z
" clip-path="url(#p20afffa8f0)" style="fill: #e78ac3"/>
   </g>
   <g id="patch_15">
    <path d="M 702.070581 474.799429 
L 703.34082 474.799429 
L 703.34082 451.548336 
L 702.070581 451.548336 
z
" clip-path="url(#p20afffa8f0)" style="fill: #a6d854"/>
   </g>
   <g id="patch_16">
    <path d="M 703.34082 474.799429 
L 720.489042 474.799429 
L 720.489042 451.548336 
L 703.34082 451.548336 
z
" clip-path="url(#p20afffa8f0)" style="fill: #ffd92f"/>
   </g>
   <g id="patch_17">
    <path d="M 720.489042 474.799429 
L 735.096787 474.799429 
L 735.096787 451.548336 
L 720.489042 451.548336 
z
" clip-path="url(#p20afffa8f0)" style="fill: #e5c494"/>
   </g>
   <g id="patch_18">
    <path d="M 735.096787 474.799429 
L 763.042038 474.799429 
L 763.042038 451.548336 
L 735.096787 451.548336 
z
" clip-path="url(#p20afffa8f0)" style="fill: #b3b3b3"/>
   </g>
   <g id="patch_19">
    <path d="M 128.557813 445.735562 
L 574.411593 445.735562 
L 574.411593 422.484469 
L 128.557813 422.484469 
z
" clip-path="url(#p20afffa8f0)" style="fill: #66c2a5"/>
   </g>
   <g id="patch_20">
    <path d="M 574.411593 445.735562 
L 723.029519 445.735562 
L 723.029519 422.484469 
L 574.411593 422.484469 
z
" clip-path="url(#p20afffa8f0)" style="fill: #fc8d62"/>
   </g>
   <g id="patch_21">
    <path d="M 723.029519 445.735562 
L 726.205116 445.735562 
L 726.205116 422.484469 
L 723.029519 422.484469 
z
" clip-path="url(#p20afffa8f0)" style="fill: #8da0cb"/>
   </g>
   <g id="patch_22">
    <path d="M 726.205116 445.735562 
L 727.475355 445.735562 
L 727.475355 422.484469 
L 726.205116 422.484469 
z
" clip-path="url(#p20afffa8f0)" style="fill: #e78ac3"/>
   </g>
   <g id="patch_23">
    <path d="M 727.475355 445.735562 
L 728.110474 445.735562 
L 728.110474 422.484469 
L 727.475355 422.484469 
z
" clip-path="url(#p20afffa8f0)" style="fill: #a6d854"/>
   </g>
   <g id="patch_24">
    <path d="M 728.110474 445.735562 
L 733.191429 445.735562 
L 733.191429 422.484469 
L 728.110474 422.484469 
z
" clip-path="url(#p20afffa8f0)" style="fill: #ffd92f"/>
   </g>
   <g id="patch_25">
    <path d="M 733.191429 445.735562 
L 738.907503 445.735562 
L 738.907503 422.484469 
L 733.191429 422.484469 
z
" clip-path="url(#p20afffa8f0)" style="fill: #e5c494"/>
   </g>
   <g id="patch_26">
    <path d="M 738.907503 445.735562 
L 763.677157 445.735562 
L 763.677157 422.484469 
L 738.907503 422.484469 
z
" clip-path="url(#p20afffa8f0)" style="fill: #b3b3b3"/>
   </g>
   <g id="patch_27">
    <path d="M 128.557813 416.671696 
L 385.781147 416.671696 
L 385.781147 393.420603 
L 128.557813 393.420603 
z
" clip-path="url(#p20afffa8f0)" style="fill: #66c2a5"/>
   </g>
   <g id="patch_28">
    <path d="M 385.781147 416.671696 
L 709.056894 416.671696 
L 709.056894 393.420603 
L 385.781147 393.420603 
z
" clip-path="url(#p20afffa8f0)" style="fill: #fc8d62"/>
   </g>
   <g id="patch_29">
    <path d="M 709.056894 416.671696 
L 714.137849 416.671696 
L 714.137849 393.420603 
L 709.056894 393.420603 
z
" clip-path="url(#p20afffa8f0)" style="fill: #8da0cb"/>
   </g>
   <g id="patch_30">
    <path d="M 714.137849 416.671696 
L 716.043207 416.671696 
L 716.043207 393.420603 
L 714.137849 393.420603 
z
" clip-path="url(#p20afffa8f0)" style="fill: #e78ac3"/>
   </g>
   <g id="patch_31">
    <path d="M 716.043207 416.671696 
L 717.948565 416.671696 
L 717.948565 393.420603 
L 716.043207 393.420603 
z
" clip-path="url(#p20afffa8f0)" style="fill: #a6d854"/>
   </g>
   <g id="patch_32">
    <path d="M 717.948565 416.671696 
L 729.380713 416.671696 
L 729.380713 393.420603 
L 717.948565 393.420603 
z
" clip-path="url(#p20afffa8f0)" style="fill: #ffd92f"/>
   </g>
   <g id="patch_33">
    <path d="M 729.380713 416.671696 
L 737.002145 416.671696 
L 737.002145 393.420603 
L 729.380713 393.420603 
z
" clip-path="url(#p20afffa8f0)" style="fill: #e5c494"/>
   </g>
   <g id="patch_34">
    <path d="M 737.002145 416.671696 
L 764.312277 416.671696 
L 764.312277 393.420603 
L 737.002145 393.420603 
z
" clip-path="url(#p20afffa8f0)" style="fill: #b3b3b3"/>
   </g>
   <g id="patch_35">
    <path d="M 128.557813 387.607829 
L 575.046712 387.607829 
L 575.046712 364.356736 
L 128.557813 364.356736 
z
" clip-path="url(#p20afffa8f0)" style="fill: #66c2a5"/>
   </g>
   <g id="patch_36">
    <path d="M 575.046712 387.607829 
L 712.232491 387.607829 
L 712.232491 364.356736 
L 575.046712 364.356736 
z
" clip-path="url(#p20afffa8f0)" style="fill: #fc8d62"/>
   </g>
   <g id="patch_37">
    <path d="M 712.232491 387.607829 
L 721.124161 387.607829 
L 721.124161 364.356736 
L 712.232491 364.356736 
z
" clip-path="url(#p20afffa8f0)" style="fill: #8da0cb"/>
   </g>
   <g id="patch_38">
    <path d="M 721.124161 387.607829 
L 723.664639 387.607829 
L 723.664639 364.356736 
L 721.124161 364.356736 
z
" clip-path="url(#p20afffa8f0)" style="fill: #e78ac3"/>
   </g>
   <g id="patch_39">
    <path d="M 723.664639 387.607829 
L 724.934877 387.607829 
L 724.934877 364.356736 
L 723.664639 364.356736 
z
" clip-path="url(#p20afffa8f0)" style="fill: #a6d854"/>
   </g>
   <g id="patch_40">
    <path d="M 724.934877 387.607829 
L 729.380713 387.607829 
L 729.380713 364.356736 
L 724.934877 364.356736 
z
" clip-path="url(#p20afffa8f0)" style="fill: #ffd92f"/>
   </g>
   <g id="patch_41">
    <path d="M 729.380713 387.607829 
L 734.461668 387.607829 
L 734.461668 364.356736 
L 729.380713 364.356736 
z
" clip-path="url(#p20afffa8f0)" style="fill: #e5c494"/>
   </g>
   <g id="patch_42">
    <path d="M 734.461668 387.607829 
L 763.677157 387.607829 
L 763.677157 364.356736 
L 734.461668 364.356736 
z
" clip-path="url(#p20afffa8f0)" style="fill: #b3b3b3"/>
   </g>
   <g id="patch_43">
    <path d="M 128.557813 358.543963 
L 511.534777 358.543963 
L 511.534777 335.29287 
L 128.557813 335.29287 
z
" clip-path="url(#p20afffa8f0)" style="fill: #66c2a5"/>
   </g>
   <g id="patch_44">
    <path d="M 511.534777 358.543963 
L 696.354507 358.543963 
L 696.354507 335.29287 
L 511.534777 335.29287 
z
" clip-path="url(#p20afffa8f0)" style="fill: #fc8d62"/>
   </g>
   <g id="patch_45">
    <path d="M 696.354507 358.543963 
L 708.421774 358.543963 
L 708.421774 335.29287 
L 696.354507 335.29287 
z
" clip-path="url(#p20afffa8f0)" style="fill: #8da0cb"/>
   </g>
   <g id="patch_46">
    <path d="M 708.421774 358.543963 
L 712.232491 358.543963 
L 712.232491 335.29287 
L 708.421774 335.29287 
z
" clip-path="url(#p20afffa8f0)" style="fill: #e78ac3"/>
   </g>
   <g id="patch_47">
    <path d="M 712.232491 358.543963 
L 713.502729 358.543963 
L 713.502729 335.29287 
L 712.232491 335.29287 
z
" clip-path="url(#p20afffa8f0)" style="fill: #a6d854"/>
   </g>
   <g id="patch_48">
    <path d="M 713.502729 358.543963 
L 723.029519 358.543963 
L 723.029519 335.29287 
L 713.502729 335.29287 
z
" clip-path="url(#p20afffa8f0)" style="fill: #ffd92f"/>
   </g>
   <g id="patch_49">
    <path d="M 723.029519 358.543963 
L 727.475355 358.543963 
L 727.475355 335.29287 
L 723.029519 335.29287 
z
" clip-path="url(#p20afffa8f0)" style="fill: #e5c494"/>
   </g>
   <g id="patch_50">
    <path d="M 727.475355 358.543963 
L 763.677157 358.543963 
L 763.677157 335.29287 
L 727.475355 335.29287 
z
" clip-path="url(#p20afffa8f0)" style="fill: #b3b3b3"/>
   </g>
   <g id="patch_51">
    <path d="M 128.557813 329.480096 
L 558.533609 329.480096 
L 558.533609 306.229003 
L 128.557813 306.229003 
z
" clip-path="url(#p20afffa8f0)" style="fill: #66c2a5"/>
   </g>
   <g id="patch_52">
    <path d="M 558.533609 329.480096 
L 708.421774 329.480096 
L 708.421774 306.229003 
L 558.533609 306.229003 
z
" clip-path="url(#p20afffa8f0)" style="fill: #fc8d62"/>
   </g>
   <g id="patch_53">
    <path d="M 708.421774 329.480096 
L 718.583684 329.480096 
L 718.583684 306.229003 
L 708.421774 306.229003 
z
" clip-path="url(#p20afffa8f0)" style="fill: #8da0cb"/>
   </g>
   <g id="patch_54">
    <path d="M 718.583684 329.480096 
L 721.124161 329.480096 
L 721.124161 306.229003 
L 718.583684 306.229003 
z
" clip-path="url(#p20afffa8f0)" style="fill: #e78ac3"/>
   </g>
   <g id="patch_55">
    <path d="M 721.124161 329.480096 
L 721.759281 329.480096 
L 721.759281 306.229003 
L 721.124161 306.229003 
z
" clip-path="url(#p20afffa8f0)" style="fill: #a6d854"/>
   </g>
   <g id="patch_56">
    <path d="M 721.759281 329.480096 
L 729.380713 329.480096 
L 729.380713 306.229003 
L 721.759281 306.229003 
z
" clip-path="url(#p20afffa8f0)" style="fill: #ffd92f"/>
   </g>
   <g id="patch_57">
    <path d="M 729.380713 329.480096 
L 735.731906 329.480096 
L 735.731906 306.229003 
L 729.380713 306.229003 
z
" clip-path="url(#p20afffa8f0)" style="fill: #e5c494"/>
   </g>
   <g id="patch_58">
    <path d="M 735.731906 329.480096 
L 763.677157 329.480096 
L 763.677157 306.229003 
L 735.731906 306.229003 
z
" clip-path="url(#p20afffa8f0)" style="fill: #b3b3b3"/>
   </g>
   <g id="patch_59">
    <path d="M 128.557813 300.41623 
L 534.399074 300.41623 
L 534.399074 277.165137 
L 128.557813 277.165137 
z
" clip-path="url(#p20afffa8f0)" style="fill: #66c2a5"/>
   </g>
   <g id="patch_60">
    <path d="M 534.399074 300.41623 
L 709.692013 300.41623 
L 709.692013 277.165137 
L 534.399074 277.165137 
z
" clip-path="url(#p20afffa8f0)" style="fill: #fc8d62"/>
   </g>
   <g id="patch_61">
    <path d="M 709.692013 300.41623 
L 717.313445 300.41623 
L 717.313445 277.165137 
L 709.692013 277.165137 
z
" clip-path="url(#p20afffa8f0)" style="fill: #8da0cb"/>
   </g>
   <g id="patch_62">
    <path d="M 717.313445 300.41623 
L 720.489042 300.41623 
L 720.489042 277.165137 
L 717.313445 277.165137 
z
" clip-path="url(#p20afffa8f0)" style="fill: #e78ac3"/>
   </g>
   <g id="patch_63">
    <path d="M 720.489042 300.41623 
L 723.029519 300.41623 
L 723.029519 277.165137 
L 720.489042 277.165137 
z
" clip-path="url(#p20afffa8f0)" style="fill: #a6d854"/>
   </g>
   <g id="patch_64">
    <path d="M 723.029519 300.41623 
L 731.92119 300.41623 
L 731.92119 277.165137 
L 723.029519 277.165137 
z
" clip-path="url(#p20afffa8f0)" style="fill: #ffd92f"/>
   </g>
   <g id="patch_65">
    <path d="M 731.92119 300.41623 
L 734.461668 300.41623 
L 734.461668 277.165137 
L 731.92119 277.165137 
z
" clip-path="url(#p20afffa8f0)" style="fill: #e5c494"/>
   </g>
   <g id="patch_66">
    <path d="M 734.461668 300.41623 
L 764.312277 300.41623 
L 764.312277 277.165137 
L 734.461668 277.165137 
z
" clip-path="url(#p20afffa8f0)" style="fill: #b3b3b3"/>
   </g>
   <g id="patch_67">
    <path d="M 128.557813 271.352363 
L 470.25202 271.352363 
L 470.25202 248.10127 
L 128.557813 248.10127 
z
" clip-path="url(#p20afffa8f0)" style="fill: #66c2a5"/>
   </g>
   <g id="patch_68">
    <path d="M 470.25202 271.352363 
L 716.043207 271.352363 
L 716.043207 248.10127 
L 470.25202 248.10127 
z
" clip-path="url(#p20afffa8f0)" style="fill: #fc8d62"/>
   </g>
   <g id="patch_69">
    <path d="M 716.043207 271.352363 
L 722.3944 271.352363 
L 722.3944 248.10127 
L 716.043207 248.10127 
z
" clip-path="url(#p20afffa8f0)" style="fill: #8da0cb"/>
   </g>
   <g id="patch_70">
    <path d="M 722.3944 271.352363 
L 724.299758 271.352363 
L 724.299758 248.10127 
L 722.3944 248.10127 
z
" clip-path="url(#p20afffa8f0)" style="fill: #e78ac3"/>
   </g>
   <g id="patch_71">
    <path d="M 724.299758 271.352363 
L 725.569997 271.352363 
L 725.569997 248.10127 
L 724.299758 248.10127 
z
" clip-path="url(#p20afffa8f0)" style="fill: #a6d854"/>
   </g>
   <g id="patch_72">
    <path d="M 725.569997 271.352363 
L 733.191429 271.352363 
L 733.191429 248.10127 
L 725.569997 248.10127 
z
" clip-path="url(#p20afffa8f0)" style="fill: #ffd92f"/>
   </g>
   <g id="patch_73">
    <path d="M 733.191429 271.352363 
L 737.002145 271.352363 
L 737.002145 248.10127 
L 733.191429 248.10127 
z
" clip-path="url(#p20afffa8f0)" style="fill: #e5c494"/>
   </g>
   <g id="patch_74">
    <path d="M 737.002145 271.352363 
L 763.042038 271.352363 
L 763.042038 248.10127 
L 737.002145 248.10127 
z
" clip-path="url(#p20afffa8f0)" style="fill: #b3b3b3"/>
   </g>
   <g id="patch_75">
    <path d="M 128.557813 242.288497 
L 510.899658 242.288497 
L 510.899658 219.037404 
L 128.557813 219.037404 
z
" clip-path="url(#p20afffa8f0)" style="fill: #66c2a5"/>
   </g>
   <g id="patch_76">
    <path d="M 510.899658 242.288497 
L 710.327132 242.288497 
L 710.327132 219.037404 
L 510.899658 219.037404 
z
" clip-path="url(#p20afffa8f0)" style="fill: #fc8d62"/>
   </g>
   <g id="patch_77">
    <path d="M 710.327132 242.288497 
L 712.86761 242.288497 
L 712.86761 219.037404 
L 710.327132 219.037404 
z
" clip-path="url(#p20afffa8f0)" style="fill: #8da0cb"/>
   </g>
   <g id="patch_78">
    <path d="M 712.86761 242.288497 
L 714.137849 242.288497 
L 714.137849 219.037404 
L 712.86761 219.037404 
z
" clip-path="url(#p20afffa8f0)" style="fill: #e78ac3"/>
   </g>
   <g id="patch_79">
    <path d="M 714.137849 242.288497 
L 714.772968 242.288497 
L 714.772968 219.037404 
L 714.137849 219.037404 
z
" clip-path="url(#p20afffa8f0)" style="fill: #a6d854"/>
   </g>
   <g id="patch_80">
    <path d="M 714.772968 242.288497 
L 723.664639 242.288497 
L 723.664639 219.037404 
L 714.772968 219.037404 
z
" clip-path="url(#p20afffa8f0)" style="fill: #ffd92f"/>
   </g>
   <g id="patch_81">
    <path d="M 723.664639 242.288497 
L 740.812861 242.288497 
L 740.812861 219.037404 
L 723.664639 219.037404 
z
" clip-path="url(#p20afffa8f0)" style="fill: #e5c494"/>
   </g>
   <g id="patch_82">
    <path d="M 740.812861 242.288497 
L 764.312277 242.288497 
L 764.312277 219.037404 
L 740.812861 219.037404 
z
" clip-path="url(#p20afffa8f0)" style="fill: #b3b3b3"/>
   </g>
   <g id="patch_83">
    <path d="M 128.557813 213.22463 
L 446.117485 213.22463 
L 446.117485 189.973537 
L 128.557813 189.973537 
z
" clip-path="url(#p20afffa8f0)" style="fill: #66c2a5"/>
   </g>
   <g id="patch_84">
    <path d="M 446.117485 213.22463 
L 683.017001 213.22463 
L 683.017001 189.973537 
L 446.117485 189.973537 
z
" clip-path="url(#p20afffa8f0)" style="fill: #fc8d62"/>
   </g>
   <g id="patch_85">
    <path d="M 683.017001 213.22463 
L 691.273552 213.22463 
L 691.273552 189.973537 
L 683.017001 189.973537 
z
" clip-path="url(#p20afffa8f0)" style="fill: #8da0cb"/>
   </g>
   <g id="patch_86">
    <path d="M 691.273552 213.22463 
L 693.17891 213.22463 
L 693.17891 189.973537 
L 691.273552 189.973537 
z
" clip-path="url(#p20afffa8f0)" style="fill: #e78ac3"/>
   </g>
   <g id="patch_87">
    <path d="M 693.17891 213.22463 
L 694.449149 213.22463 
L 694.449149 189.973537 
L 693.17891 189.973537 
z
" clip-path="url(#p20afffa8f0)" style="fill: #a6d854"/>
   </g>
   <g id="patch_88">
    <path d="M 694.449149 213.22463 
L 721.124161 213.22463 
L 721.124161 189.973537 
L 694.449149 189.973537 
z
" clip-path="url(#p20afffa8f0)" style="fill: #ffd92f"/>
   </g>
   <g id="patch_89">
    <path d="M 721.124161 213.22463 
L 735.096787 213.22463 
L 735.096787 189.973537 
L 721.124161 189.973537 
z
" clip-path="url(#p20afffa8f0)" style="fill: #e5c494"/>
   </g>
   <g id="patch_90">
    <path d="M 735.096787 213.22463 
L 763.042038 213.22463 
L 763.042038 189.973537 
L 735.096787 189.973537 
z
" clip-path="url(#p20afffa8f0)" style="fill: #b3b3b3"/>
   </g>
   <g id="patch_91">
    <path d="M 128.557813 184.160764 
L 448.657962 184.160764 
L 448.657962 160.909671 
L 128.557813 160.909671 
z
" clip-path="url(#p20afffa8f0)" style="fill: #66c2a5"/>
   </g>
   <g id="patch_92">
    <path d="M 448.657962 184.160764 
L 656.977107 184.160764 
L 656.977107 160.909671 
L 448.657962 160.909671 
z
" clip-path="url(#p20afffa8f0)" style="fill: #fc8d62"/>
   </g>
   <g id="patch_93">
    <path d="M 656.977107 184.160764 
L 685.557478 184.160764 
L 685.557478 160.909671 
L 656.977107 160.909671 
z
" clip-path="url(#p20afffa8f0)" style="fill: #8da0cb"/>
   </g>
   <g id="patch_94">
    <path d="M 685.557478 184.160764 
L 696.989626 184.160764 
L 696.989626 160.909671 
L 685.557478 160.909671 
z
" clip-path="url(#p20afffa8f0)" style="fill: #e78ac3"/>
   </g>
   <g id="patch_95">
    <path d="M 696.989626 184.160764 
L 701.435462 184.160764 
L 701.435462 160.909671 
L 696.989626 160.909671 
z
" clip-path="url(#p20afffa8f0)" style="fill: #a6d854"/>
   </g>
   <g id="patch_96">
    <path d="M 701.435462 184.160764 
L 710.962252 184.160764 
L 710.962252 160.909671 
L 701.435462 160.909671 
z
" clip-path="url(#p20afffa8f0)" style="fill: #ffd92f"/>
   </g>
   <g id="patch_97">
    <path d="M 710.962252 184.160764 
L 717.948565 184.160764 
L 717.948565 160.909671 
L 710.962252 160.909671 
z
" clip-path="url(#p20afffa8f0)" style="fill: #e5c494"/>
   </g>
   <g id="patch_98">
    <path d="M 717.948565 184.160764 
L 764.312277 184.160764 
L 764.312277 160.909671 
L 717.948565 160.909671 
z
" clip-path="url(#p20afffa8f0)" style="fill: #b3b3b3"/>
   </g>
   <g id="patch_99">
    <path d="M 128.557813 155.096897 
L 538.844909 155.096897 
L 538.844909 131.845804 
L 128.557813 131.845804 
z
" clip-path="url(#p20afffa8f0)" style="fill: #66c2a5"/>
   </g>
   <g id="patch_100">
    <path d="M 538.844909 155.096897 
L 721.759281 155.096897 
L 721.759281 131.845804 
L 538.844909 131.845804 
z
" clip-path="url(#p20afffa8f0)" style="fill: #fc8d62"/>
   </g>
   <g id="patch_101">
    <path d="M 721.759281 155.096897 
L 727.475355 155.096897 
L 727.475355 131.845804 
L 721.759281 131.845804 
z
" clip-path="url(#p20afffa8f0)" style="fill: #8da0cb"/>
   </g>
   <g id="patch_102">
    <path d="M 727.475355 155.096897 
L 729.380713 155.096897 
L 729.380713 131.845804 
L 727.475355 131.845804 
z
" clip-path="url(#p20afffa8f0)" style="fill: #e78ac3"/>
   </g>
   <g id="patch_103">
    <path d="M 729.380713 155.096897 
L 730.015832 155.096897 
L 730.015832 131.845804 
L 729.380713 131.845804 
z
" clip-path="url(#p20afffa8f0)" style="fill: #a6d854"/>
   </g>
   <g id="patch_104">
    <path d="M 730.015832 155.096897 
L 735.096787 155.096897 
L 735.096787 131.845804 
L 730.015832 131.845804 
z
" clip-path="url(#p20afffa8f0)" style="fill: #ffd92f"/>
   </g>
   <g id="patch_105">
    <path d="M 735.096787 155.096897 
L 739.542622 155.096897 
L 739.542622 131.845804 
L 735.096787 131.845804 
z
" clip-path="url(#p20afffa8f0)" style="fill: #e5c494"/>
   </g>
   <g id="patch_106">
    <path d="M 739.542622 155.096897 
L 763.677157 155.096897 
L 763.677157 131.845804 
L 739.542622 131.845804 
z
" clip-path="url(#p20afffa8f0)" style="fill: #b3b3b3"/>
   </g>
   <g id="patch_107">
    <path d="M 128.557813 126.033031 
L 473.427617 126.033031 
L 473.427617 102.781938 
L 128.557813 102.781938 
z
" clip-path="url(#p20afffa8f0)" style="fill: #66c2a5"/>
   </g>
   <g id="patch_108">
    <path d="M 473.427617 126.033031 
L 680.476523 126.033031 
L 680.476523 102.781938 
L 473.427617 102.781938 
z
" clip-path="url(#p20afffa8f0)" style="fill: #fc8d62"/>
   </g>
   <g id="patch_109">
    <path d="M 680.476523 126.033031 
L 684.287239 126.033031 
L 684.287239 102.781938 
L 680.476523 102.781938 
z
" clip-path="url(#p20afffa8f0)" style="fill: #8da0cb"/>
   </g>
   <g id="patch_110">
    <path d="M 684.287239 126.033031 
L 685.557478 126.033031 
L 685.557478 102.781938 
L 684.287239 102.781938 
z
" clip-path="url(#p20afffa8f0)" style="fill: #e78ac3"/>
   </g>
   <g id="patch_111">
    <path d="M 685.557478 126.033031 
L 686.192597 126.033031 
L 686.192597 102.781938 
L 685.557478 102.781938 
z
" clip-path="url(#p20afffa8f0)" style="fill: #a6d854"/>
   </g>
   <g id="patch_112">
    <path d="M 686.192597 126.033031 
L 722.3944 126.033031 
L 722.3944 102.781938 
L 686.192597 102.781938 
z
" clip-path="url(#p20afffa8f0)" style="fill: #ffd92f"/>
   </g>
   <g id="patch_113">
    <path d="M 722.3944 126.033031 
L 739.542622 126.033031 
L 739.542622 102.781938 
L 722.3944 102.781938 
z
" clip-path="url(#p20afffa8f0)" style="fill: #e5c494"/>
   </g>
   <g id="patch_114">
    <path d="M 739.542622 126.033031 
L 763.042038 126.033031 
L 763.042038 102.781938 
L 739.542622 102.781938 
z
" clip-path="url(#p20afffa8f0)" style="fill: #b3b3b3"/>
   </g>
   <g id="patch_115">
    <path d="M 128.557813 96.969164 
L 538.20979 96.969164 
L 538.20979 73.718071 
L 128.557813 73.718071 
z
" clip-path="url(#p20afffa8f0)" style="fill: #66c2a5"/>
   </g>
   <g id="patch_116">
    <path d="M 538.20979 96.969164 
L 705.881297 96.969164 
L 705.881297 73.718071 
L 538.20979 73.718071 
z
" clip-path="url(#p20afffa8f0)" style="fill: #fc8d62"/>
   </g>
   <g id="patch_117">
    <path d="M 705.881297 96.969164 
L 714.137849 96.969164 
L 714.137849 73.718071 
L 705.881297 73.718071 
z
" clip-path="url(#p20afffa8f0)" style="fill: #8da0cb"/>
   </g>
   <g id="patch_118">
    <path d="M 714.137849 96.969164 
L 716.678326 96.969164 
L 716.678326 73.718071 
L 714.137849 73.718071 
z
" clip-path="url(#p20afffa8f0)" style="fill: #e78ac3"/>
   </g>
   <g id="patch_119">
    <path d="M 716.678326 96.969164 
L 718.583684 96.969164 
L 718.583684 73.718071 
L 716.678326 73.718071 
z
" clip-path="url(#p20afffa8f0)" style="fill: #a6d854"/>
   </g>
   <g id="patch_120">
    <path d="M 718.583684 96.969164 
L 728.110474 96.969164 
L 728.110474 73.718071 
L 718.583684 73.718071 
z
" clip-path="url(#p20afffa8f0)" style="fill: #ffd92f"/>
   </g>
   <g id="patch_121">
    <path d="M 728.110474 96.969164 
L 735.731906 96.969164 
L 735.731906 73.718071 
L 728.110474 73.718071 
z
" clip-path="url(#p20afffa8f0)" style="fill: #e5c494"/>
   </g>
   <g id="patch_122">
    <path d="M 735.731906 96.969164 
L 764.312277 96.969164 
L 764.312277 73.718071 
L 735.731906 73.718071 
z
" clip-path="url(#p20afffa8f0)" style="fill: #b3b3b3"/>
   </g>
   <g id="patch_123">
    <path d="M 128.557813 67.905298 
L 441.03653 67.905298 
L 441.03653 44.654205 
L 128.557813 44.654205 
z
" clip-path="url(#p20afffa8f0)" style="fill: #66c2a5"/>
   </g>
   <g id="patch_124">
    <path d="M 441.03653 67.905298 
L 674.760449 67.905298 
L 674.760449 44.654205 
L 441.03653 44.654205 
z
" clip-path="url(#p20afffa8f0)" style="fill: #fc8d62"/>
   </g>
   <g id="patch_125">
    <path d="M 674.760449 67.905298 
L 678.571165 67.905298 
L 678.571165 44.654205 
L 674.760449 44.654205 
z
" clip-path="url(#p20afffa8f0)" style="fill: #8da0cb"/>
   </g>
   <g id="patch_126">
    <path d="M 678.571165 67.905298 
L 680.476523 67.905298 
L 680.476523 44.654205 
L 678.571165 44.654205 
z
" clip-path="url(#p20afffa8f0)" style="fill: #e78ac3"/>
   </g>
   <g id="patch_127">
    <path d="M 680.476523 67.905298 
L 682.381881 67.905298 
L 682.381881 44.654205 
L 680.476523 44.654205 
z
" clip-path="url(#p20afffa8f0)" style="fill: #a6d854"/>
   </g>
   <g id="patch_128">
    <path d="M 682.381881 67.905298 
L 716.043207 67.905298 
L 716.043207 44.654205 
L 682.381881 44.654205 
z
" clip-path="url(#p20afffa8f0)" style="fill: #ffd92f"/>
   </g>
   <g id="patch_129">
    <path d="M 716.043207 67.905298 
L 736.367026 67.905298 
L 736.367026 44.654205 
L 716.043207 44.654205 
z
" clip-path="url(#p20afffa8f0)" style="fill: #e5c494"/>
   </g>
   <g id="patch_130">
    <path d="M 736.367026 67.905298 
L 763.677157 67.905298 
L 763.677157 44.654205 
L 736.367026 44.654205 
z
" clip-path="url(#p20afffa8f0)" style="fill: #b3b3b3"/>
   </g>
   <g id="patch_131">
    <path d="M 128.557813 526.82375 
L 128.557813 21.69375 
" style="fill: none"/>
   </g>
   <g id="patch_132">
    <path d="M 796.1 526.82375 
L 796.1 21.69375 
" style="fill: none"/>
   </g>
   <g id="patch_133">
    <path d="M 128.557813 526.82375 
L 796.1 526.82375 
" style="fill: none"/>
   </g>
   <g id="patch_134">
    <path d="M 128.557813 21.69375 
L 796.1 21.69375 
" style="fill: none"/>
   </g>
   <g id="legend_1">
    <g id="patch_135">
     <path d="M 788.585547 164.574687 
L 808.585547 164.574687 
L 808.585547 157.574687 
L 788.585547 157.574687 
z
" style="fill: #66c2a5"/>
    </g>
    <g id="text_24">
     <!-- Utilised agricultural area -->
     <g style="fill: #e6e6e6" transform="translate(816.585547 164.574687)scale(0.1 -0.1)">
      <defs>
       <path id="DejaVuSans-74" d="M 1172 4494 
L 1172 3500 
L 2356 3500 
L 2356 3053 
L 1172 3053 
L 1172 1153 
Q 1172 725 1289 603 
Q 1406 481 1766 481 
L 2356 481 
L 2356 0 
L 1766 0 
Q 1100 0 847 248 
Q 594 497 594 1153 
L 594 3053 
L 172 3053 
L 172 3500 
L 594 3500 
L 594 4494 
L 1172 4494 
z
" transform="scale(0.015625)"/>
       <path id="DejaVuSans-73" d="M 2834 3397 
L 2834 2853 
Q 2591 2978 2328 3040 
Q 2066 3103 1784 3103 
Q 1356 3103 1142 2972 
Q 928 2841 928 2578 
Q 928 2378 1081 2264 
Q 1234 2150 1697 2047 
L 1894 2003 
Q 2506 1872 2764 1633 
Q 3022 1394 3022 966 
Q 3022 478 2636 193 
Q 2250 -91 1575 -91 
Q 1294 -91 989 -36 
Q 684 19 347 128 
L 347 722 
Q 666 556 975 473 
Q 1284 391 1588 391 
Q 1994 391 2212 530 
Q 2431 669 2431 922 
Q 2431 1156 2273 1281 
Q 2116 1406 1581 1522 
L 1381 1569 
Q 847 1681 609 1914 
Q 372 2147 372 2553 
Q 372 3047 722 3315 
Q 1072 3584 1716 3584 
Q 2034 3584 2315 3537 
Q 2597 3491 2834 3397 
z
" transform="scale(0.015625)"/>
       <path id="DejaVuSans-64" d="M 2906 2969 
L 2906 4863 
L 3481 4863 
L 3481 0 
L 2906 0 
L 2906 525 
Q 2725 213 2448 61 
Q 2172 -91 1784 -91 
Q 1150 -91 751 415 
Q 353 922 353 1747 
Q 353 2572 751 3078 
Q 1150 3584 1784 3584 
Q 2172 3584 2448 3432 
Q 2725 3281 2906 2969 
z
M 947 1747 
Q 947 1113 1208 752 
Q 1469 391 1925 391 
Q 2381 391 2643 752 
Q 2906 1113 2906 1747 
Q 2906 2381 2643 2742 
Q 2381 3103 1925 3103 
Q 1469 3103 1208 2742 
Q 947 2381 947 1747 
z
" transform="scale(0.015625)"/>
       <path id="DejaVuSans-61" d="M 2194 1759 
Q 1497 1759 1228 1600 
Q 959 1441 959 1056 
Q 959 750 1161 570 
Q 1363 391 1709 391 
Q 2188 391 2477 730 
Q 2766 1069 2766 1631 
L 2766 1759 
L 2194 1759 
z
M 3341 1997 
L 3341 0 
L 2766 0 
L 2766 531 
Q 2569 213 2275 61 
Q 1981 -91 1556 -91 
Q 1019 -91 701 211 
Q 384 513 384 1019 
Q 384 1609 779 1909 
Q 1175 2209 1959 2209 
L 2766 2209 
L 2766 2266 
Q 2766 2663 2505 2880 
Q 2244 3097 1772 3097 
Q 1472 3097 1187 3025 
Q 903 2953 641 2809 
L 641 3341 
Q 956 3463 1253 3523 
Q 1550 3584 1831 3584 
Q 2591 3584 2966 3190 
Q 3341 2797 3341 1997 
z
" transform="scale(0.015625)"/>
       <path id="DejaVuSans-63" d="M 3122 3366 
L 3122 2828 
Q 2878 2963 2633 3030 
Q 2388 3097 2138 3097 
Q 1578 3097 1268 2742 
Q 959 2388 959 1747 
Q 959 1106 1268 751 
Q 1578 397 2138 397 
Q 2388 397 2633 464 
Q 2878 531 3122 666 
L 3122 134 
Q 2881 22 2623 -34 
Q 2366 -91 2075 -91 
Q 1284 -91 818 406 
Q 353 903 353 1747 
Q 353 2603 823 3093 
Q 1294 3584 2113 3584 
Q 2378 3584 2631 3529 
Q 2884 3475 3122 3366 
z
" transform="scale(0.015625)"/>
       <path id="DejaVuSans-75" d="M 544 1381 
L 544 3500 
L 1119 3500 
L 1119 1403 
Q 1119 906 1312 657 
Q 1506 409 1894 409 
Q 2359 409 2629 706 
Q 2900 1003 2900 1516 
L 2900 3500 
L 3475 3500 
L 3475 0 
L 2900 0 
L 2900 538 
Q 2691 219 2414 64 
Q 2138 -91 1772 -91 
Q 1169 -91 856 284 
Q 544 659 544 1381 
z
M 1991 3584 
L 1991 3584 
z
" transform="scale(0.015625)"/>
      </defs>
      <use xlink:href="#DejaVuSans-55"/>
      <use xlink:href="#DejaVuSans-74" x="73.193359"/>
      <use xlink:href="#DejaVuSans-69" x="112.402344"/>
      <use xlink:href="#DejaVuSans-6c" x="140.185547"/>
      <use xlink:href="#DejaVuSans-69" x="167.96875"/>
      <use xlink:href="#DejaVuSans-73" x="195.751953"/>
      <use xlink:href="#DejaVuSans-65" x="247.851562"/>
      <use xlink:href="#DejaVuSans-64" x="309.375"/>
      <use xlink:href="#DejaVuSans-20" x="372.851562"/>
      <use xlink:href="#DejaVuSans-61" x="404.638672"/>
      <use xlink:href="#DejaVuSans-67" x="465.917969"/>
      <use xlink:href="#DejaVuSans-72" x="529.394531"/>
      <use xlink:href="#DejaVuSans-69" x="570.507812"/>
      <use xlink:href="#DejaVuSans-63" x="598.291016"/>
      <use xlink:href="#DejaVuSans-75" x="653.271484"/>
      <use xlink:href="#DejaVuSans-6c" x="716.650391"/>
      <use xlink:href="#DejaVuSans-74" x="744.433594"/>
      <use xlink:href="#DejaVuSans-75" x="783.642578"/>
      <use xlink:href="#DejaVuSans-72" x="847.021484"/>
      <use xlink:href="#DejaVuSans-61" x="888.134766"/>
      <use xlink:href="#DejaVuSans-6c" x="949.414062"/>
      <use xlink:href="#DejaVuSans-20" x="977.197266"/>
      <use xlink:href="#DejaVuSans-61" x="1008.984375"/>
      <use xlink:href="#DejaVuSans-72" x="1070.263672"/>
      <use xlink:href="#DejaVuSans-65" x="1109.126953"/>
      <use xlink:href="#DejaVuSans-61" x="1170.650391"/>
     </g>
    </g>
    <g id="patch_136">
     <path d="M 788.585547 179.252812 
L 808.585547 179.252812 
L 808.585547 172.252812 
L 788.585547 172.252812 
z
" style="fill: #fc8d62"/>
    </g>
    <g id="text_25">
     <!-- Forests -->
     <g style="fill: #e6e6e6" transform="translate(816.585547 179.252812)scale(0.1 -0.1)">
      <defs>
       <path id="DejaVuSans-46" d="M 628 4666 
L 3309 4666 
L 3309 4134 
L 1259 4134 
L 1259 2759 
L 3109 2759 
L 3109 2228 
L 1259 2228 
L 1259 0 
L 628 0 
L 628 4666 
z
" transform="scale(0.015625)"/>
      </defs>
      <use xlink:href="#DejaVuSans-46"/>
      <use xlink:href="#DejaVuSans-6f" x="53.894531"/>
      <use xlink:href="#DejaVuSans-72" x="115.076172"/>
      <use xlink:href="#DejaVuSans-65" x="153.939453"/>
      <use xlink:href="#DejaVuSans-73" x="215.462891"/>
      <use xlink:href="#DejaVuSans-74" x="267.5625"/>
      <use xlink:href="#DejaVuSans-73" x="306.771484"/>
     </g>
    </g>
    <g id="patch_137">
     <path d="M 788.585547 193.930937 
L 808.585547 193.930937 
L 808.585547 186.930937 
L 788.585547 186.930937 
z
" style="fill: #8da0cb"/>
    </g>
    <g id="text_26">
     <!-- Residential areas -->
     <g style="fill: #e6e6e6" transform="translate(816.585547 193.930937)scale(0.1 -0.1)">
      <use xlink:href="#DejaVuSans-52"/>
      <use xlink:href="#DejaVuSans-65" x="64.982422"/>
      <use xlink:href="#DejaVuSans-73" x="126.505859"/>
      <use xlink:href="#DejaVuSans-69" x="178.605469"/>
      <use xlink:href="#DejaVuSans-64" x="206.388672"/>
      <use xlink:href="#DejaVuSans-65" x="269.865234"/>
      <use xlink:href="#DejaVuSans-6e" x="331.388672"/>
      <use xlink:href="#DejaVuSans-74" x="394.767578"/>
      <use xlink:href="#DejaVuSans-69" x="433.976562"/>
      <use xlink:href="#DejaVuSans-61" x="461.759766"/>
      <use xlink:href="#DejaVuSans-6c" x="523.039062"/>
      <use xlink:href="#DejaVuSans-20" x="550.822266"/>
      <use xlink:href="#DejaVuSans-61" x="582.609375"/>
      <use xlink:href="#DejaVuSans-72" x="643.888672"/>
      <use xlink:href="#DejaVuSans-65" x="682.751953"/>
      <use xlink:href="#DejaVuSans-61" x="744.275391"/>
      <use xlink:href="#DejaVuSans-73" x="805.554688"/>
     </g>
    </g>
    <g id="patch_138">
     <path d="M 788.585547 208.609062 
L 808.585547 208.609062 
L 808.585547 201.609062 
L 788.585547 201.609062 
z
" style="fill: #e78ac3"/>
    </g>
    <g id="text_27">
     <!-- Industrial lands -->
     <g style="fill: #e6e6e6" transform="translate(816.585547 208.609062)scale(0.1 -0.1)">
      <use xlink:href="#DejaVuSans-49"/>
      <use xlink:href="#DejaVuSans-6e" x="29.492188"/>
      <use xlink:href="#DejaVuSans-64" x="92.871094"/>
      <use xlink:href="#DejaVuSans-75" x="156.347656"/>
      <use xlink:href="#DejaVuSans-73" x="219.726562"/>
      <use xlink:href="#DejaVuSans-74" x="271.826172"/>
      <use xlink:href="#DejaVuSans-72" x="311.035156"/>
      <use xlink:href="#DejaVuSans-69" x="352.148438"/>
      <use xlink:href="#DejaVuSans-61" x="379.931641"/>
      <use xlink:href="#DejaVuSans-6c" x="441.210938"/>
      <use xlink:href="#DejaVuSans-20" x="468.994141"/>
      <use xlink:href="#DejaVuSans-6c" x="500.78125"/>
      <use xlink:href="#DejaVuSans-61" x="528.564453"/>
      <use xlink:href="#DejaVuSans-6e" x="589.84375"/>
      <use xlink:href="#DejaVuSans-64" x="653.222656"/>
      <use xlink:href="#DejaVuSans-73" x="716.699219"/>
     </g>
    </g>
    <g id="patch_139">
     <path d="M 788.585547 223.287187 
L 808.585547 223.287187 
L 808.585547 216.287187 
L 788.585547 216.287187 
z
" style="fill: #a6d854"/>
    </g>
    <g id="text_28">
     <!-- Recreational and rest areas -->
     <g style="fill: #e6e6e6" transform="translate(816.585547 223.287187)scale(0.1 -0.1)">
      <use xlink:href="#DejaVuSans-52"/>
      <use xlink:href="#DejaVuSans-65" x="64.982422"/>
      <use xlink:href="#DejaVuSans-63" x="126.505859"/>
      <use xlink:href="#DejaVuSans-72" x="181.486328"/>
      <use xlink:href="#DejaVuSans-65" x="220.349609"/>
      <use xlink:href="#DejaVuSans-61" x="281.873047"/>
      <use xlink:href="#DejaVuSans-74" x="343.152344"/>
      <use xlink:href="#DejaVuSans-69" x="382.361328"/>
      <use xlink:href="#DejaVuSans-6f" x="410.144531"/>
      <use xlink:href="#DejaVuSans-6e" x="471.326172"/>
      <use xlink:href="#DejaVuSans-61" x="534.705078"/>
      <use xlink:href="#DejaVuSans-6c" x="595.984375"/>
      <use xlink:href="#DejaVuSans-20" x="623.767578"/>
      <use xlink:href="#DejaVuSans-61" x="655.554688"/>
      <use xlink:href="#DejaVuSans-6e" x="716.833984"/>
      <use xlink:href="#DejaVuSans-64" x="780.212891"/>
      <use xlink:href="#DejaVuSans-20" x="843.689453"/>
      <use xlink:href="#DejaVuSans-72" x="875.476562"/>
      <use xlink:href="#DejaVuSans-65" x="914.339844"/>
      <use xlink:href="#DejaVuSans-73" x="975.863281"/>
      <use xlink:href="#DejaVuSans-74" x="1027.962891"/>
      <use xlink:href="#DejaVuSans-20" x="1067.171875"/>
      <use xlink:href="#DejaVuSans-61" x="1098.958984"/>
      <use xlink:href="#DejaVuSans-72" x="1160.238281"/>
      <use xlink:href="#DejaVuSans-65" x="1199.101562"/>
      <use xlink:href="#DejaVuSans-61" x="1260.625"/>
      <use xlink:href="#DejaVuSans-73" x="1321.904297"/>
     </g>
    </g>
    <g id="patch_140">
     <path d="M 788.585547 237.965312 
L 808.585547 237.965312 
L 808.585547 230.965312 
L 788.585547 230.965312 
z
" style="fill: #ffd92f"/>
    </g>
    <g id="text_29">
     <!-- Lands under waters -->
     <g style="fill: #e6e6e6" transform="translate(816.585547 237.965312)scale(0.1 -0.1)">
      <use xlink:href="#DejaVuSans-4c"/>
      <use xlink:href="#DejaVuSans-61" x="55.712891"/>
      <use xlink:href="#DejaVuSans-6e" x="116.992188"/>
      <use xlink:href="#DejaVuSans-64" x="180.371094"/>
      <use xlink:href="#DejaVuSans-73" x="243.847656"/>
      <use xlink:href="#DejaVuSans-20" x="295.947266"/>
      <use xlink:href="#DejaVuSans-75" x="327.734375"/>
      <use xlink:href="#DejaVuSans-6e" x="391.113281"/>
      <use xlink:href="#DejaVuSans-64" x="454.492188"/>
      <use xlink:href="#DejaVuSans-65" x="517.96875"/>
      <use xlink:href="#DejaVuSans-72" x="579.492188"/>
      <use xlink:href="#DejaVuSans-20" x="620.605469"/>
      <use xlink:href="#DejaVuSans-77" x="652.392578"/>
      <use xlink:href="#DejaVuSans-61" x="734.179688"/>
      <use xlink:href="#DejaVuSans-74" x="795.458984"/>
      <use xlink:href="#DejaVuSans-65" x="834.667969"/>
      <use xlink:href="#DejaVuSans-72" x="896.191406"/>
      <use xlink:href="#DejaVuSans-73" x="937.304688"/>
     </g>
    </g>
    <g id="patch_141">
     <path d="M 788.585547 252.643437 
L 808.585547 252.643437 
L 808.585547 245.643437 
L 788.585547 245.643437 
z
" style="fill: #e5c494"/>
    </g>
    <g id="text_30">
     <!-- Wasteland -->
     <g style="fill: #e6e6e6" transform="translate(816.585547 252.643437)scale(0.1 -0.1)">
      <use xlink:href="#DejaVuSans-57"/>
      <use xlink:href="#DejaVuSans-61" x="92.501953"/>
      <use xlink:href="#DejaVuSans-73" x="153.78125"/>
      <use xlink:href="#DejaVuSans-74" x="205.880859"/>
      <use xlink:href="#DejaVuSans-65" x="245.089844"/>
      <use xlink:href="#DejaVuSans-6c" x="306.613281"/>
      <use xlink:href="#DejaVuSans-61" x="334.396484"/>
      <use xlink:href="#DejaVuSans-6e" x="395.675781"/>
      <use xlink:href="#DejaVuSans-64" x="459.054688"/>
     </g>
    </g>
    <g id="patch_142">
     <path d="M 788.585547 267.321562 
L 808.585547 267.321562 
L 808.585547 260.321562 
L 788.585547 260.321562 
z
" style="fill: #b3b3b3"/>
    </g>
    <g id="text_31">
     <!-- Other -->
     <g style="fill: #e6e6e6" transform="translate(816.585547 267.321562)scale(0.1 -0.1)">
      <use xlink:href="#DejaVuSans-4f"/>
      <use xlink:href="#DejaVuSans-74" x="78.710938"/>
      <use xlink:href="#DejaVuSans-68" x="117.919922"/>
      <use xlink:href="#DejaVuSans-65" x="181.298828"/>
      <use xlink:href="#DejaVuSans-72" x="242.822266"/>
     </g>
    </g>
   </g>
  </g>
  <g id="text_32">
   <!-- Distribution of Land Usage per region -->
   <g style="fill: #e6e6e6" transform="translate(380.612813 9.118125)scale(0.12 -0.12)">
    <defs>
     <path id="DejaVuSans-62" d="M 3116 1747 
Q 3116 2381 2855 2742 
Q 2594 3103 2138 3103 
Q 1681 3103 1420 2742 
Q 1159 2381 1159 1747 
Q 1159 1113 1420 752 
Q 1681 391 2138 391 
Q 2594 391 2855 752 
Q 3116 1113 3116 1747 
z
M 1159 2969 
Q 1341 3281 1617 3432 
Q 1894 3584 2278 3584 
Q 2916 3584 3314 3078 
Q 3713 2572 3713 1747 
Q 3713 922 3314 415 
Q 2916 -91 2278 -91 
Q 1894 -91 1617 61 
Q 1341 213 1159 525 
L 1159 0 
L 581 0 
L 581 4863 
L 1159 4863 
L 1159 2969 
z
" transform="scale(0.015625)"/>
     <path id="DejaVuSans-70" d="M 1159 525 
L 1159 -1331 
L 581 -1331 
L 581 3500 
L 1159 3500 
L 1159 2969 
Q 1341 3281 1617 3432 
Q 1894 3584 2278 3584 
Q 2916 3584 3314 3078 
Q 3713 2572 3713 1747 
Q 3713 922 3314 415 
Q 2916 -91 2278 -91 
Q 1894 -91 1617 61 
Q 1341 213 1159 525 
z
M 3116 1747 
Q 3116 2381 2855 2742 
Q 2594 3103 2138 3103 
Q 1681 3103 1420 2742 
Q 1159 2381 1159 1747 
Q 1159 1113 1420 752 
Q 1681 391 2138 391 
Q 2594 391 2855 752 
Q 3116 1113 3116 1747 
z
" transform="scale(0.015625)"/>
    </defs>
    <use xlink:href="#DejaVuSans-44"/>
    <use xlink:href="#DejaVuSans-69" x="77.001953"/>
    <use xlink:href="#DejaVuSans-73" x="104.785156"/>
    <use xlink:href="#DejaVuSans-74" x="156.884766"/>
    <use xlink:href="#DejaVuSans-72" x="196.09375"/>
    <use xlink:href="#DejaVuSans-69" x="237.207031"/>
    <use xlink:href="#DejaVuSans-62" x="264.990234"/>
    <use xlink:href="#DejaVuSans-75" x="328.466797"/>
    <use xlink:href="#DejaVuSans-74" x="391.845703"/>
    <use xlink:href="#DejaVuSans-69" x="431.054688"/>
    <use xlink:href="#DejaVuSans-6f" x="458.837891"/>
    <use xlink:href="#DejaVuSans-6e" x="520.019531"/>
    <use xlink:href="#DejaVuSans-20" x="583.398438"/>
    <use xlink:href="#DejaVuSans-6f" x="615.185547"/>
    <use xlink:href="#DejaVuSans-66" x="676.367188"/>
    <use xlink:href="#DejaVuSans-20" x="711.572266"/>
    <use xlink:href="#DejaVuSans-4c" x="743.359375"/>
    <use xlink:href="#DejaVuSans-61" x="799.072266"/>
    <use xlink:href="#DejaVuSans-6e" x="860.351562"/>
    <use xlink:href="#DejaVuSans-64" x="923.730469"/>
    <use xlink:href="#DejaVuSans-20" x="987.207031"/>
    <use xlink:href="#DejaVuSans-55" x="1018.994141"/>
    <use xlink:href="#DejaVuSans-73" x="1092.1875"/>
    <use xlink:href="#DejaVuSans-61" x="1144.287109"/>
    <use xlink:href="#DejaVuSans-67" x="1205.566406"/>
    <use xlink:href="#DejaVuSans-65" x="1269.042969"/>
    <use xlink:href="#DejaVuSans-20" x="1330.566406"/>
    <use xlink:href="#DejaVuSans-70" x="1362.353516"/>
    <use xlink:href="#DejaVuSans-65" x="1425.830078"/>
    <use xlink:href="#DejaVuSans-72" x="1487.353516"/>
    <use xlink:href="#DejaVuSans-20" x="1528.466797"/>
    <use xlink:href="#DejaVuSans-72" x="1560.253906"/>
    <use xlink:href="#DejaVuSans-65" x="1599.117188"/>
    <use xlink:href="#DejaVuSans-67" x="1660.640625"/>
    <use xlink:href="#DejaVuSans-69" x="1724.117188"/>
    <use xlink:href="#DejaVuSans-6f" x="1751.900391"/>
    <use xlink:href="#DejaVuSans-6e" x="1813.082031"/>
   </g>
  </g>
 </g>
 <defs>
  <clipPath id="p20afffa8f0">
   <rect x="128.557813" y="21.69375" width="667.542188" height="505.13"/>
  </clipPath>
 </defs>
</svg>
